<svg xmlns="http://www.w3.org/2000/svg" xmlns:xlink="http://www.w3.org/1999/xlink" width="940" zoomAndPan="magnify" viewBox="0 0 705 591.000005" height="788" preserveAspectRatio="xMidYMid meet" version="1.0"><defs><clipPath id="b386aeca29"><path d="M 382 434 L 412 434 L 412 449.628906 L 382 449.628906 Z M 382 434 " clip-rule="nonzero"/></clipPath><clipPath id="d5fc6b01ac"><path d="M 110.140625 218 L 146 218 L 146 237 L 110.140625 237 Z M 110.140625 218 " clip-rule="nonzero"/></clipPath></defs><path fill="#000000" d="M 491.246094 170.191406 C 490.328125 173.46875 491.085938 174.78125 494.78125 176.316406 C 496.226562 176.914062 497.433594 177.417969 497.46875 177.433594 C 497.503906 177.453125 497.503906 176.570312 497.46875 175.472656 C 497.351562 171.617188 500.054688 170.253906 507.984375 170.175781 C 515.410156 170.105469 515.953125 169.066406 509.472656 167.320312 C 504.417969 165.953125 502.164062 166.289062 498.363281 168.964844 C 496.34375 170.386719 493.917969 168.992188 493.09375 165.929688 C 492.273438 162.882812 489.335938 158.320312 488.199219 158.320312 C 487.429688 158.320312 487.902344 159.488281 489.863281 162.414062 C 492.117188 165.78125 492.261719 166.578125 491.246094 170.191406 Z M 491.246094 170.191406 " fill-opacity="1" fill-rule="nonzero"/><path fill="#000000" d="M 368.046875 322.699219 C 364.042969 318.601562 360.980469 316.785156 358.59375 315.214844 C 352.410156 318.324219 355.171875 315.351562 343.726562 320.5 C 341.195312 321.640625 338.710938 321.035156 338.710938 321.730469 C 338.710938 322.378906 342.984375 321.847656 346.164062 320.800781 C 349.132812 319.824219 353.320312 319.714844 356.027344 319.566406 C 356.917969 321.183594 357.6875 323.203125 361.375 323.621094 C 363.191406 323.824219 363.234375 323.804688 362.777344 322.953125 C 361.007812 319.644531 365.289062 321.234375 369.675781 325.511719 C 370.863281 326.667969 375.875 331.457031 377.539062 331.457031 C 378.8125 331.457031 373.355469 328.132812 368.046875 322.699219 Z M 368.046875 322.699219 " fill-opacity="1" fill-rule="nonzero"/><path fill="#000000" d="M 353.378906 363.234375 C 351.1875 362.152344 351.964844 363.359375 348.941406 361.828125 C 345.785156 360.226562 342.808594 361.21875 341.179688 364.410156 C 339.84375 367.027344 341.429688 369.226562 342.804688 366.660156 C 344.652344 363.207031 350.097656 362.863281 350.132812 366.195312 C 350.15625 368.121094 351.628906 369.691406 353.808594 370.121094 C 356.546875 370.65625 356.636719 370.640625 356.636719 369.578125 C 356.636719 366.617188 359.941406 366.460938 362.507812 369.300781 C 363.792969 370.722656 363.976562 370.269531 362.898438 368.335938 C 359.886719 362.953125 357.0625 365.058594 353.378906 363.234375 Z M 353.378906 363.234375 " fill-opacity="1" fill-rule="nonzero"/><g clip-path="url(#b386aeca29)"><path fill="#000000" d="M 398.207031 441.238281 C 396.332031 442.898438 395.878906 443.121094 394.777344 442.902344 C 392.539062 442.460938 391.601562 442.71875 390.238281 441.097656 C 387.949219 438.378906 377.140625 430.109375 386.671875 439.316406 C 390.511719 443.023438 390.796875 443.410156 391.058594 445.269531 C 391.503906 448.449219 391.472656 449.542969 397.667969 449.59375 C 397.351562 446.300781 396.550781 444.9375 403.902344 440.628906 C 406.539062 439.085938 411.621094 434.78125 411.234375 434.417969 C 410.726562 433.945312 400.234375 439.433594 398.207031 441.238281 Z M 398.207031 441.238281 " fill-opacity="1" fill-rule="nonzero"/></g><path fill="#000000" d="M 390.800781 244.660156 C 387.089844 240.453125 385.183594 238.035156 384.070312 236.128906 C 381.113281 231.050781 376.179688 226.351562 373.808594 226.351562 C 373.242188 226.351562 371.761719 226.175781 370.515625 225.957031 C 364.589844 224.925781 358.355469 225.324219 354.640625 223.660156 C 352.394531 222.652344 351.683594 222.640625 352.5 223.625 C 353.488281 224.816406 359.679688 226.046875 372.324219 228.59375 L 372.566406 230.390625 C 372.84375 232.488281 374.46875 234.085938 376.324219 234.089844 C 378.660156 234.09375 379.046875 235.71875 379.046875 233.699219 C 379.046875 231.371094 380.460938 232.535156 383.972656 237.757812 C 389.429688 245.871094 395.515625 250 390.800781 244.660156 Z M 390.800781 244.660156 " fill-opacity="1" fill-rule="nonzero"/><path fill="#000000" d="M 339.332031 194.921875 C 337.535156 192.785156 337.894531 191.496094 340.648438 190.222656 C 344.683594 188.355469 351.722656 183.582031 351.742188 182.695312 C 351.75 182.308594 345.402344 184.5 340.285156 186.648438 C 335.609375 188.609375 334.605469 188.796875 333.820312 187.855469 C 333.085938 186.96875 332.386719 187.101562 331.871094 188.234375 C 331.238281 189.621094 331.644531 188.957031 324.449219 187.875 C 318.488281 186.976562 316.296875 186.453125 314.828125 185.566406 C 313.488281 184.757812 312.636719 184.585938 312.636719 185.121094 C 312.636719 185.625 317.035156 187.511719 319.96875 188.265625 C 321.425781 188.640625 323.421875 189.3125 324.402344 189.757812 C 328.820312 191.769531 330.332031 190.320312 332.03125 193.015625 C 333.433594 195.238281 334.90625 195.261719 335.871094 196.421875 C 336.296875 196.9375 336.8125 197.039062 338.042969 196.839844 C 340.355469 196.46875 340.480469 196.285156 339.332031 194.921875 Z M 339.332031 194.921875 " fill-opacity="1" fill-rule="nonzero"/><path fill="#000000" d="M 375 273.9375 C 372.765625 262.703125 373.285156 263.675781 365.925781 257.15625 C 357.289062 257.40625 358.113281 256.863281 351.566406 261.511719 C 347.113281 264.675781 346.9375 265.582031 351.242188 263.1875 C 357.054688 259.960938 356.011719 260.371094 362.507812 260.367188 L 362.785156 261.707031 C 363.445312 264.902344 369.269531 267.160156 369.269531 264.21875 C 369.269531 261.226562 372.203125 265.273438 372.972656 269.328125 C 374.398438 276.84375 376.148438 279.714844 375 273.9375 Z M 375 273.9375 " fill-opacity="1" fill-rule="nonzero"/><path fill="#000000" d="M 331.097656 265.699219 C 325.578125 264.558594 319.359375 265.375 314.46875 260.941406 C 313.023438 259.628906 307.671875 255.945312 307.421875 256.105469 C 305.292969 254.304688 301.226562 247.472656 301.226562 249.003906 C 301.226562 250.78125 305.039062 254.328125 305.949219 255.117188 C 306.601562 256.253906 307.75 257.007812 308.964844 257.539062 C 313.703125 261.296875 315.167969 263.152344 314.917969 265.042969 C 314.566406 267.71875 315.628906 269.261719 318.855469 270.746094 C 322.453125 272.40625 322.957031 272.371094 321.769531 270.5625 C 319.949219 267.777344 321.460938 267.207031 330.84375 267.128906 C 333.671875 267.105469 335.917969 266.914062 336.0625 266.683594 C 336.390625 266.148438 334.925781 266.492188 331.097656 265.699219 Z M 331.097656 265.699219 " fill-opacity="1" fill-rule="nonzero"/><path fill="#000000" d="M 590.910156 262.417969 C 589.382812 259.382812 587.167969 257.71875 584.648438 257.71875 C 582.207031 257.71875 580.179688 256.964844 579.773438 255.902344 C 579.457031 255.082031 578.015625 255.097656 577.550781 255.925781 C 577.234375 256.496094 576.921875 256.425781 574.984375 255.335938 C 572.457031 253.910156 571.117188 254.195312 569.105469 256.585938 C 565.960938 260.324219 568.859375 263.449219 572.421875 260.164062 C 574.679688 258.082031 575.839844 257.996094 575.839844 259.910156 C 575.839844 262.765625 577.25 264.9375 579.410156 265.402344 C 580.472656 265.628906 581.652344 265.933594 582.03125 266.082031 C 582.621094 266.304688 582.714844 266.09375 582.660156 264.6875 C 582.476562 260.148438 587.671875 260.800781 590.59375 265.6875 C 591.574219 267.328125 592.160156 267.902344 592.84375 267.902344 C 594.570312 267.902344 593.53125 267.632812 590.910156 262.417969 Z M 590.910156 262.417969 " fill-opacity="1" fill-rule="nonzero"/><path fill="#000000" d="M 521.4375 328.195312 C 518.617188 328.195312 512.074219 333.472656 510.824219 336.75 C 508.878906 341.851562 508.714844 338.179688 507.136719 338.457031 C 506.617188 338.546875 506.171875 338.101562 505.628906 336.957031 C 504.503906 334.582031 502.382812 332.132812 500.199219 330.683594 C 496.273438 328.085938 496.699219 329.515625 501.082031 333.667969 C 504.96875 337.347656 505.46875 338.386719 505.085938 342.027344 C 504.851562 344.265625 504.886719 344.371094 506.199219 345.476562 C 507.378906 346.46875 507.789062 346.585938 509.339844 346.371094 C 511.78125 346.039062 511.796875 346.015625 511.414062 343.59375 C 510.773438 339.542969 514.078125 334.808594 520.679688 330.328125 C 522.109375 329.355469 522.519531 328.195312 521.4375 328.195312 Z M 521.4375 328.195312 " fill-opacity="1" fill-rule="nonzero"/><path fill="#000000" d="M 352.832031 163.746094 C 358.125 161.226562 361.519531 160.972656 361.953125 163.058594 C 362.335938 164.894531 364.40625 167.65625 365.601562 167.921875 C 367.710938 168.390625 369.839844 170.332031 368.875 168.53125 C 368.242188 167.347656 368.347656 165.652344 369.054688 165.652344 C 370.050781 165.652344 372.527344 173.261719 372.527344 176.328125 C 372.527344 176.777344 373.34375 176.660156 373.335938 176.550781 C 373.164062 174.402344 371.191406 165.726562 370.695312 164.929688 C 369.09375 162.371094 364.308594 158.238281 363.195312 158.453125 C 359.667969 159.140625 359.898438 155.414062 351.648438 161.996094 C 346.394531 166.191406 346.710938 166.65625 352.832031 163.746094 Z M 352.832031 163.746094 " fill-opacity="1" fill-rule="nonzero"/><path fill="#000000" d="M 470.523438 200.277344 C 467.203125 200.277344 466.09375 199.742188 463.335938 196.820312 C 460.40625 193.722656 455.875 193.691406 457.902344 196.785156 C 458.433594 197.59375 458.933594 197.835938 460.070312 197.839844 C 463.554688 197.855469 463.648438 198 462.75 201.910156 C 462.347656 203.648438 464.0625 205.6875 466.421875 206.273438 C 467.515625 206.542969 468.589844 206.949219 468.816406 207.171875 C 469.410156 207.769531 470.027344 207.230469 469.488281 206.582031 C 466.378906 202.835938 473.148438 202.019531 477.535156 205.613281 C 480.707031 208.210938 481.519531 208.054688 479.316406 205.265625 C 476.527344 201.738281 473.957031 200.28125 470.523438 200.277344 Z M 470.523438 200.277344 " fill-opacity="1" fill-rule="nonzero"/><path fill="#000000" d="M 437.917969 215.539062 C 436.6875 216.976562 435.675781 217.792969 435.121094 217.789062 C 433.355469 217.777344 431.335938 216.730469 429.792969 215.023438 C 427.195312 212.144531 420.605469 208.226562 420.605469 209.5625 C 420.605469 209.929688 425.589844 214.066406 427.359375 215.167969 C 430.152344 216.90625 430.792969 217.8125 430.792969 220.042969 C 430.792969 222.402344 431.597656 223.46875 434.351562 224.753906 C 436.335938 225.679688 437.0625 225.71875 436.738281 224.882812 C 435.949219 222.824219 439.011719 218.324219 442.605469 216.25 C 446.042969 214.273438 451.535156 210.328125 451.324219 209.988281 C 450.191406 208.152344 440.964844 211.976562 437.917969 215.539062 Z M 437.917969 215.539062 " fill-opacity="1" fill-rule="nonzero"/><path fill="#000000" d="M 500.253906 284.355469 C 501.859375 287.53125 505.917969 288.902344 505.515625 286.132812 C 505.132812 283.507812 506.972656 283.390625 508.578125 285.9375 C 509.164062 286.859375 510.242188 291.980469 510.242188 293.824219 C 510.242188 294.667969 510.40625 295.144531 510.648438 294.996094 C 512.839844 293.640625 509.488281 283.136719 506.0625 280.605469 C 504.886719 279.738281 503.675781 278.726562 503.367188 278.355469 C 502.6875 277.535156 501.445312 277.472656 501.148438 278.242188 C 501.007812 278.613281 500.027344 278.863281 498.253906 278.976562 C 494.976562 279.183594 493.691406 280.257812 489.585938 286.238281 C 485.773438 291.78125 485.988281 291.902344 490.757812 286.898438 C 495.550781 281.867188 494.855469 282.480469 499.097656 282.074219 Z M 500.253906 284.355469 " fill-opacity="1" fill-rule="nonzero"/><g clip-path="url(#d5fc6b01ac)"><path fill="#000000" d="M 144.246094 235.808594 C 143.507812 235.539062 141.652344 234.265625 140.121094 232.976562 C 134.921875 228.589844 136.070312 230.214844 131.9375 226.910156 C 131.042969 226.195312 129.574219 225.335938 128.679688 225.003906 C 125.550781 223.84375 119.296875 221.929688 117.675781 221.640625 C 115.941406 221.332031 111.59375 219.316406 111.164062 218.621094 C 110.78125 218 110.140625 218.117188 110.140625 218.804688 C 110.140625 219.964844 113.734375 221.050781 125.738281 226.148438 C 126.410156 228.800781 126.660156 231.46875 131.078125 232.726562 C 134.992188 233.835938 134.988281 234.15625 134.070312 232.753906 C 131.625 229.023438 134.316406 229.695312 140.289062 234.304688 C 145.230469 238.113281 147.140625 236.855469 144.246094 235.808594 Z M 144.246094 235.808594 " fill-opacity="1" fill-rule="nonzero"/></g><path fill="#000000" d="M 164.46875 180.414062 C 164.171875 179.234375 163.800781 179.203125 169.828125 180.863281 C 178.347656 183.210938 174.285156 180.832031 161.90625 176.230469 C 160.015625 175.527344 156.898438 174.171875 154.980469 173.222656 C 149.511719 170.507812 146.257812 169.519531 144.71875 167.980469 C 141.832031 165.09375 142.589844 168.878906 147.132812 170.519531 C 151.121094 171.960938 157.097656 175.8125 156.84375 176.777344 C 156.207031 179.214844 158.386719 180.980469 162.390625 181.269531 C 164.714844 181.441406 164.726562 181.4375 164.46875 180.414062 Z M 164.46875 180.414062 " fill-opacity="1" fill-rule="nonzero"/><path fill="#000000" d="M 242.820312 198.128906 C 248.171875 195.464844 251.976562 194.121094 252.210938 194.808594 C 253.046875 197.289062 254.472656 198.210938 258.445312 198.84375 C 260.6875 199.199219 260.882812 199.488281 262.109375 204.191406 C 265.125 215.777344 268.242188 217.828125 262.960938 201.53125 C 260.917969 195.234375 254.679688 188.230469 253.273438 190.65625 C 253.066406 191.015625 251.960938 191.28125 250.238281 191.386719 C 247.015625 191.585938 244.972656 192.808594 240.15625 197.414062 C 236.230469 201.167969 236.542969 201.253906 242.820312 198.128906 Z M 242.820312 198.128906 " fill-opacity="1" fill-rule="nonzero"/><path fill="#000000" d="M 177.164062 261.574219 C 179.738281 262.753906 180.453125 262.410156 179.027344 260.683594 C 175.46875 256.363281 182.609375 256.101562 190.496094 248.648438 L 193.460938 245.847656 C 185.496094 249.988281 181.191406 251.53125 178.621094 253.417969 C 174.28125 256.601562 170.960938 254.054688 164.984375 242.953125 C 160.527344 234.675781 161.832031 242.90625 167.378906 249.761719 C 170.292969 253.359375 170.847656 254.332031 170.847656 255.820312 C 170.847656 258.742188 172.5 260.964844 174.695312 260.996094 C 175.378906 261.007812 176.492188 261.265625 177.164062 261.574219 Z M 177.164062 261.574219 " fill-opacity="1" fill-rule="nonzero"/><path fill="#000000" d="M 254.335938 252.292969 C 253.300781 253.261719 252.167969 254.054688 251.816406 254.054688 C 250.792969 254.054688 249.890625 253.597656 249.890625 253.082031 C 249.890625 251.996094 244.503906 241.601562 247.023438 248.917969 C 248.777344 254.019531 246.179688 256.355469 248.425781 258.59375 C 250.039062 260.199219 254.183594 260.28125 253.789062 258.699219 C 253.152344 256.167969 256.328125 254.175781 264.042969 252.265625 C 270.542969 250.65625 271.082031 249.84375 265.78125 249.644531 C 259.933594 249.425781 256.570312 250.203125 254.335938 252.292969 Z M 254.335938 252.292969 " fill-opacity="1" fill-rule="nonzero"/><path fill="#000000" d="M 264.472656 419.453125 C 261.042969 418.292969 259.125 417.003906 258.359375 417.007812 C 257.6875 417.011719 252.613281 414.441406 248.667969 412.570312 C 244.367188 410.527344 240.054688 403.941406 240.8125 406.832031 C 241.101562 407.941406 244.78125 411.171875 247.722656 412.902344 C 255.324219 417.378906 256 417.894531 256 419.226562 C 256 420.589844 256.804688 421.964844 258.4375 423.40625 C 260.804688 425.492188 259.472656 423.179688 261.566406 423.707031 C 262.515625 423.945312 262.550781 423.886719 262.292969 422.519531 C 261.976562 420.835938 262.5 420.6875 265.460938 421.640625 C 269.476562 422.929688 274.640625 423.945312 275.5 423.613281 C 276.304688 423.304688 269.203125 421.054688 264.472656 419.453125 Z M 264.472656 419.453125 " fill-opacity="1" fill-rule="nonzero"/><path fill="#000000" d="M 178.398438 322.578125 C 177.753906 323.316406 176.597656 324.628906 175.828125 325.496094 C 173.992188 327.5625 174.78125 328.292969 176.972656 326.558594 C 181.472656 322.992188 187.703125 320.945312 188.40625 322.796875 C 189.472656 325.597656 191.066406 325.792969 196.542969 326.582031 C 195.269531 324.636719 195.113281 324.574219 195.863281 324.285156 C 196.914062 323.882812 198.242188 325.050781 199.777344 327.734375 C 200.988281 329.855469 201.8125 330.785156 201.8125 330.039062 C 201.8125 329.476562 199.617188 325.328125 198.925781 324.585938 C 192.519531 317.710938 183.421875 316.820312 178.398438 322.578125 Z M 178.398438 322.578125 " fill-opacity="1" fill-rule="nonzero"/><path fill="#000000" d="M 306.882812 235.835938 C 305.160156 234.113281 306.242188 232.292969 308.359375 233.351562 C 310.972656 234.65625 312.878906 234.996094 316.511719 236.867188 C 323.546875 240.496094 315.367188 235.503906 312.082031 233.378906 C 309.109375 231.457031 304.207031 229.039062 302.34375 228.578125 C 301.726562 228.421875 301.117188 228.136719 300.996094 227.9375 C 300.617188 227.320312 299.558594 227.535156 298.847656 228.367188 C 298.476562 228.804688 296.980469 229.550781 295.523438 230.023438 C 292.652344 230.957031 284.558594 234.410156 283.933594 234.96875 C 283.214844 235.609375 293.945312 234.203125 295.066406 233.511719 C 296.464844 232.648438 298.933594 232.992188 300.167969 234.222656 C 302.640625 236.683594 309.054688 238.007812 306.882812 235.835938 Z M 306.882812 235.835938 " fill-opacity="1" fill-rule="nonzero"/><path fill="#000000" d="M 324.828125 332.316406 C 319.277344 333.976562 317.09375 335.121094 315.234375 337.339844 C 312.78125 340.277344 310.738281 340.070312 309.5 336.765625 C 308.550781 334.230469 304.894531 328.316406 304.894531 326.871094 C 304.894531 325.816406 302.015625 324.371094 307.609375 334.859375 C 308.582031 336.683594 309.074219 341.265625 308.371094 341.96875 C 307.300781 343.035156 310.398438 345.234375 313.246094 345.429688 C 314.367188 345.503906 315.441406 345.601562 315.636719 345.640625 C 315.832031 345.679688 315.691406 345.261719 315.332031 344.710938 C 313.71875 342.253906 318.621094 337.207031 326.425781 333.292969 C 331.410156 330.792969 330.925781 330.496094 324.828125 332.316406 Z M 324.828125 332.316406 " fill-opacity="1" fill-rule="nonzero"/><path fill="#000000" d="M 243.707031 279.503906 C 248.738281 281.867188 248.683594 281.105469 243.574219 277.636719 C 239.035156 274.554688 237.679688 274.164062 234.429688 274.996094 C 231.75 275.683594 231.796875 275.691406 228.90625 274.132812 C 227.410156 273.328125 226.71875 273.171875 224.425781 271.765625 C 222.628906 270.667969 220.734375 270.492188 219.636719 271.324219 C 217.796875 272.722656 219.222656 273.847656 223.15625 274.101562 C 226.777344 274.332031 227.050781 274.5625 226.761719 277.113281 C 226.40625 280.269531 228.105469 282.160156 231.304688 282.167969 C 232.675781 282.171875 234.070312 282.351562 234.40625 282.570312 C 235.769531 283.449219 236.050781 282.953125 235.035156 281.457031 C 232.3125 277.453125 237.058594 276.386719 243.707031 279.503906 Z M 243.707031 279.503906 " fill-opacity="1" fill-rule="nonzero"/><path fill="#000000" d="M 204.503906 199.226562 C 202.726562 193.859375 193.78125 184.414062 191.519531 185.519531 C 191.019531 185.765625 189.691406 186.042969 188.570312 186.140625 C 186.109375 186.351562 180.683594 188.589844 178.386719 189.484375 C 179.628906 189.570312 181.703125 189.820312 183.742188 189.308594 C 187.613281 188.332031 191.117188 188.714844 191.878906 190.195312 C 192.734375 191.871094 192.871094 191.957031 196.3125 192.988281 C 202.9375 194.980469 198.542969 195.660156 205.832031 203.640625 C 206.777344 204.675781 207.515625 205.070312 207.515625 204.539062 C 207.515625 204.414062 206.898438 203.34375 206.140625 202.164062 C 205.382812 200.980469 204.648438 199.660156 204.503906 199.226562 Z M 204.503906 199.226562 " fill-opacity="1" fill-rule="nonzero"/></svg>