<svg xmlns="http://www.w3.org/2000/svg" xmlns:xlink="http://www.w3.org/1999/xlink" width="940" zoomAndPan="magnify" viewBox="0 0 705 591.000005" height="788" preserveAspectRatio="xMidYMid meet" version="1.0"><defs><clipPath id="d58e6aaeb0"><path d="M 60.433594 203.855469 L 656.273438 203.855469 L 656.273438 399.867188 L 60.433594 399.867188 Z M 60.433594 203.855469 " clip-rule="nonzero"/></clipPath></defs><path fill="#231f20" d="M 346.355469 213.769531 C 342.367188 212.351562 336.398438 212.925781 332.683594 211.226562 C 336.808594 210.132812 344.324219 210.703125 346.355469 213.769531 " fill-opacity="1" fill-rule="evenodd"/><path fill="#231f20" d="M 335.863281 219.804688 C 320.992188 217.402344 305.886719 220.167969 292.9375 223.617188 C 299.601562 218.636719 325.902344 214.894531 335.863281 219.804688 " fill-opacity="1" fill-rule="evenodd"/><path fill="#231f20" d="M 356.851562 236 C 356.132812 236.4375 353.472656 234.28125 354.628906 234.414062 C 345.402344 230.699219 331.621094 226.289062 318.375 228.375 C 322.113281 224.746094 331.652344 226.941406 334.910156 227.425781 C 343.808594 228.746094 352.960938 231.113281 356.851562 236 " fill-opacity="1" fill-rule="evenodd"/><path fill="#231f20" d="M 374.019531 237.90625 C 377.75 239.71875 383.296875 241.296875 383.242188 245.84375 C 380.5625 242.804688 376.554688 241.085938 374.019531 237.90625 " fill-opacity="1" fill-rule="evenodd"/><path fill="#231f20" d="M 251.28125 249.652344 C 239.105469 248.257812 224.597656 250.433594 218.210938 256.324219 C 217.75 254.628906 219.828125 252.9375 221.074219 252.195312 C 227.308594 248.5 239.257812 247.058594 247.148438 248.066406 C 248.5625 248.25 250.476562 248.335938 251.28125 249.652344 " fill-opacity="1" fill-rule="evenodd"/><path fill="#231f20" d="M 453.199219 275.695312 C 452.003906 276.199219 451.582031 274.648438 450.972656 274.109375 C 445.132812 268.890625 439.574219 262.464844 431.574219 258.867188 C 422.679688 254.859375 411.148438 252.460938 399.460938 251.558594 C 391.316406 250.933594 385.277344 253.421875 377.835938 253.148438 C 381.40625 250.5 387.351562 250.414062 391.824219 249.972656 C 405.230469 248.648438 421.398438 252.765625 431.894531 257.277344 C 441.628906 260.789062 447.058594 268.597656 453.199219 275.695312 " fill-opacity="1" fill-rule="evenodd"/><path fill="#231f20" d="M 302.160156 255.691406 C 299.019531 256.539062 289.589844 255.855469 285.304688 258.230469 C 287.355469 253.785156 298.621094 254.011719 302.160156 255.691406 " fill-opacity="1" fill-rule="evenodd"/><path fill="#231f20" d="M 440.796875 269.34375 C 427.324219 259.960938 404.308594 254.925781 381.972656 256.960938 C 382.734375 255.75 384.972656 255.488281 386.105469 255.371094 C 406.550781 253.273438 429.726562 258.511719 440.796875 269.34375 " fill-opacity="1" fill-rule="evenodd"/><path fill="#231f20" d="M 231.25 260.136719 C 230.351562 261.222656 230.632812 258.980469 230.929688 258.546875 C 233.65625 257.167969 241.0625 255.191406 243.011719 257.910156 C 239.179688 257.398438 233.054688 259.199219 231.25 260.136719 " fill-opacity="1" fill-rule="evenodd"/><path fill="#231f20" d="M 302.796875 259.183594 C 296.875 258.601562 292.421875 261.050781 289.441406 262.355469 C 288.589844 259.898438 293.148438 258.398438 296.117188 257.910156 C 298.402344 257.539062 302.074219 257.214844 302.796875 259.183594 " fill-opacity="1" fill-rule="evenodd"/><path fill="#231f20" d="M 426.167969 267.441406 C 418.925781 263.984375 410.164062 262.039062 401.371094 260.136719 C 411.601562 259.363281 420.316406 262.789062 426.167969 267.441406 " fill-opacity="1" fill-rule="evenodd"/><path fill="#231f20" d="M 303.429688 261.722656 C 302.804688 263.957031 298.601562 262.613281 296.75 263.628906 C 295.324219 263.789062 295.371094 265.425781 293.570312 265.21875 C 292.585938 261.191406 299.636719 260.980469 303.429688 261.722656 " fill-opacity="1" fill-rule="evenodd"/><path fill="#231f20" d="M 424.265625 270.933594 C 419.953125 268.5625 411.679688 266.4375 405.820312 265.535156 C 410.523438 263.601562 421.578125 266.636719 424.265625 270.933594 " fill-opacity="1" fill-rule="evenodd"/><path fill="#231f20" d="M 399.140625 298.878906 C 396.40625 298.871094 396.890625 294.957031 396.28125 293.480469 C 394.152344 288.339844 387.308594 279.457031 382.285156 276.332031 C 376.167969 272.519531 364.933594 268.5625 354.628906 269.34375 C 335.386719 270.800781 323.898438 282.3125 315.195312 295.066406 C 320.203125 297.316406 326.644531 299.199219 330.457031 303.011719 C 332.328125 304.878906 334.871094 308.148438 333.953125 311.265625 C 331.511719 311.164062 331.550781 308.582031 330.457031 307.136719 C 323.871094 300.648438 311.089844 294.082031 298.023438 296.972656 C 288.890625 298.996094 281.367188 303.777344 275.765625 309.675781 C 273.984375 311.558594 272.355469 313.980469 269.722656 314.441406 C 268.945312 311.765625 272.675781 308.222656 274.8125 306.183594 C 282.582031 298.777344 296.171875 292.027344 311.378906 294.753906 C 317.414062 286.808594 323.398438 279.269531 332.683594 273.476562 C 343.535156 266.699219 359.257812 265.246094 372.746094 269.34375 C 379.527344 271.40625 384.785156 274.175781 388.964844 278.558594 C 393.730469 283.539062 400.113281 291.109375 399.140625 298.878906 " fill-opacity="1" fill-rule="evenodd"/><path fill="#231f20" d="M 215.351562 269.664062 C 197.382812 266.601562 182.695312 271.410156 172.742188 280.457031 C 170.46875 282.53125 167.4375 284.734375 166.0625 286.496094 C 164.796875 288.113281 164.953125 290.746094 162.246094 290.941406 C 162.757812 289.277344 163.824219 286.707031 165.109375 285.222656 C 173.921875 275.046875 191.667969 262.601562 212.171875 268.394531 C 213.066406 268.648438 213.613281 268.035156 215.351562 269.664062 " fill-opacity="1" fill-rule="evenodd"/><path fill="#231f20" d="M 420.445312 273.15625 C 416.917969 272.550781 413.847656 271.488281 410.589844 270.613281 C 410.351562 269.425781 411.804688 269.921875 411.859375 269.027344 C 414.210938 270.917969 419.539062 269.828125 420.445312 273.15625 " fill-opacity="1" fill-rule="evenodd"/><path fill="#231f20" d="M 381.015625 279.828125 C 372.542969 275.753906 363.410156 273.457031 352.082031 274.425781 C 338.867188 275.5625 328.050781 284.335938 320.917969 292.210938 C 319.90625 293.324219 319.417969 295.679688 317.417969 295.386719 C 317.289062 291.976562 320.996094 290.09375 323.464844 287.765625 C 325.8125 285.550781 327.898438 282.789062 330.457031 280.777344 C 343 270.925781 368.445312 268.214844 381.015625 279.828125 " fill-opacity="1" fill-rule="evenodd"/><path fill="#231f20" d="M 241.109375 279.828125 C 241.761719 280.394531 238.734375 279.214844 237.289062 278.871094 C 228.109375 276.699219 215.082031 278.839844 206.765625 281.097656 C 211.828125 275.9375 233.492188 274.769531 240.46875 279.191406 C 240.714844 279.34375 241.660156 278.9375 241.109375 279.828125 " fill-opacity="1" fill-rule="evenodd"/><path fill="#231f20" d="M 450.652344 277.921875 C 453.207031 281.25 457.785156 285.753906 456.695312 290.621094 C 454.671875 286.402344 452.222656 282.597656 450.652344 277.921875 " fill-opacity="1" fill-rule="evenodd"/><path fill="#231f20" d="M 447.15625 279.191406 C 447.203125 278.820312 447.738281 278.921875 448.113281 278.871094 C 450.203125 283.148438 453.804688 287.207031 453.515625 292.847656 C 450.992188 288.695312 449.769531 283.246094 447.15625 279.191406 " fill-opacity="1" fill-rule="evenodd"/><path fill="#231f20" d="M 220.753906 287.128906 C 220.695312 286.769531 220.4375 286.953125 220.4375 287.128906 C 220.503906 285.707031 227.460938 284.445312 228.703125 286.179688 C 226.710938 287.363281 223.4375 287.269531 220.4375 287.449219 C 220.378906 287.179688 220.558594 287.148438 220.753906 287.128906 " fill-opacity="1" fill-rule="evenodd"/><path fill="#231f20" d="M 358.121094 291.574219 C 357.214844 292.105469 352.519531 291.070312 350.171875 290.941406 C 351.496094 288.914062 357.738281 289.628906 358.121094 291.574219 " fill-opacity="1" fill-rule="evenodd"/><path fill="#231f20" d="M 563.222656 313.808594 C 553.558594 303.792969 539.707031 294.285156 521.246094 294.753906 C 511.902344 294.988281 505.046875 298.625 496.445312 300.148438 C 500.710938 297.246094 506.265625 295.207031 511.710938 294.117188 C 532.367188 289.964844 555.085938 298.515625 563.222656 313.808594 " fill-opacity="1" fill-rule="evenodd"/><path fill="#231f20" d="M 174.648438 295.386719 C 174.355469 294.703125 175.726562 293.421875 176.871094 293.160156 C 175.636719 296.164062 173.460938 298.222656 170.832031 299.832031 C 169.921875 298.457031 172.136719 297.960938 172.421875 297.613281 C 173.015625 296.882812 173.058594 294.777344 174.648438 295.386719 " fill-opacity="1" fill-rule="evenodd"/><path fill="#231f20" d="M 131.085938 301.738281 C 134.582031 295.789062 144.273438 293.027344 153.027344 294.117188 C 158.304688 294.773438 164.363281 296.804688 166.382812 300.148438 C 160.421875 297.855469 155.382812 295.316406 146.667969 296.023438 C 141.5625 296.4375 137.074219 298.597656 133.628906 300.46875 C 132.6875 300.980469 133.910156 300.433594 133.628906 300.785156 C 132.980469 301.609375 131.996094 301.46875 131.085938 301.738281 " fill-opacity="1" fill-rule="evenodd"/><path fill="#231f20" d="M 512.980469 300.46875 C 510.863281 302.472656 506.75 301.535156 503.753906 302.375 C 501.578125 302.988281 500.304688 304.609375 498.667969 304.28125 C 499.671875 300.402344 507.539062 300.050781 512.980469 300.46875 " fill-opacity="1" fill-rule="evenodd"/><path fill="#231f20" d="M 543.503906 307.457031 C 539.292969 306.914062 533.921875 304.714844 528.238281 304.28125 C 525.136719 304.042969 522.15625 304.550781 519.339844 303.960938 C 520.898438 302.570312 524.0625 302.679688 526.332031 302.691406 C 529.949219 302.714844 533.957031 303.621094 537.144531 304.28125 C 537.941406 304.96875 542.488281 305.132812 543.503906 307.457031 " fill-opacity="1" fill-rule="evenodd"/><path fill="#231f20" d="M 513.613281 304.59375 C 509.265625 306.136719 503.457031 305.9375 498.667969 305.867188 C 500.984375 303.523438 508.796875 304.210938 513.613281 304.59375 " fill-opacity="1" fill-rule="evenodd"/><path fill="#231f20" d="M 285.941406 309.675781 C 285.601562 308.492188 287.132812 309.175781 286.894531 308.089844 C 291.558594 306.226562 298.042969 304.765625 305.019531 305.230469 C 309.445312 305.527344 314.328125 306.3125 317.105469 308.40625 C 308.148438 305.765625 291.816406 306.769531 285.941406 309.675781 " fill-opacity="1" fill-rule="evenodd"/><path fill="#231f20" d="M 151.117188 306.5 C 150.894531 307.65625 148.800781 306.9375 147.617188 307.136719 C 148.699219 307.855469 151.132812 307.226562 151.117188 309.042969 C 148.460938 308.5625 143.527344 310.257812 141.578125 309.363281 C 141.636719 307.621094 143.960938 308.140625 145.394531 307.769531 C 143.597656 306.835938 141.742188 308.566406 139.351562 308.089844 C 142.429688 305.550781 146.503906 305.8125 151.117188 306.5 " fill-opacity="1" fill-rule="evenodd"/><path fill="#231f20" d="M 307.878906 309.996094 C 305.207031 309.449219 299.503906 309.074219 295.480469 309.675781 C 297.023438 306.789062 306.679688 306.894531 307.878906 309.996094 " fill-opacity="1" fill-rule="evenodd"/><path fill="#231f20" d="M 569.894531 311.265625 C 570.472656 308.234375 574.914062 310.09375 576.570312 310.3125 C 585.546875 311.5 594.609375 315.101562 599.46875 320.792969 C 600.128906 323.089844 601.980469 324.214844 602.648438 326.511719 C 595.929688 317.464844 582.796875 311.128906 569.894531 311.265625 " fill-opacity="1" fill-rule="evenodd"/><path fill="#231f20" d="M 305.339844 312.851562 C 304.21875 314.667969 299.308594 312.738281 297.070312 314.121094 C 296.960938 310.765625 303.71875 311.644531 305.339844 312.851562 " fill-opacity="1" fill-rule="evenodd"/><path fill="#231f20" d="M 209.945312 316.347656 C 208.832031 316.1875 208.683594 315.0625 207.398438 315.078125 C 208 313.679688 209.746094 315.371094 209.945312 316.347656 " fill-opacity="1" fill-rule="evenodd"/><path fill="#231f20" d="M 529.511719 320.160156 C 522.039062 317.246094 508.5 314.359375 498.984375 317.300781 C 499.546875 314.269531 505.929688 314.097656 511.070312 314.441406 C 518.132812 314.914062 526.371094 316.910156 529.511719 320.160156 " fill-opacity="1" fill-rule="evenodd"/><path fill="#231f20" d="M 333.640625 315.078125 C 335.71875 314.996094 338.886719 319.296875 337.453125 321.746094 C 335.550781 320.15625 335.300781 316.910156 333.640625 315.078125 " fill-opacity="1" fill-rule="evenodd"/><path fill="#231f20" d="M 115.503906 316.984375 C 109.972656 316.554688 104.070312 317.402344 100.875 318.253906 C 102.242188 314.464844 112.652344 314.429688 115.503906 316.984375 " fill-opacity="1" fill-rule="evenodd"/><path fill="#231f20" d="M 564.171875 315.394531 C 564.542969 315.339844 564.742188 315.464844 564.8125 315.714844 C 567.078125 318.964844 570.613281 322.601562 570.53125 327.144531 C 568.253906 323.589844 564.585938 319.757812 564.171875 315.394531 " fill-opacity="1" fill-rule="evenodd"/><path fill="#231f20" d="M 599.148438 325.242188 C 597.5 325.195312 597.226562 323.773438 596.605469 322.699219 C 593.367188 319.796875 588.492188 318.523438 584.839844 316.027344 C 590.75 316.699219 597.324219 319.433594 599.148438 325.242188 " fill-opacity="1" fill-rule="evenodd"/><path fill="#231f20" d="M 116.773438 320.792969 C 115.035156 321.886719 112.472656 320.78125 110.097656 321.109375 C 107.386719 321.488281 105.808594 323.097656 104.054688 323.972656 C 103.871094 318.6875 113.390625 318.554688 116.773438 320.792969 " fill-opacity="1" fill-rule="evenodd"/><path fill="#231f20" d="M 525.378906 322.378906 C 524.425781 323.105469 521.960938 321.753906 519.972656 321.429688 C 517.84375 321.082031 515.507812 321.597656 514.25 320.476562 C 516.871094 318.390625 525.058594 320.09375 525.378906 322.378906 " fill-opacity="1" fill-rule="evenodd"/><path fill="#231f20" d="M 586.75 320.792969 C 591.523438 320.257812 594.992188 323.78125 596.925781 327.144531 C 593.472656 326.339844 590.710938 322.144531 586.75 320.792969 " fill-opacity="1" fill-rule="evenodd"/><path fill="#231f20" d="M 102.152344 322.066406 C 100.851562 324.046875 98.003906 324.488281 95.792969 325.558594 C 95.113281 322.960938 100.171875 322.03125 102.152344 322.066406 " fill-opacity="1" fill-rule="evenodd"/><path fill="#231f20" d="M 517.75 323.015625 C 519.449219 323.503906 525.148438 322.765625 524.425781 325.558594 C 522.234375 324.992188 519.378906 325.09375 517.113281 324.605469 C 517.0625 323.8125 517.609375 323.625 517.75 323.015625 " fill-opacity="1" fill-rule="evenodd"/><path fill="#231f20" d="M 436.984375 324.285156 C 434.332031 325.996094 430.027344 327.683594 428.078125 329.050781 C 428.871094 325.449219 432.8125 323.472656 436.984375 324.285156 " fill-opacity="1" fill-rule="evenodd"/><path fill="#231f20" d="M 72.257812 330.636719 C 74.976562 333.117188 78.195312 335.082031 82.117188 336.355469 C 78.125 338.773438 72.9375 334.660156 72.257812 330.636719 " fill-opacity="1" fill-rule="evenodd"/><path fill="#231f20" d="M 619.816406 337.625 C 615.917969 336.757812 613.546875 334.359375 609.324219 333.8125 C 608.945312 333.398438 609.199219 333.316406 609.324219 332.863281 C 613.257812 332.765625 617.789062 334.769531 619.816406 337.625 " fill-opacity="1" fill-rule="evenodd"/><path fill="#231f20" d="M 618.863281 341.121094 C 616.316406 339.324219 613.121094 338.171875 609.964844 336.988281 C 613.441406 335.257812 618.867188 338.296875 618.863281 341.121094 " fill-opacity="1" fill-rule="evenodd"/><path fill="#231f20" d="M 89.429688 337.945312 C 89.941406 337.855469 89.976562 338.242188 90.386719 338.261719 C 94.253906 340.722656 96.933594 345.089844 101.515625 347.152344 C 105.386719 348.894531 110.066406 348.492188 114.550781 350.328125 C 113.339844 352.320312 110.289062 350.96875 108.507812 350.644531 C 99.351562 348.988281 93.5 344.226562 89.429688 337.945312 " fill-opacity="1" fill-rule="evenodd"/><path fill="#231f20" d="M 517.75 338.582031 C 518.171875 338.582031 518.597656 338.582031 519.019531 338.582031 C 519.105469 340.53125 520.800781 343.085938 519.652344 344.296875 C 518.234375 343.105469 517.085938 339.964844 517.75 338.582031 " fill-opacity="1" fill-rule="evenodd"/><path fill="#231f20" d="M 408.363281 339.53125 C 409.269531 341.429688 404.972656 343.523438 402.320312 343.976562 C 402.882812 341.042969 406.71875 341.378906 408.363281 339.53125 " fill-opacity="1" fill-rule="evenodd"/><path fill="#231f20" d="M 619.183594 343.65625 C 616.851562 344.425781 614.085938 340.625 610.28125 340.800781 C 610.28125 340.480469 610.28125 340.167969 610.28125 339.851562 C 614.042969 339.078125 617.390625 341.40625 619.183594 343.65625 " fill-opacity="1" fill-rule="evenodd"/><path fill="#231f20" d="M 414.089844 339.851562 C 411.476562 342.984375 406.242188 346.796875 402.003906 346.203125 C 405.972656 344.027344 409.457031 341.367188 414.089844 339.851562 " fill-opacity="1" fill-rule="evenodd"/><path fill="#231f20" d="M 89.746094 340.167969 C 91.730469 343.691406 95.636719 345.296875 98.015625 348.421875 C 94.125 347.074219 88.578125 344.519531 89.746094 340.167969 " fill-opacity="1" fill-rule="evenodd"/><path fill="#231f20" d="M 138.078125 340.800781 C 141.382812 342.582031 146.503906 342.554688 149.527344 344.613281 C 145.292969 345.179688 140.144531 344.15625 138.078125 340.800781 " fill-opacity="1" fill-rule="evenodd"/><path fill="#231f20" d="M 537.777344 341.75 C 540.410156 343.824219 546.035156 343.574219 548.589844 343.976562 C 546.78125 347.226562 537.195312 344.90625 537.777344 341.75 " fill-opacity="1" fill-rule="evenodd"/><path fill="#231f20" d="M 427.757812 342.070312 C 425.871094 345.738281 421.773438 347.839844 418.21875 350.007812 C 414.761719 352.125 410.710938 355.117188 406.140625 354.777344 C 413.8125 351.007812 420.777344 346.53125 427.757812 342.070312 " fill-opacity="1" fill-rule="evenodd"/><path fill="#231f20" d="M 418.21875 342.390625 C 416.085938 345.640625 412.199219 348.144531 408.046875 350.328125 C 405.972656 351.417969 402.480469 353.285156 401.371094 350.644531 C 409.132812 350.042969 412.132812 344.671875 418.21875 342.390625 " fill-opacity="1" fill-rule="evenodd"/><path fill="#231f20" d="M 565.445312 343.65625 C 570.480469 355.359375 588.257812 356.261719 603.605469 353.503906 C 602.90625 354.84375 600.972656 355.429688 599.46875 355.726562 C 586.097656 358.351562 567.382812 355.851562 565.445312 343.65625 " fill-opacity="1" fill-rule="evenodd"/><path fill="#231f20" d="M 120.910156 347.152344 C 128.09375 355.414062 138.128906 365.429688 152.386719 366.523438 C 157.296875 366.902344 162.832031 365.664062 166.382812 366.84375 C 156.050781 370.554688 145.789062 367.875 138.398438 363.984375 C 130.570312 359.863281 123.761719 355.925781 120.910156 347.152344 " fill-opacity="1" fill-rule="evenodd"/><path fill="#231f20" d="M 593.109375 349.058594 C 592.320312 351.890625 583.839844 351.125 583.25 348.738281 C 585.324219 348.835938 590.710938 349.207031 593.109375 349.058594 " fill-opacity="1" fill-rule="evenodd"/><path fill="#231f20" d="M 652.253906 348.738281 C 652.769531 348.652344 652.796875 349.039062 653.207031 349.058594 C 653.476562 353.066406 649.761719 356.289062 644.9375 356.996094 C 642.023438 357.425781 637.433594 357.679688 635.71875 355.726562 C 643.328125 355.5 650.582031 354.902344 652.253906 348.738281 " fill-opacity="1" fill-rule="evenodd"/><path fill="#231f20" d="M 565.125 349.691406 C 571.527344 358.828125 586.609375 363.664062 599.148438 357.316406 C 598.191406 361.058594 591.148438 362.074219 587.066406 362.398438 C 577.238281 363.164062 568.816406 356.851562 564.8125 350.964844 C 564.675781 350.304688 565.023438 350.125 565.125 349.691406 " fill-opacity="1" fill-rule="evenodd"/><path fill="#231f20" d="M 582.613281 350.644531 C 586.363281 352.34375 592.367188 352.066406 596.925781 351.277344 C 594.890625 354.359375 583.777344 354.808594 582.613281 350.644531 " fill-opacity="1" fill-rule="evenodd"/><path fill="#231f20" d="M 622.363281 351.914062 C 624.269531 354.878906 615.585938 356.339844 615.371094 353.183594 C 617.746094 353.773438 620.523438 352.835938 622.363281 351.914062 " fill-opacity="1" fill-rule="evenodd"/><path fill="#231f20" d="M 509.480469 352.234375 C 509.691406 352.234375 509.90625 352.234375 510.113281 352.234375 C 507.757812 355.804688 502.25 358.328125 496.757812 359.542969 C 491.59375 360.679688 485.066406 361.230469 480.226562 359.542969 C 482.84375 358.09375 486.292969 359.144531 489.445312 358.902344 C 496.972656 358.332031 504.417969 355.613281 509.164062 352.234375 C 509.265625 352.234375 509.375 352.234375 509.480469 352.234375 " fill-opacity="1" fill-rule="evenodd"/><path fill="#231f20" d="M 230.929688 352.871094 C 231.25 352.871094 231.570312 352.871094 231.882812 352.871094 C 233.414062 357.167969 236.273438 360.128906 237.921875 364.300781 C 233.523438 362.5625 232.261719 357.679688 230.929688 352.871094 " fill-opacity="1" fill-rule="evenodd"/><path fill="#231f20" d="M 627.769531 353.183594 C 626.570312 357.050781 619.210938 359.398438 615.371094 356.679688 C 616.273438 355.699219 618.261719 356.519531 619.5 356.359375 C 622.59375 355.972656 625.042969 353.691406 627.769531 353.183594 " fill-opacity="1" fill-rule="evenodd"/><path fill="#231f20" d="M 228.390625 353.820312 C 230.519531 354.660156 230.34375 357.800781 231.570312 359.542969 C 229.820312 359.488281 227.417969 356.6875 228.390625 353.820312 " fill-opacity="1" fill-rule="evenodd"/><path fill="#231f20" d="M 160.023438 359.855469 C 153.96875 362.929688 143.855469 359.167969 139.988281 355.089844 C 139.9375 354.722656 140.058594 354.527344 140.308594 354.460938 C 144.859375 357.011719 151.800781 359.914062 160.023438 359.855469 " fill-opacity="1" fill-rule="evenodd"/><path fill="#231f20" d="M 361.300781 356.359375 C 361.449219 359.609375 352.390625 358.71875 352.398438 356.996094 C 355.273438 355.484375 359.421875 357.828125 361.300781 356.359375 " fill-opacity="1" fill-rule="evenodd"/><path fill="#231f20" d="M 452.882812 356.359375 C 455.457031 358.339844 457.894531 360.457031 458.921875 363.984375 C 455.820312 362.6875 453.054688 359.535156 452.882812 356.359375 " fill-opacity="1" fill-rule="evenodd"/><path fill="#231f20" d="M 509.800781 356.679688 C 505.160156 362.433594 492.371094 364.554688 485.632812 362.710938 C 493.691406 361.351562 503.871094 361 509.164062 356.359375 C 509.53125 356.3125 509.726562 356.433594 509.800781 356.679688 " fill-opacity="1" fill-rule="evenodd"/><path fill="#231f20" d="M 630.3125 356.996094 C 631.042969 356.902344 630.664062 357.914062 631.269531 357.949219 C 628.539062 364.539062 613 367.503906 608.054688 360.808594 C 615.503906 364.273438 626.355469 362.398438 630.3125 356.996094 " fill-opacity="1" fill-rule="evenodd"/><path fill="#231f20" d="M 460.832031 357.636719 C 466.3125 362.746094 475.269531 365.355469 483.085938 367.160156 C 472.765625 366.882812 464.175781 364.878906 460.832031 357.636719 " fill-opacity="1" fill-rule="evenodd"/><path fill="#231f20" d="M 411.859375 360.171875 C 410.714844 363.472656 408.507812 365.714844 405.183594 366.84375 C 405.839844 363.472656 409.5625 363.175781 410.589844 360.171875 C 411.011719 360.171875 411.4375 360.171875 411.859375 360.171875 " fill-opacity="1" fill-rule="evenodd"/><path fill="#231f20" d="M 508.84375 360.808594 C 506.453125 363.910156 499.308594 366.375 493.898438 366.523438 C 492.730469 366.554688 490.8125 366.976562 490.085938 365.574219 C 497.457031 365.101562 503.066406 362.871094 508.84375 360.808594 " fill-opacity="1" fill-rule="evenodd"/><path fill="#231f20" d="M 346.671875 363.03125 C 356.890625 367.292969 374.972656 365.433594 382.285156 361.761719 C 379.242188 365.320312 369.46875 367.257812 360.347656 366.84375 C 355.160156 366.609375 348.980469 366.398438 346.671875 363.03125 " fill-opacity="1" fill-rule="evenodd"/><path fill="#231f20" d="M 421.71875 366.207031 C 415.808594 369.84375 410.34375 376.230469 402.640625 380.179688 C 395.449219 383.867188 386.613281 387.878906 377.515625 388.753906 C 364.488281 390.019531 350.789062 390.753906 340.3125 387.484375 C 333.863281 385.472656 327.929688 381.914062 322.824219 378.277344 C 321.332031 377.210938 319.011719 376.332031 319.011719 374.144531 C 328.339844 379.308594 337.035156 386.046875 350.808594 387.484375 C 366.195312 389.09375 380.457031 386.78125 392.78125 382.402344 C 405.085938 378.03125 413.425781 369.628906 422.988281 363.984375 C 420.382812 367.59375 424.578125 362.394531 425.847656 361.449219 C 426.378906 364.125 423.960938 366.578125 422.355469 368.429688 C 420.722656 370.3125 418.71875 372.183594 416.949219 373.832031 C 413.367188 377.15625 409.03125 380.96875 404.867188 383.675781 C 375.027344 403.054688 319.46875 393.25 304.066406 366.84375 C 318.773438 382.339844 341.007812 393.230469 373.066406 392.25 C 379.726562 392.042969 390.007812 388.445312 395.960938 385.898438 C 402.964844 382.902344 408.765625 378.28125 413.449219 374.464844 C 416.078125 372.328125 419.484375 368.726562 421.398438 366.207031 C 421.507812 366.207031 421.613281 366.207031 421.71875 366.207031 " fill-opacity="1" fill-rule="evenodd"/><path fill="#231f20" d="M 304.066406 362.398438 C 308.164062 365.609375 311.683594 369.398438 315.515625 372.875 C 311.203125 371.671875 307.121094 367.496094 304.066406 363.984375 C 304.066406 363.453125 304.066406 362.925781 304.066406 362.398438 " fill-opacity="1" fill-rule="evenodd"/><path fill="#231f20" d="M 415.992188 363.03125 C 416.359375 363.144531 416.800781 363.59375 416.3125 363.667969 C 412.738281 369.203125 407.535156 373.109375 400.09375 374.78125 C 405.390625 370.863281 411.488281 367.738281 415.992188 363.03125 " fill-opacity="1" fill-rule="evenodd"/><path fill="#231f20" d="M 242.699219 363.667969 C 252.367188 369.804688 260.597656 377.769531 277.671875 377.324219 C 280.671875 377.246094 283.664062 376.054688 287.851562 376.050781 C 285.558594 377.921875 281.546875 379.074219 278.3125 379.226562 C 262.617188 379.992188 250.359375 372.796875 243.011719 364.617188 C 242.644531 364.570312 242.746094 364.039062 242.699219 363.667969 " fill-opacity="1" fill-rule="evenodd"/><path fill="#231f20" d="M 255.097656 363.667969 C 255.417969 363.667969 255.730469 363.667969 256.050781 363.667969 C 260.496094 366.15625 267.621094 367.941406 274.175781 368.429688 C 276.105469 368.574219 279.125 367.644531 280.214844 369.699219 C 270.457031 370.636719 261.316406 368.558594 255.097656 364.9375 C 255.097656 364.511719 255.097656 364.089844 255.097656 363.667969 " fill-opacity="1" fill-rule="evenodd"/><path fill="#231f20" d="M 444.925781 364.9375 C 441.773438 366.824219 437.679688 366.085938 433.804688 365.886719 C 435.507812 363.507812 441.910156 365.15625 444.925781 364.9375 " fill-opacity="1" fill-rule="evenodd"/><path fill="#231f20" d="M 395.324219 365.253906 C 395.828125 366.5625 393.390625 367.285156 392.144531 367.792969 C 379.085938 373.121094 360.921875 373.503906 346.039062 370.019531 C 342.253906 369.132812 338.019531 368.292969 335.863281 365.886719 C 350.859375 372.042969 380.152344 373.054688 395.324219 365.253906 " fill-opacity="1" fill-rule="evenodd"/><path fill="#231f20" d="M 237.289062 365.886719 C 241.074219 365.582031 240.621094 370.222656 244.289062 370.96875 C 242.214844 371.472656 238.417969 368.421875 237.289062 365.886719 " fill-opacity="1" fill-rule="evenodd"/><path fill="#231f20" d="M 318.058594 366.523438 C 320.632812 368.609375 324.050781 369.855469 326.003906 372.558594 C 323.347656 373.164062 318.320312 369.34375 318.058594 366.523438 " fill-opacity="1" fill-rule="evenodd"/><path fill="#231f20" d="M 443.34375 367.480469 C 440.949219 370.058594 433.84375 371.359375 430.304688 369.066406 C 432.636719 367.535156 439.898438 369.171875 442.703125 367.160156 C 443.074219 367.105469 443.269531 367.230469 443.34375 367.480469 " fill-opacity="1" fill-rule="evenodd"/><path fill="#231f20" d="M 239.519531 377.640625 C 238.644531 379.621094 235.941406 379.945312 234.109375 380.816406 C 228.707031 383.382812 222.164062 385.398438 215.667969 385.898438 C 197.527344 387.296875 180.007812 380.476562 173.691406 369.066406 C 174.625 368.503906 176.011719 370.5 177.191406 371.605469 C 185.394531 379.292969 198.371094 384.433594 213.761719 383.992188 C 223.695312 383.707031 231.539062 379.402344 239.519531 377.640625 " fill-opacity="1" fill-rule="evenodd"/><path fill="#231f20" d="M 226.792969 369.066406 C 227.078125 369.207031 227.367188 369.34375 227.433594 369.699219 C 226.496094 373.070312 215.035156 372.558594 214.714844 370.65625 C 218.8125 369.84375 223.339844 371.53125 226.792969 369.066406 " fill-opacity="1" fill-rule="evenodd"/><path fill="#231f20" d="M 263.046875 371.289062 C 267.441406 373.441406 277.125 374.71875 283.714844 373.832031 C 282.203125 376.320312 277.734375 375.953125 274.492188 375.738281 C 269.648438 375.410156 263.484375 374.21875 262.09375 371.289062 C 262.464844 371.34375 262.65625 371.21875 262.726562 370.96875 C 263.296875 370.878906 263.378906 371.273438 263.046875 371.289062 " fill-opacity="1" fill-rule="evenodd"/><path fill="#231f20" d="M 230.292969 372.875 C 228.652344 375.449219 222.625 376.46875 218.847656 376.371094 C 216.707031 376.316406 214.496094 375.917969 212.804688 375.101562 C 214.632812 373.820312 218.171875 375.054688 221.390625 374.78125 C 224.695312 374.503906 227.742188 373.109375 230.292969 372.875 " fill-opacity="1" fill-rule="evenodd"/><path fill="#231f20" d="M 328.546875 375.101562 C 338.199219 378.535156 350.0625 384.109375 362.578125 383.675781 C 371.957031 383.347656 382.460938 381.238281 390.554688 377.957031 C 392.988281 376.972656 395.417969 374.273438 398.503906 375.738281 C 385.472656 383.234375 364.050781 388.476562 345.082031 383.039062 C 338.542969 381.164062 332.820312 379.148438 328.867188 376.050781 C 328.496094 376 328.601562 375.472656 328.546875 375.101562 " fill-opacity="1" fill-rule="evenodd"/><path fill="#231f20" d="M 344.449219 375.738281 C 344.457031 375.429688 344.839844 375.488281 345.082031 375.417969 C 347.863281 376.671875 351.257812 377.449219 354.628906 378.277344 C 357.820312 379.058594 361.46875 379.367188 363.847656 381.132812 C 358.699219 380.695312 345.222656 379.171875 344.449219 375.738281 " fill-opacity="1" fill-rule="evenodd"/><g clip-path="url(#d58e6aaeb0)"><path fill="#231f20" d="M 208.675781 263.949219 C 196.226562 263.1875 185.957031 267.777344 178.460938 270.613281 C 173.933594 273.605469 168.570312 278.523438 164.472656 283.003906 C 163.800781 284.464844 160.101562 288.074219 159.386719 291.574219 C 162.957031 292.980469 166.675781 294.246094 167.972656 297.929688 C 162.6875 296.808594 158.121094 293.070312 151.117188 292.53125 C 141.21875 291.761719 132.59375 296.644531 127.269531 300.46875 C 127.121094 302.652344 123.304688 303.914062 123.136719 307.136719 C 126.742188 308.632812 131.984375 310.140625 131.71875 314.441406 C 129.269531 314.378906 127.785156 311.917969 125.359375 310.632812 C 116.5 305.9375 102.589844 308.894531 97.695312 315.078125 C 105.574219 308.328125 127.160156 306.925781 131.71875 317.617188 C 125.683594 313.605469 117.839844 309.6875 109.464844 311.902344 C 105.441406 312.960938 99.960938 315.382812 97.0625 317.617188 C 95.136719 319.105469 94.582031 321.867188 92.292969 322.378906 C 92.777344 321.066406 93.070312 319.5625 93.882812 318.570312 C 91.238281 320.289062 88.929688 323.25 88.15625 325.875 C 84.507812 325.777344 83.542969 329.386719 79.890625 330.003906 C 76.710938 330.539062 73.546875 329.894531 71.308594 327.144531 C 70.390625 325.886719 72.574219 324.703125 71.621094 323.335938 C 70.460938 323.542969 70.40625 322.648438 69.398438 322.699219 C 67.695312 323.667969 67.207031 325.601562 66.851562 327.144531 C 64.695312 326.804688 66.140625 323.484375 65.902344 322.699219 C 60.007812 326.40625 65.054688 333.597656 69.078125 336.988281 C 73.351562 340.59375 79.949219 341.785156 84.339844 342.070312 C 84 338.875 82.222656 335.394531 84.660156 333.179688 C 87.519531 334.828125 85.808594 338.273438 86.566406 340.480469 C 87.390625 342.886719 89.429688 345.902344 91.019531 347.152344 C 96.703125 351.632812 106.777344 355.0625 115.824219 352.554688 C 114.65625 349.636719 112.394531 343.425781 115.183594 340.480469 C 117.550781 342.359375 116.066406 345.152344 116.773438 348.109375 C 117.15625 349.6875 118.558594 352.25 119.953125 354.140625 C 128.335938 365.449219 149.792969 374.613281 167.652344 368.75 C 166.730469 366.304688 163.335938 357.359375 167.015625 355.726562 C 168.230469 360.164062 167.945312 364.453125 169.878906 367.792969 C 170.34375 368.496094 171.582031 368.425781 171.789062 369.382812 C 173.699219 375.164062 179.265625 380.191406 186.410156 383.039062 C 193.394531 385.824219 200.910156 388.644531 209.308594 389.074219 C 224.800781 389.867188 233.410156 384.027344 242.378906 378.59375 C 241.523438 377.542969 240.609375 376.550781 239.199219 376.050781 C 220.933594 383.964844 188.421875 384.402344 178.460938 370.019531 C 191.046875 381.390625 221.0625 381.910156 238.242188 375.101562 C 237.234375 372.1875 232.210938 368.847656 233.160156 363.984375 C 236.433594 366.207031 237.503906 370.382812 240.152344 373.195312 C 246.316406 379.746094 257.5 384.675781 269.40625 385.578125 C 282.050781 386.539062 291.238281 382.714844 298.660156 378.59375 C 300.589844 377.519531 303.996094 376.726562 303.75 374.144531 C 296.097656 377.070312 287.617188 381.996094 277.992188 383.039062 C 267.730469 384.15625 257.722656 380.210938 251.28125 376.6875 C 248.636719 375.238281 245.722656 373.402344 244.289062 371.289062 C 252.585938 375.449219 261.34375 380.839844 273.539062 381.132812 C 283.0625 381.363281 291.566406 377.484375 298.980469 374.144531 C 299.871094 373.664062 301.429688 373.847656 302.476562 373.511719 C 301.339844 371.46875 299.980469 369.65625 298.339844 368.113281 C 298.570312 366.011719 294.972656 365.480469 296.75 362.710938 C 301.160156 366.058594 303.390625 371.25 307.5625 375.417969 C 317.003906 384.847656 331.253906 392.359375 346.671875 395.742188 C 349.789062 396.425781 353.699219 397.195312 357.167969 397.332031 C 383.238281 398.332031 407.976562 387.375 421.082031 372.875 C 421.746094 371.878906 420.792969 371.105469 421.398438 370.335938 C 426.25 369.429688 426.882812 360.207031 431.574219 363.03125 C 430.03125 366.785156 426.585938 368.636719 425.214844 372.558594 C 435.269531 378.097656 450.683594 372.1875 454.789062 365.886719 C 449.515625 368.648438 441.433594 373.621094 434.117188 373.195312 C 432.3125 373.089844 428.964844 372.601562 428.714844 371.605469 C 438.832031 372.328125 447.136719 368.667969 453.199219 364.300781 C 452.132812 361.558594 448.410156 358.429688 449.703125 355.410156 C 453.050781 358.011719 453.488281 364.425781 458.285156 364.617188 C 463.582031 375.238281 487.628906 375.597656 502.164062 372.242188 C 508.832031 369.507812 515.859375 365.871094 521.878906 361.761719 C 523.402344 360.726562 527.46875 359.222656 525.699219 356.996094 C 524.425781 357.914062 523.335938 359.183594 521.878906 360.171875 C 514.679688 365.082031 504.613281 370.644531 494.535156 372.242188 C 484.332031 373.855469 468.5 372.050781 463.691406 364.9375 C 482.828125 376.808594 511.957031 367.9375 524.742188 356.046875 C 524.078125 355.414062 522.691406 354.480469 521.878906 353.183594 C 520.515625 351.015625 518.421875 346.753906 520.609375 345.5625 C 523.445312 347.558594 523.035156 350.597656 525.058594 353.183594 C 526.023438 354.414062 528.789062 356.335938 530.148438 357.316406 C 538.4375 363.285156 555.890625 363.972656 563.222656 356.996094 C 562.003906 355.011719 558.222656 350.335938 560.992188 348.421875 C 563.367188 350.054688 563.300781 353.257812 565.125 355.726562 C 572.25 365.363281 589.875 367.773438 601.375 360.171875 C 604.015625 365.652344 613.664062 368.953125 621.089844 367.160156 C 626.609375 365.828125 630.1875 361.660156 633.492188 359.222656 C 643.722656 360.511719 655.863281 357.042969 653.207031 347.472656 C 651.566406 347.878906 650.539062 346.554688 649.707031 347.152344 C 649.851562 348.671875 649.851562 348.492188 649.707031 350.007812 C 639.402344 357.40625 631.597656 346.808594 630.949219 336.675781 C 628.910156 336.003906 625.097656 333.472656 624.269531 331.59375 C 625.539062 330.347656 628.703125 333.953125 627.769531 332.863281 C 623.191406 328.433594 614.945312 326.347656 606.785156 326.511719 C 612.144531 328.492188 617.539062 328.492188 621.726562 331.59375 C 625.742188 334.558594 630.121094 341.429688 631.902344 346.203125 C 632.558594 347.964844 633.605469 350.152344 633.171875 351.914062 C 631.574219 351.042969 630.222656 348.875 631.582031 346.832031 C 625.855469 338.691406 620.394531 328.585938 606.785156 329.367188 C 607.53125 332.691406 609.007812 338.585938 605.828125 339.851562 C 605.652344 336.132812 605.039062 332.691406 604.238281 330.003906 C 603.5 327.511719 603.265625 324.613281 602.328125 322.699219 C 597.183594 312.140625 582.917969 307.082031 567.671875 308.726562 C 570.328125 311.59375 571.011719 316.019531 572.441406 320.160156 C 573.597656 323.515625 576.722656 326.714844 575.621094 330.003906 C 572.890625 328.300781 572.855469 324.96875 571.800781 322.699219 C 569.664062 318.074219 567.546875 312.855469 564.492188 309.042969 C 557.34375 300.125 544.402344 291.703125 531.417969 290.304688 C 517.964844 288.855469 503.132812 293.214844 492.945312 299.199219 C 494.179688 301.238281 496.769531 305.574219 494.855469 307.769531 C 491.695312 304.214844 491 299.601562 487.21875 296.34375 C 481.976562 291.8125 475.765625 288.382812 467.191406 288.714844 C 465.65625 288.777344 463.042969 288.234375 462.421875 289.992188 C 462.984375 291.019531 466.578125 290.160156 468.460938 290.304688 C 475.851562 290.871094 483.085938 293.972656 485.316406 299.832031 C 480.429688 294.683594 471.386719 291.28125 462.738281 291.890625 C 461.796875 295.714844 463.507812 302.191406 460.511719 303.960938 C 459.40625 299.121094 460.300781 293.613281 459.878906 289.035156 C 458.617188 275.5625 447.980469 264.171875 437.617188 258.230469 C 428.476562 252.988281 415.828125 247.253906 402.960938 248.703125 C 397.390625 246.9375 390.429688 248.171875 384.832031 249.339844 C 381.902344 249.953125 378.472656 251.832031 376.246094 249.972656 C 376.789062 247.285156 380.417969 247.652344 382.925781 247.113281 C 387.332031 246.167969 392.304688 245.324219 396.914062 244.890625 C 387.054688 229.332031 370.988281 219.972656 351.761719 213.769531 C 358.824219 212.640625 365.457031 216.597656 370.839844 219.484375 C 381.859375 225.398438 392.21875 232.800781 397.871094 243.621094 C 398.105469 244.601562 397 244.234375 397.234375 245.207031 C 399.246094 244.863281 400.128906 246.09375 400.730469 244.890625 C 397.4375 238.574219 393.636719 234.089844 388.964844 229.011719 C 383.261719 222.820312 378.308594 219.730469 370.207031 215.992188 C 356.097656 209.488281 337.601562 205.246094 318.695312 206.464844 C 291.578125 208.214844 269.9375 221.097656 256.6875 235.679688 C 260.386719 236.914062 266.835938 239.210938 265.589844 242.351562 C 257.652344 238.371094 247.527344 235.21875 236.332031 236.957031 C 233.765625 237.347656 230.683594 238.320312 228.390625 239.175781 C 217.277344 243.320312 208.484375 251.578125 203.898438 260.773438 C 210.089844 261.339844 215.613281 261.863281 220.4375 263.628906 C 223.503906 264.75 227.859375 266.257812 228.070312 269.027344 C 222.21875 267.9375 216.160156 264.40625 208.675781 263.949219 Z M 155.886719 290.304688 C 164.773438 274.929688 179.921875 264.148438 200.40625 261.40625 C 208.867188 243.691406 226.421875 231.496094 252.875 234.730469 C 272.007812 215.363281 299.109375 200.386719 337.132812 204.558594 C 346.253906 205.558594 353.871094 206.757812 361.300781 209.320312 C 368.457031 211.789062 374.378906 215.503906 381.335938 218.535156 C 390.25 225.929688 398.714844 233.785156 403.59375 245.207031 C 414.332031 246.113281 422.917969 247.757812 431.257812 251.878906 C 445.890625 259.117188 458.140625 268.578125 462.101562 286.179688 C 476.085938 284.21875 484.453125 290.210938 491.355469 296.34375 C 500.695312 291.582031 511.578125 287.800781 523.789062 287.128906 C 542.382812 286.109375 556.867188 296.589844 565.761719 306.820312 C 584.285156 302.722656 600.484375 310.792969 605.828125 323.972656 C 613.136719 323.359375 625.179688 325.839844 629.996094 330.324219 C 635.007812 334.988281 633.277344 344.722656 639.21875 348.738281 C 641.601562 350.351562 644.3125 349.941406 647.167969 349.058594 C 648.125 348.203125 645.984375 346.589844 647.167969 345.5625 C 649.304688 344.242188 652.722656 344.808594 655.117188 345.5625 C 660.601562 358.027344 645.390625 363.34375 634.441406 361.449219 C 633.027344 362.9375 631.46875 365.097656 629.359375 366.523438 C 621.355469 371.960938 605.472656 371.167969 600.738281 363.667969 C 590.464844 369.53125 571.925781 368.738281 565.445312 359.542969 C 557.316406 366.121094 538.210938 365.898438 529.195312 360.171875 C 517.105469 368.667969 503.214844 378.082031 480.859375 376.6875 C 471.808594 376.121094 462.136719 373.984375 457.332031 368.429688 C 450.363281 374.941406 434.203125 381.546875 423.945312 374.464844 C 410.066406 389.148438 387.378906 399.710938 360.03125 399.867188 C 349.324219 399.9375 338.28125 396.375 329.503906 392.566406 C 320.292969 388.570312 312.242188 383.304688 306.289062 377.324219 C 292.246094 390.011719 262.042969 391.761719 245.238281 380.496094 C 237.101562 384.871094 228.851562 390.257812 218.210938 391.617188 C 212.515625 392.34375 205.949219 391.332031 199.769531 390.027344 C 185.804688 387.078125 174.933594 381.886719 169.242188 370.96875 C 155.285156 376.222656 139.917969 371.769531 130.128906 365.574219 C 128.84375 364.757812 127.191406 363.324219 125.679688 363.984375 C 126.050781 361.351562 119.027344 358.59375 117.414062 354.777344 C 105.925781 359.082031 91.878906 352.882812 85.617188 344.613281 C 78.253906 345.308594 69.328125 341.125 64.3125 335.71875 C 61.308594 332.492188 57.996094 324.519531 63.039062 321.109375 C 66.636719 318.675781 71.199219 320.5625 74.167969 322.699219 C 74.671875 324.167969 74.386719 325.316406 73.847656 326.511719 C 78.6875 329.199219 80.863281 325.367188 84.976562 324.921875 C 91.851562 314.414062 102.570312 303.730469 119.953125 305.867188 C 125.765625 295.605469 139.160156 287.835938 155.886719 290.304688 " fill-opacity="1" fill-rule="evenodd"/></g><path fill="#231f20" d="M 258.277344 338.582031 C 258.222656 337.027344 261.492188 341.199219 262.726562 342.390625 C 255.332031 337.152344 247.308594 331.035156 231.882812 331.910156 C 227.347656 332.164062 223.324219 334.394531 219.164062 333.5 C 220.675781 331.996094 224.730469 330.8125 228.070312 330.324219 C 232.726562 329.640625 238.21875 329.675781 242.699219 330.324219 C 249.230469 331.265625 253.683594 334.117188 257.957031 337.308594 C 257.917969 338.101562 257.355469 338.300781 258.277344 338.582031 " fill-opacity="1" fill-rule="evenodd"/><path fill="#231f20" d="M 535.238281 343.976562 C 540.089844 346.332031 545.546875 348.078125 553.042969 347.789062 C 548.792969 351.742188 539.328125 346.875 535.238281 345.882812 C 535.019531 345.703125 534.75 344.652344 535.238281 343.976562 " fill-opacity="1" fill-rule="evenodd"/><path fill="#231f20" d="M 273.222656 233.457031 C 278.195312 230.070312 285.667969 227.820312 292.300781 227.105469 C 291.421875 228.5625 289.296875 228.582031 287.851562 229.011719 C 283.40625 230.324219 278.449219 232.191406 274.175781 234.09375 C 273.472656 234.269531 273.722656 233.488281 273.222656 233.457031 " fill-opacity="1" fill-rule="evenodd"/><path fill="#231f20" d="M 370.839844 236.320312 C 368.929688 235.894531 365.457031 234.289062 363.847656 232.503906 C 363.1875 232.1875 361.171875 232.589844 360.347656 231.867188 C 360.347656 231.875 360.753906 231.074219 360.347656 230.917969 C 359.996094 230.785156 360.523438 231.578125 360.03125 231.554688 C 358.191406 231.457031 355.15625 229.597656 352.082031 228.691406 C 343.824219 226.269531 335.019531 225.152344 326.003906 224.566406 C 331.765625 222.28125 338.476562 224.386719 344.132812 225.515625 C 348.109375 226.3125 351.886719 226.875 355.261719 228.0625 C 357.78125 228.945312 359.6875 230.8125 362.578125 231.238281 C 362.859375 231.355469 362.839844 232.019531 362.578125 231.867188 C 365.222656 233.335938 367.140625 233.460938 370.839844 236.320312 " fill-opacity="1" fill-rule="evenodd"/><path fill="#231f20" d="M 289.441406 231.554688 C 288.167969 233.382812 285.476562 233.890625 283.394531 234.730469 C 281.222656 235.605469 279.074219 236.484375 277.035156 237.269531 C 277.554688 233.800781 285.148438 232.113281 289.441406 231.554688 " fill-opacity="1" fill-rule="evenodd"/><path fill="#231f20" d="M 349.539062 236.957031 C 342.820312 235.382812 333.949219 233.261719 325.054688 232.824219 C 333.320312 230.570312 343.796875 233.875 350.171875 236.636719 C 350.226562 237.003906 350.101562 237.199219 349.851562 237.269531 C 349.285156 237.359375 349.203125 236.96875 349.539062 236.957031 " fill-opacity="1" fill-rule="evenodd"/><path fill="#231f20" d="M 259.230469 236 C 261.789062 231.058594 267.457031 228.152344 272.265625 225.203125 C 277.050781 222.265625 281.671875 218.648438 286.578125 215.992188 C 297.34375 212.300781 316.324219 206.738281 328.546875 211.226562 C 328.339844 211.226562 328.125 211.226562 327.914062 211.226562 C 326.914062 210.695312 321.699219 211.367188 317.738281 211.546875 C 309.863281 211.902344 303.046875 212.882812 296.433594 214.722656 C 281.570312 218.859375 271.054688 228.539062 259.230469 236 " fill-opacity="1" fill-rule="evenodd"/><path fill="#231f20" d="M 344.132812 239.175781 C 340.601562 239.824219 335.199219 236.890625 329.824219 237.269531 C 329.011719 237.285156 329.433594 237.035156 329.503906 236.636719 C 333.714844 235.8125 341.152344 236.707031 344.132812 239.175781 " fill-opacity="1" fill-rule="evenodd"/><path fill="#231f20" d="M 208.988281 257.910156 C 208.539062 254.816406 212.3125 253.148438 214.714844 251.246094 C 223.664062 244.148438 241.097656 235.078125 254.460938 243.9375 C 235.707031 238 218.382812 248.628906 208.988281 257.910156 " fill-opacity="1" fill-rule="evenodd"/><path fill="#231f20" d="M 327.914062 252.832031 C 308.269531 247.121094 277.191406 249.71875 264.957031 264.261719 C 263.984375 265.417969 263.910156 267.339844 261.777344 267.441406 C 262.34375 262.710938 267.707031 259.449219 272.265625 256.640625 C 285.59375 248.4375 311.835938 244.652344 327.914062 252.832031 " fill-opacity="1" fill-rule="evenodd"/><path fill="#231f20" d="M 244.921875 253.464844 C 237.578125 253.804688 230.566406 256.523438 225.203125 257.910156 C 228.15625 255.167969 237.574219 250.625 244.921875 253.464844 " fill-opacity="1" fill-rule="evenodd"/><path fill="#231f20" d="M 207.085938 272.839844 C 197.546875 274.003906 188.957031 276.125 182.28125 280.144531 C 186.675781 274.046875 196.78125 271.980469 207.085938 272.839844 " fill-opacity="1" fill-rule="evenodd"/><path fill="#231f20" d="M 387.375 288.085938 C 387.542969 286.964844 382.933594 286.0625 382.605469 284.910156 C 382.375 284.101562 381.742188 284.371094 380.0625 283.632812 C 375.171875 281.496094 369.671875 279.34375 363.210938 278.871094 C 354.722656 278.257812 345.804688 279.839844 338.089844 280.457031 C 346.519531 275.714844 367.351562 276.457031 378.15625 280.777344 C 378.4375 280.898438 378.417969 281.558594 378.15625 281.414062 C 381.550781 283.277344 385.71875 284.566406 387.375 288.085938 " fill-opacity="1" fill-rule="evenodd"/><path fill="#231f20" d="M 231.25 283.953125 C 226.65625 282.515625 219.539062 284.824219 214.714844 283.632812 C 216.398438 281.863281 221.074219 282.027344 224.253906 282.050781 C 227.015625 282.066406 230.585938 281.410156 231.25 283.953125 " fill-opacity="1" fill-rule="evenodd"/><path fill="#231f20" d="M 364.167969 284.589844 C 357.722656 282.078125 349.308594 283.703125 341.585938 283.953125 C 345.023438 281.992188 351.261719 281.171875 355.898438 281.414062 C 358.75 281.5625 363.078125 282.121094 364.167969 284.589844 " fill-opacity="1" fill-rule="evenodd"/><path fill="#231f20" d="M 176.871094 283.953125 C 172.566406 286.535156 169.515625 292.050781 166.0625 294.4375 C 167.210938 289.941406 171.8125 284.535156 176.871094 283.953125 " fill-opacity="1" fill-rule="evenodd"/><path fill="#231f20" d="M 360.667969 287.765625 C 356.515625 287.007812 348.738281 287.714844 345.402344 288.085938 C 347.515625 285.109375 359.199219 284.621094 360.667969 287.765625 " fill-opacity="1" fill-rule="evenodd"/><path fill="#231f20" d="M 177.828125 289.671875 C 174.207031 291.449219 172.34375 294.988281 168.605469 296.65625 C 170.347656 293.195312 173.4375 289.433594 177.828125 289.671875 " fill-opacity="1" fill-rule="evenodd"/><path fill="#231f20" d="M 535.554688 301.417969 C 532.484375 301.175781 527.339844 300.335938 523.152344 300.148438 C 522.773438 299.730469 523.03125 299.652344 523.152344 299.199219 C 526.0625 299.25 533.546875 298.007812 535.554688 301.417969 " fill-opacity="1" fill-rule="evenodd"/><path fill="#231f20" d="M 563.222656 318.253906 C 557.59375 314.34375 554.480469 307.929688 547.316406 305.550781 C 547.125 305.265625 546.933594 304.984375 547.316406 304.914062 C 555.28125 305.4375 559.113281 312.816406 563.222656 318.253906 " fill-opacity="1" fill-rule="evenodd"/><path fill="#231f20" d="M 325.054688 308.089844 C 319.148438 304.75 311.078125 301.378906 302.476562 301.738281 C 291.953125 302.175781 285.074219 306.347656 278.945312 311.265625 C 277.425781 312.484375 275.78125 314.792969 273.539062 314.441406 C 280.316406 302.59375 305.34375 294.921875 320.285156 303.324219 C 322.058594 304.324219 324.003906 306.1875 325.054688 308.089844 " fill-opacity="1" fill-rule="evenodd"/><path fill="#231f20" d="M 221.710938 316.984375 C 214.976562 310.527344 205.570312 304.40625 193.726562 304.28125 C 184.957031 304.1875 174.878906 306.699219 168.605469 311.902344 C 166.171875 313.917969 165.585938 316.890625 162.246094 317.933594 C 162.289062 313.847656 166.226562 313.652344 167.335938 310.632812 C 173.734375 305.878906 183.046875 302.109375 193.410156 302.375 C 206.347656 302.699219 217.015625 309.050781 221.710938 316.984375 " fill-opacity="1" fill-rule="evenodd"/><path fill="#231f20" d="M 220.753906 329.6875 C 220.121094 326.890625 224.722656 326.695312 226.792969 325.558594 C 225.171875 320.488281 223.25 315.703125 220.117188 311.902344 C 208.363281 297.621094 181.015625 296.402344 167.015625 308.726562 C 165.902344 310.332031 164.21875 311.289062 162.882812 313.171875 C 161.34375 315.339844 160.933594 319.761719 157.164062 318.570312 C 163.074219 299.496094 192.402344 291.6875 211.855469 301.738281 C 220.980469 306.457031 226.457031 315.265625 229.660156 324.921875 C 240.675781 322.417969 250.964844 326.417969 257.640625 331.59375 C 261.101562 334.269531 266.394531 337.285156 264.957031 341.75 C 262.941406 342.070312 262.257812 338.851562 261.777344 338.261719 C 259.140625 335.050781 250.984375 329.296875 245.238281 327.78125 C 239.074219 326.152344 231.703125 327.308594 227.433594 328.417969 C 225.289062 328.929688 222.835938 331.03125 220.753906 329.6875 " fill-opacity="1" fill-rule="evenodd"/><path fill="#231f20" d="M 207.71875 314.441406 C 207.464844 314.609375 207.203125 314.773438 206.765625 314.757812 C 200.535156 311.121094 190.527344 309.382812 181.640625 311.265625 C 176.570312 312.339844 172.613281 315.347656 168.925781 315.714844 C 170.066406 313.484375 173.28125 312.199219 175.921875 311.265625 C 185.363281 307.933594 199.179688 308.109375 207.085938 313.808594 C 207.621094 313.6875 207.683594 314.050781 207.71875 314.441406 " fill-opacity="1" fill-rule="evenodd"/><path fill="#231f20" d="M 199.449219 317.300781 C 198.757812 317.355469 198.4375 317.039062 198.496094 316.347656 C 194.207031 317.078125 188.503906 315.921875 183.550781 317.617188 C 184.542969 314.777344 191.722656 314.125 196.269531 315.078125 C 197.636719 315.359375 199.925781 315.574219 199.449219 317.300781 " fill-opacity="1" fill-rule="evenodd"/><path fill="#231f20" d="M 199.136719 320.792969 C 196.113281 319.042969 189.75 319.398438 187.6875 320.792969 C 188.640625 316.738281 198.007812 317.300781 199.136719 320.792969 " fill-opacity="1" fill-rule="evenodd"/><path fill="#231f20" d="M 467.191406 328.417969 C 462.40625 326.59375 453.183594 323.8125 445.246094 325.242188 C 446.152344 322.710938 450.019531 323.191406 452.5625 323.335938 C 457.980469 323.644531 465.84375 324.75 467.191406 328.417969 " fill-opacity="1" fill-rule="evenodd"/><path fill="#231f20" d="M 491.992188 341.75 C 490.070312 338.460938 489.640625 335.210938 487.21875 332.226562 C 479.121094 322.226562 465.613281 315.292969 448.113281 316.984375 C 440.308594 317.734375 431.90625 321.585938 427.4375 325.875 C 425.332031 327.902344 424.671875 331.910156 420.765625 331.59375 C 419.679688 329.527344 422.214844 328.109375 423.308594 326.828125 C 430.300781 318.625 443.0625 313.097656 457.652344 314.441406 C 471.503906 315.71875 482.28125 321.929688 489.445312 331.273438 C 491.226562 333.59375 495.238281 338.507812 491.992188 341.75 " fill-opacity="1" fill-rule="evenodd"/><path fill="#231f20" d="M 488.8125 339.214844 C 484.902344 334.574219 480.683594 330.363281 474.5 327.144531 C 471.726562 325.699219 469.003906 323.605469 466.550781 322.699219 C 457.601562 319.402344 448.695312 321.457031 439.84375 322.066406 C 443.15625 319.785156 448.484375 319.054688 452.882812 318.890625 C 462.308594 318.53125 469.367188 322.109375 476.09375 325.875 C 481.601562 328.960938 487.9375 332.9375 488.8125 339.214844 " fill-opacity="1" fill-rule="evenodd"/><path fill="#231f20" d="M 65.902344 329.6875 C 69.179688 335.195312 76.515625 336.65625 82.117188 339.851562 C 77.316406 340.851562 64.714844 334.753906 65.902344 329.6875 " fill-opacity="1" fill-rule="evenodd"/><path fill="#231f20" d="M 140.308594 338.894531 C 143.035156 339.5625 145.269531 340.710938 147.617188 341.75 C 144.972656 342.277344 140.980469 341.402344 140.308594 338.894531 " fill-opacity="1" fill-rule="evenodd"/><path fill="#231f20" d="M 240.152344 342.707031 C 237.453125 341.792969 233.550781 340.515625 229.339844 341.4375 C 229.78125 338.054688 239.382812 339.609375 240.152344 342.707031 " fill-opacity="1" fill-rule="evenodd"/><path fill="#231f20" d="M 102.152344 341.75 C 101.125 340.238281 98.542969 340.273438 98.335938 337.945312 C 102.390625 340.238281 106.105469 341.566406 111.371094 343.027344 C 111.347656 344.164062 110.046875 344.027344 108.824219 343.976562 C 109.3125 344.761719 110.804688 344.542969 110.734375 345.882812 C 106.085938 345.335938 102.707031 343.527344 99.605469 341.4375 C 100.359375 340.402344 101.40625 341.730469 102.152344 341.75 " fill-opacity="1" fill-rule="evenodd"/><path fill="#231f20" d="M 527.289062 349.691406 C 527.65625 349.640625 527.851562 349.765625 527.925781 350.007812 C 532.320312 353.148438 537.523438 357.167969 545.09375 357.636719 C 550.714844 357.976562 556.160156 356.40625 561.3125 355.089844 C 558.527344 359.300781 551.417969 359.726562 546.046875 359.542969 C 537.875 359.257812 530 355.296875 527.289062 349.691406 " fill-opacity="1" fill-rule="evenodd"/><path fill="#231f20" d="M 530.46875 346.203125 C 538.066406 349.621094 547.730469 353.121094 557.175781 351.914062 C 556.109375 353.539062 553.527344 353.761719 551.773438 353.820312 C 544.039062 354.085938 534.757812 349.878906 530.46875 346.203125 " fill-opacity="1" fill-rule="evenodd"/><path fill="#231f20" d="M 156.84375 356.996094 C 153.050781 358.855469 148.222656 356.3125 145.714844 354.777344 C 145.625 354.261719 146.015625 354.230469 146.027344 353.820312 C 148.734375 354.535156 153.128906 356.234375 156.84375 356.996094 " fill-opacity="1" fill-rule="evenodd"/><path fill="#231f20" d="M 191.820312 355.089844 C 195.496094 356.179688 198.886719 357.558594 202.949219 358.265625 C 199.90625 360.660156 195.414062 357.136719 192.136719 356.679688 C 192.269531 355.914062 191.554688 355.992188 191.820312 355.089844 " fill-opacity="1" fill-rule="evenodd"/><path fill="#231f20" d="M 131.085938 353.183594 C 140.378906 358.40625 149.949219 363.347656 163.835938 363.984375 C 163.566406 365.957031 160.34375 365.320312 159.066406 365.253906 C 148.664062 364.722656 137.816406 359.09375 131.402344 354.140625 C 131.03125 354.085938 131.132812 353.558594 131.085938 353.183594 " fill-opacity="1" fill-rule="evenodd"/><path fill="#231f20" d="M 346.355469 358.902344 C 351.949219 361.296875 361.476562 361.910156 367.980469 359.855469 C 363.792969 364.636719 351.8125 362.632812 346.671875 360.171875 C 346.429688 359.890625 346.335938 359.457031 346.355469 358.902344 " fill-opacity="1" fill-rule="evenodd"/><path fill="#231f20" d="M 180.691406 357.949219 C 186.042969 363.632812 196.617188 365.375 205.175781 366.84375 C 198.042969 368.984375 188 364.753906 182.597656 361.128906 C 182.285156 359.78125 181.089844 359.804688 180.691406 357.949219 " fill-opacity="1" fill-rule="evenodd"/><path fill="#231f20" d="M 189.277344 357.636719 C 193.519531 359.800781 199.535156 361.351562 204.21875 362.078125 C 198.976562 363.792969 190.148438 360.585938 189.277344 357.636719 " fill-opacity="1" fill-rule="evenodd"/></svg>