<svg xmlns="http://www.w3.org/2000/svg" xmlns:xlink="http://www.w3.org/1999/xlink" width="940" zoomAndPan="magnify" viewBox="0 0 705 591.000005" height="788" preserveAspectRatio="xMidYMid meet" version="1.0"><defs><clipPath id="1ec472ab33"><path d="M 180.992188 123.492188 L 523.910156 123.492188 L 523.910156 466.410156 L 180.992188 466.410156 Z M 180.992188 123.492188 " clip-rule="nonzero"/></clipPath></defs><g clip-path="url(#1ec472ab33)"><path fill="#cbb279" d="M 352.449219 123.492188 C 257.890625 123.492188 180.992188 200.394531 180.992188 294.953125 C 180.992188 389.511719 257.890625 466.410156 352.449219 466.410156 C 447.007812 466.410156 523.910156 389.511719 523.910156 294.953125 C 523.910156 200.394531 447.007812 123.492188 352.449219 123.492188 Z M 352.449219 454.382812 C 264.417969 454.382812 193.019531 382.984375 193.019531 294.953125 C 193.019531 206.917969 264.417969 135.519531 352.449219 135.519531 C 440.484375 135.519531 511.882812 206.917969 511.882812 294.953125 C 511.882812 382.984375 440.484375 454.382812 352.449219 454.382812 Z M 352.449219 454.382812 " fill-opacity="1" fill-rule="nonzero"/></g><path fill="#cbb279" d="M 438.777344 239.71875 L 380.730469 294.953125 L 438.777344 350.183594 C 440.332031 348.0625 441.328125 345.703125 441.761719 343.105469 L 441.761719 246.796875 C 441.328125 244.203125 440.332031 241.839844 438.777344 239.71875 Z M 438.777344 239.71875 " fill-opacity="1" fill-rule="nonzero"/><path fill="#cbb279" d="M 352.449219 321.863281 L 328.566406 299.132812 L 270.558594 354.324219 C 271.894531 355.203125 273.328125 355.871094 274.859375 356.328125 C 276.394531 356.785156 277.960938 357.011719 279.558594 357.007812 L 425.34375 357.007812 C 426.941406 357.011719 428.507812 356.785156 430.039062 356.328125 C 431.574219 355.871094 433.007812 355.203125 434.34375 354.324219 L 376.335938 299.132812 Z M 352.449219 321.863281 " fill-opacity="1" fill-rule="nonzero"/><path fill="#cbb279" d="M 266.125 239.71875 C 264.566406 241.839844 263.574219 244.203125 263.136719 246.796875 L 263.136719 343.105469 C 263.574219 345.703125 264.566406 348.0625 266.125 350.183594 L 324.171875 294.953125 Z M 266.125 239.71875 " fill-opacity="1" fill-rule="nonzero"/><path fill="#cbb279" d="M 328.566406 290.773438 L 352.449219 313.546875 L 434.34375 235.582031 C 433.007812 234.699219 431.574219 234.03125 430.039062 233.574219 C 428.507812 233.117188 426.941406 232.890625 425.34375 232.894531 L 279.558594 232.894531 C 277.960938 232.890625 276.394531 233.117188 274.859375 233.574219 C 273.328125 234.03125 271.894531 234.699219 270.558594 235.582031 Z M 328.566406 290.773438 " fill-opacity="1" fill-rule="nonzero"/></svg>