<svg xmlns="http://www.w3.org/2000/svg" xmlns:xlink="http://www.w3.org/1999/xlink" width="940" zoomAndPan="magnify" viewBox="0 0 705 591.000005" height="788" preserveAspectRatio="xMidYMid meet" version="1.0"><defs><clipPath id="f8b8fe08cc"><path d="M 167.4375 140.085938 L 537.3125 140.085938 L 537.3125 201 L 167.4375 201 Z M 167.4375 140.085938 " clip-rule="nonzero"/></clipPath><clipPath id="3e7579d7ff"><path d="M 167.4375 264 L 537.3125 264 L 537.3125 326 L 167.4375 326 Z M 167.4375 264 " clip-rule="nonzero"/></clipPath><clipPath id="06cb8bac92"><path d="M 167.4375 389 L 537.3125 389 L 537.3125 450.0625 L 167.4375 450.0625 Z M 167.4375 389 " clip-rule="nonzero"/></clipPath></defs><g clip-path="url(#f8b8fe08cc)"><path fill="#000000" d="M 507.183594 200.359375 L 197.566406 200.359375 C 180.941406 200.359375 167.464844 186.867188 167.464844 170.222656 C 167.464844 153.578125 180.941406 140.085938 197.566406 140.085938 L 507.183594 140.085938 C 523.808594 140.085938 537.285156 153.578125 537.285156 170.222656 C 537.285156 186.867188 523.808594 200.359375 507.183594 200.359375 Z M 507.183594 200.359375 " fill-opacity="1" fill-rule="nonzero"/></g><g clip-path="url(#3e7579d7ff)"><path fill="#000000" d="M 507.183594 325.210938 L 197.566406 325.210938 C 180.941406 325.210938 167.464844 311.71875 167.464844 295.074219 C 167.464844 278.429688 180.941406 264.9375 197.566406 264.9375 L 507.183594 264.9375 C 523.808594 264.9375 537.285156 278.429688 537.285156 295.074219 C 537.285156 311.71875 523.808594 325.210938 507.183594 325.210938 Z M 507.183594 325.210938 " fill-opacity="1" fill-rule="nonzero"/></g><g clip-path="url(#06cb8bac92)"><path fill="#000000" d="M 507.183594 450.0625 L 197.566406 450.0625 C 180.941406 450.0625 167.464844 436.570312 167.464844 419.925781 C 167.464844 403.28125 180.941406 389.789062 197.566406 389.789062 L 507.183594 389.789062 C 523.808594 389.789062 537.285156 403.28125 537.285156 419.925781 C 537.285156 436.570312 523.808594 450.0625 507.183594 450.0625 Z M 507.183594 450.0625 " fill-opacity="1" fill-rule="nonzero"/></g></svg>