<svg xmlns="http://www.w3.org/2000/svg" xmlns:xlink="http://www.w3.org/1999/xlink" width="940" zoomAndPan="magnify" viewBox="0 0 705 591.000005" height="788" preserveAspectRatio="xMidYMid meet" version="1.0"><defs><clipPath id="d1bc0cd5e7"><path d="M 74.710938 174 L 609 174 L 609 516 L 74.710938 516 Z M 74.710938 174 " clip-rule="nonzero"/></clipPath></defs><g clip-path="url(#d1bc0cd5e7)"><path fill="#000000" d="M 83.488281 502.582031 C 164.722656 471.992188 252.085938 468.226562 337.609375 461.882812 C 418.648438 464.949219 502.519531 466.824219 580.394531 491.648438 C 584.023438 492.3125 606.949219 504.066406 607.253906 498.808594 C 609.910156 495.828125 586.929688 489.351562 582.679688 487.257812 C 573.835938 485.527344 578.289062 472.574219 569.5 470.5625 C 550.097656 465.363281 544.582031 437.1875 520.597656 445.4375 C 516.796875 446.054688 509.882812 449.574219 509.679688 442.980469 C 509.351562 437.203125 514.636719 438.777344 518.449219 438.292969 C 545.90625 436.417969 565.628906 400.039062 542.652344 380.523438 C 532.675781 370.933594 533.90625 356.277344 526.964844 345.082031 C 520.042969 331.367188 504.070312 335.183594 496.710938 346.378906 C 494.695312 349.140625 493.335938 349.75 490.367188 347.105469 C 481.53125 339.230469 474.640625 330.304688 472.136719 318.433594 C 467.953125 302.375 457.074219 289.871094 445.007812 290.847656 C 437.277344 292.292969 432.6875 295.441406 426.953125 303.328125 C 420.164062 313.183594 411.792969 321.40625 402.363281 328.777344 C 397.675781 332.441406 392.777344 336.925781 392.65625 343.5625 C 392.566406 348.957031 389.640625 349.074219 385.660156 349.328125 C 364.753906 350.679688 318.449219 352.054688 310.53125 352.222656 C 305.464844 352.332031 305.464844 352.332031 292.578125 363.960938 C 289.777344 366.484375 288.082031 367.632812 285.789062 363.648438 C 282.828125 358.503906 278.226562 354.796875 273.117188 352.148438 C 267.675781 349.328125 265.046875 344.910156 263.890625 339.363281 C 261.394531 327.890625 255.484375 309.375 240.363281 315.300781 C 214.273438 323.972656 225.800781 352.171875 199.894531 364.828125 C 196.300781 368.097656 194.734375 372.960938 191.191406 366.113281 C 185.121094 354.917969 177.953125 353.84375 169.28125 362.929688 C 163.996094 368.46875 158.558594 373.535156 151.683594 377.121094 C 146.035156 380.078125 143.109375 385.4375 144.484375 391.613281 C 150.4375 416.890625 111.871094 446.222656 164.703125 447.597656 C 164.5 447.582031 165.894531 447.472656 167.25 447.640625 C 169.410156 447.902344 172.351562 446.035156 173.433594 449.488281 C 174.570312 453.121094 172.402344 455.257812 169.527344 456.777344 C 154.835938 462.679688 137.894531 457.375 132.660156 477.480469 C 131.46875 481.777344 128.957031 483.71875 124.546875 484.730469 C 110.035156 488.058594 96.121094 493.410156 82.046875 498.191406 C 75.484375 499.726562 78.488281 505.535156 83.488281 502.582031 Z M 309.175781 460.3125 C 297.484375 461.335938 293.371094 464.140625 293.75 448.273438 C 292.890625 434.527344 293.304688 419.929688 305.246094 418.824219 C 314.671875 417.945312 314.015625 433.582031 314.351562 446.8125 C 314.519531 453.710938 316.453125 459.730469 309.175781 460.3125 Z M 349.742188 392.40625 C 374.265625 388.757812 399.203125 388.503906 423.785156 386.082031 C 433.386719 385.058594 437.585938 388.089844 441.796875 395.5625 C 444.695312 400.703125 446.71875 403.710938 438.019531 404.300781 C 413.175781 405.992188 388.726562 407.46875 364.265625 408.347656 C 360.699219 408.472656 337.289062 393.054688 349.742188 392.40625 Z M 327.042969 376.558594 C 326.214844 375.730469 325.011719 374.96875 325.609375 373.566406 C 328.265625 371.472656 395.464844 370.046875 417.519531 368.039062 C 424.59375 366.433594 437.570312 382.558594 426.035156 381.589844 C 400.144531 384.019531 374.089844 384.984375 348.335938 388.632812 C 337.652344 391.671875 334.160156 382.457031 327.042969 376.558594 Z M 427.003906 463.457031 C 404.09375 461.410156 381.15625 459.519531 358.203125 458.078125 C 351.835938 457.679688 350.671875 455.59375 350.46875 449.269531 C 350.148438 439.359375 348.503906 426.84375 349.472656 410.683594 C 349.574219 408.972656 348.933594 404.730469 350.324219 406.234375 C 353.984375 410.1875 359.207031 412.964844 362.722656 412.789062 C 384.636719 411.648438 399.765625 411.207031 419.675781 410.28125 C 428.394531 409.875 430.808594 409.746094 431.703125 414.207031 C 432.03125 415.851562 433.058594 450.941406 433.285156 457.605469 C 433.445312 462.28125 431.964844 463.894531 427.003906 463.457031 Z M 438.195312 409.453125 C 442.109375 408.859375 443.480469 416.054688 439.621094 416.105469 C 435.910156 416.773438 435.152344 410.117188 438.195312 409.453125 Z M 518.085938 450.054688 C 541.976562 441.976562 545.839844 466.808594 564.207031 472.4375 C 567.570312 473.359375 573.429688 478.769531 571.558594 482.316406 C 533.570312 475.519531 492.746094 465.515625 452.683594 465.625 C 443.601562 466.34375 440.042969 464.300781 438.734375 460.457031 C 437.207031 456 436.828125 422.828125 437.367188 422.007812 C 438.152344 420.824219 439.695312 420.554688 441.929688 421.035156 C 465.296875 423.046875 456.882812 439.148438 477.550781 436.792969 C 500.691406 432.789062 498.035156 456.667969 518.085938 450.054688 Z M 485.285156 430.695312 C 486.488281 425.765625 501.171875 434.394531 502.054688 436.664062 C 501.433594 441.382812 497.476562 433.828125 486.566406 432.703125 C 485.695312 432.503906 484.921875 431.808594 485.285156 430.695312 Z M 496.539062 354.648438 C 500.960938 344.929688 514.765625 333.269531 522.722656 346.066406 C 530.761719 359.761719 528.027344 373.144531 541.664062 385.667969 C 545.921875 390.023438 548.816406 395.679688 549.304688 401.878906 C 553.242188 430.972656 489.914062 450.460938 516.019531 414.484375 C 517.503906 413.015625 519.765625 411.175781 518.09375 409.140625 C 515.953125 405.804688 510.328125 411.839844 508.640625 413.613281 C 500.371094 423.339844 503.597656 407.550781 496.21875 411.257812 C 488.742188 416.070312 503.828125 422.917969 500.148438 427.691406 C 498.371094 430.0625 493.714844 424.71875 489.914062 423.941406 C 476.632812 422.058594 466.527344 418.484375 467.539062 402.707031 C 466.738281 396.855469 469.691406 391.347656 474.507812 387.507812 C 485.402344 378.8125 490.613281 366.507812 496.539062 354.648438 Z M 403.011719 333.683594 C 414.972656 324.53125 424.625 313.332031 433.792969 301.554688 C 436.835938 297.644531 440.96875 295.019531 445.582031 294.464844 C 471.628906 297.90625 464.117188 336.832031 486.042969 349.4375 C 491.167969 353.167969 491.632812 357.433594 488.351562 362.769531 C 483.910156 369.988281 480.003906 377.410156 473.097656 382.933594 C 459.074219 392.953125 458.667969 420.65625 477.011719 426.632812 C 487.609375 428.253906 473.191406 440.597656 465.382812 427.851562 C 460.644531 417.8125 443.53125 421.273438 449.277344 410.035156 C 456.722656 399.910156 440.320312 396.136719 449.621094 387.886719 C 451.105469 385.726562 464.976562 373.515625 455.53125 375.519531 C 454.738281 375.882812 454.039062 376.574219 453.441406 377.242188 C 442.226562 390.132812 448.273438 373.390625 442.445312 373.464844 C 438.464844 374.082031 441.835938 379.789062 439.703125 381.21875 C 436.761719 382.957031 439.113281 382.820312 419.886719 356.679688 C 413.789062 348.398438 413.476562 349.160156 402.382812 348.355469 C 398.019531 348.042969 398.019531 348.101562 397.09375 346.921875 C 393.601562 342.429688 398.972656 336.773438 403.011719 333.683594 Z M 314.316406 355.996094 C 324.632812 355.90625 387.808594 352.6875 399.792969 352.148438 C 405.621094 351.808594 412.777344 352.089844 415.941406 356.671875 C 421.296875 364.414062 420.445312 364.253906 411.183594 364.828125 C 380.347656 366.746094 354.265625 367.589844 325.785156 368.542969 C 319.046875 370.132812 302.976562 355.464844 314.316406 355.996094 Z M 299.921875 362.574219 C 302.636719 359.984375 304.242188 359.199219 307.292969 362.167969 C 320.980469 375.511719 331.621094 387.179688 342.71875 398.839844 C 346.132812 402.425781 346.109375 401.691406 346.132812 404.488281 C 346.246094 419.078125 346.144531 436.066406 345.613281 450.132812 C 345.402344 455.753906 345.257812 456.53125 341.445312 456.75 C 333.527344 457.207031 325.703125 457.796875 318.019531 458.320312 C 318.019531 458.320312 317.421875 439.933594 316.5625 428.828125 C 313.660156 406.742188 291.828125 413.320312 291.109375 433.566406 C 290.613281 470.480469 297.714844 457.308594 267.171875 461.089844 C 261.824219 457.59375 265.417969 413.53125 264.074219 400.976562 C 268.882812 386.941406 287.214844 376.507812 299.921875 362.574219 Z M 224.214844 339.894531 C 226.0625 328.160156 245.339844 308.539062 253.527344 325.246094 C 259.976562 335.625 257.347656 350.390625 270.324219 356.058594 C 276.546875 359.738281 289.035156 368.882812 280.089844 376.246094 C 269.320312 386.039062 259.03125 396.375 247.84375 405.730469 C 246.730469 406.664062 244.613281 407.738281 245.53125 409.121094 C 247.605469 412.011719 250.070312 407.339844 251.933594 406.402344 C 254.671875 404.917969 256.757812 399.96875 259.960938 402.300781 C 262.347656 404.039062 260.761719 408.648438 260.09375 411.867188 C 257.691406 424.175781 237.308594 424.109375 239.171875 410.5 C 237.285156 399.597656 250.71875 390.167969 245.339844 387.464844 C 235.234375 384.628906 238.210938 409.011719 229.839844 401.058594 C 227.214844 398.90625 223.304688 394.449219 220.859375 397.707031 C 218.152344 401.320312 224.046875 403.144531 226.515625 405.273438 C 230.183594 407.59375 236.90625 416.796875 232.15625 420.308594 C 225.402344 423.28125 223.355469 431.160156 216.769531 434.15625 C 213.453125 435.632812 208.832031 438.074219 206.554688 435.609375 C 204.050781 432.890625 208.976562 430.449219 210.578125 427.96875 C 219.507812 414.195312 217.980469 402.234375 205.425781 391.011719 C 180.828125 368.695312 221.070312 366.296875 224.214844 339.894531 Z M 171.921875 420.46875 C 170.894531 416.898438 166.085938 418.933594 167.488281 422.074219 C 171.828125 433.566406 180.195312 444.535156 162.105469 443.773438 C 119.167969 442.945312 155.640625 416.367188 148.734375 392.785156 C 147.15625 387.261719 149.972656 382.332031 155.109375 379.953125 C 161.964844 376.769531 166.828125 371.542969 171.839844 366.238281 C 189.34375 348.332031 183.542969 380.964844 206.277344 398.222656 C 217.59375 408.640625 210.890625 430.035156 195.886719 434.132812 C 185.878906 435.195312 185.894531 442.734375 182.699219 439.28125 C 177.285156 433.058594 190.464844 427.917969 188.820312 422.117188 C 181.882812 416.875 178.535156 441.375 171.921875 420.46875 Z M 136.953125 477.546875 C 144.835938 457.484375 164.011719 470.394531 178.054688 455.164062 C 186.65625 446.832031 185.8125 435.644531 201.632812 439.832031 C 224.230469 445.96875 226.390625 416.417969 245.683594 425.273438 C 255.164062 427.265625 258.8125 417.328125 260.042969 422 C 260.441406 423.511719 261.265625 453.730469 259.785156 458.625 C 259.042969 461.066406 257.378906 462.761719 253.9375 462.949219 C 215.445312 465.851562 177.640625 473.730469 139.835938 481.117188 C 135.890625 482.03125 135.6875 480.804688 136.953125 477.546875 Z M 164.8125 447.605469 C 164.761719 447.605469 164.730469 447.605469 164.703125 447.605469 C 164.746094 447.597656 164.78125 447.605469 164.8125 447.605469 Z M 608.039062 513.683594 C 521.621094 518.835938 429.019531 512.671875 341.386719 514.140625 C 253.214844 512.863281 161.042969 515.894531 74.84375 512.292969 C 248.15625 507.046875 434.578125 509.109375 608.039062 513.683594 Z M 413.21875 419.574219 C 403.375 419.644531 403.375 419.644531 403.46875 428.550781 C 403.5625 438.234375 403.5625 438.234375 410.871094 438.066406 C 420.273438 437.847656 421.320312 436.910156 421.269531 428.789062 C 421.210938 420.34375 420.503906 419.535156 413.21875 419.574219 Z M 412.367188 434.519531 C 407.972656 434.535156 407.507812 434.097656 407.507812 430.527344 C 407.507812 423.753906 407.507812 423.753906 413.269531 423.753906 C 417.105469 423.753906 417.8125 424.558594 417.820312 427.539062 C 417.847656 433.996094 417.871094 434.503906 412.367188 434.519531 Z M 373.371094 419.574219 C 363.53125 419.644531 363.53125 419.644531 363.625 428.550781 C 363.71875 438.234375 363.71875 438.234375 371.027344 438.066406 C 380.429688 437.847656 381.476562 436.910156 381.425781 428.789062 C 381.375 420.34375 380.667969 419.535156 373.371094 419.574219 Z M 372.519531 434.519531 C 368.128906 434.535156 367.664062 434.097656 367.664062 430.527344 C 367.664062 423.753906 367.664062 423.753906 373.421875 423.753906 C 377.261719 423.753906 377.96875 424.558594 377.976562 427.539062 C 378 433.996094 378.027344 434.503906 372.519531 434.519531 Z M 182.714844 286.542969 C 183.820312 292.445312 192.886719 294.34375 196.808594 290.097656 C 199.371094 303.625 218.480469 304.222656 224.027344 292.496094 C 230.597656 304.492188 251.765625 300.339844 252.996094 286.59375 C 271.421875 294.261719 287.804688 269.640625 271.691406 259.574219 C 267.792969 257.210938 263.570312 258.039062 259.648438 259.660156 C 258.238281 253.792969 250.195312 249.898438 245.015625 253.640625 C 243.644531 239.953125 224.492188 235.917969 216.777344 246.765625 C 203.648438 232.328125 181.679688 240.433594 180.421875 259.777344 C 154.136719 258.605469 154.796875 300.464844 182.714844 286.542969 Z M 183.128906 264.96875 C 186.476562 266.320312 187.226562 261.601562 184.65625 260.46875 C 184.65625 248.429688 197.835938 239.09375 208.679688 245.828125 C 214.457031 247.628906 213.292969 252.574219 216.167969 252.695312 C 217.070312 252.964844 218.203125 252.644531 218.632812 251.757812 C 225.074219 239.320312 242.191406 244.328125 241.171875 258.265625 C 241.148438 261.507812 245.09375 260.800781 246.222656 258.546875 C 246.6875 257.777344 247.292969 257.035156 248.15625 256.703125 C 251.105469 255.488281 256.082031 258.183594 255.398438 261.660156 C 254 263.578125 256.511719 265.890625 258.511719 264.84375 C 261.460938 263.339844 265.238281 261.375 268.59375 262.734375 C 273.789062 264.808594 275.433594 270.40625 272.683594 275.171875 C 270.980469 282.945312 259.589844 286.207031 253.519531 281.824219 C 251.839844 280.246094 248.332031 281.949219 248.871094 284.253906 C 249.960938 293.789062 236.457031 298.675781 229.804688 293.019531 C 227.671875 291.203125 226.472656 288.585938 226.667969 285.785156 C 226.777344 283.496094 223.253906 282.886719 222.613281 285.074219 C 218.582031 302.113281 197.660156 299.714844 201.511719 283.570312 C 202.238281 280.523438 198.046875 279.613281 195.578125 283.925781 C 194.640625 285.5625 194.335938 287.691406 192.1875 288.128906 C 189.042969 288.652344 185.691406 286.667969 186.839844 283.15625 C 187.414062 280.851562 184.328125 279.5 183.003906 281.460938 C 158.363281 297.679688 161.457031 257.53125 183.128906 264.96875 Z M 294.40625 225.136719 C 300.242188 240.664062 324.960938 234.878906 332.058594 223.183594 C 336.335938 237.308594 363.1875 237.96875 367.546875 223.617188 C 380.828125 232.539062 400.164062 217.359375 394.234375 202.261719 C 392.792969 198.480469 389.824219 195.109375 385.734375 194.496094 C 388.710938 176.824219 363.40625 167.6875 353.808594 182.402344 C 344.742188 169.738281 323.8125 171.808594 317.472656 186.066406 C 314.097656 183.535156 308.753906 184 306.148438 187.410156 C 295.03125 169.460938 270.570312 187.5625 279.507812 204.710938 C 260.070312 213.878906 278.4375 237.371094 294.40625 225.136719 Z M 276.144531 212.800781 C 278.066406 208.148438 281.988281 209.386719 284.625 207.101562 C 286.339844 206.324219 286.015625 203.15625 283.683594 203.054688 C 277.238281 194.148438 288.5625 179.523438 298.742188 185.613281 C 303.363281 187.425781 302.132812 193.710938 306.148438 194.613281 C 307.371094 194.613281 308.152344 193.640625 308.253906 192.503906 C 308.609375 188.296875 314.546875 187.242188 316.375 191.023438 C 317.269531 192.644531 319.730469 192.222656 320.230469 190.519531 C 323.027344 180.132812 335.957031 174.636719 345.207031 180.367188 C 348.902344 181.542969 350.964844 187.648438 353.65625 187.679688 C 357.519531 189.261719 357.890625 175.800781 372.949219 179.914062 C 381.6875 183.511719 381.46875 189.300781 381.441406 193.277344 C 381.425781 195.390625 383.847656 198.574219 384.738281 198.605469 C 390.683594 199.476562 392.058594 207.503906 390.296875 212.328125 C 387.582031 220.542969 376.128906 225.195312 369.054688 219.554688 C 368.261719 218.886719 363.765625 219.816406 363.691406 221.351562 C 361.972656 233.976562 333.804688 232.183594 336.199219 218.589844 C 336.882812 216.429688 330.316406 214.714844 329.511719 217.613281 C 326.226562 229.457031 300.480469 236.9375 297.839844 221.917969 C 296.171875 215.804688 289.046875 225.625 284.566406 224.265625 C 278.640625 224.664062 273.445312 218.457031 276.144531 212.800781 Z M 469.328125 250.472656 C 469.285156 250.480469 469.210938 250.449219 469.167969 250.414062 C 469.226562 250.449219 469.277344 250.457031 469.328125 250.472656 Z M 415.484375 280.101562 C 418.058594 284.59375 425.699219 286.585938 428.648438 281.496094 C 437.335938 293.0625 454.671875 287.734375 460.171875 275.769531 C 467.441406 286.519531 487.5 288.765625 495.378906 277.382812 C 514.816406 287.261719 532.683594 267.316406 516.148438 251.664062 C 512.960938 249.332031 508.792969 248.355469 504.914062 249.132812 C 508.378906 222.367188 469.101562 219.578125 469.84375 246.242188 C 467.320312 245.652344 464.664062 246.785156 462.917969 248.609375 C 459.097656 238.425781 444.832031 237.496094 437.265625 244.4375 C 430.160156 227.625 401.308594 236.914062 398.753906 252.59375 C 378.742188 251.03125 385.085938 294.058594 415.484375 280.101562 Z M 399.183594 257.488281 C 401.257812 259.390625 403.097656 256.804688 402.863281 254.832031 C 402.792969 241.167969 431.289062 232.175781 434.316406 248.675781 C 435.140625 255.109375 436.464844 253.25 438.660156 249.214844 C 443.691406 242.03125 457.09375 242.351562 459.429688 252.464844 C 460.28125 256.140625 465.40625 252.171875 465.703125 251.757812 C 465.652344 251.824219 465.601562 251.882812 465.550781 251.949219 C 466.335938 250.894531 467.8125 249.96875 469.160156 250.421875 C 469.007812 250.3125 469.277344 250.464844 469.34375 250.472656 C 469.335938 250.472656 469.328125 250.472656 469.320312 250.472656 C 470.265625 251.117188 470.828125 252.425781 472.273438 252.222656 C 478.875 251.308594 467.371094 240.316406 481.203125 233.039062 C 492.914062 227.558594 502.949219 238.441406 500.613281 250.167969 C 500.511719 251.191406 503.617188 253.867188 504.832031 253.496094 C 514.367188 250.609375 521.390625 262.320312 516.839844 270.316406 C 512.730469 278.34375 502.496094 274.898438 495.925781 274.039062 C 492.214844 270.214844 490.015625 282.820312 477.753906 280.558594 C 460.171875 278.96875 465.105469 270.730469 459.359375 270.832031 C 456.265625 271.53125 457.210938 279.179688 445.640625 283.214844 C 440.925781 285.511719 433.675781 282.480469 431.652344 277.828125 C 431.441406 276.714844 428.378906 275.320312 426.910156 276.832031 C 425.839844 277.941406 425.140625 279.949219 423.640625 280.277344 C 421.945312 280.507812 418.570312 278.75 418.851562 276.511719 C 419.113281 274.375 417.136719 273.710938 414.902344 275.558594 C 387.648438 289.640625 386.839844 251.351562 399.183594 257.488281 Z M 399.183594 257.488281 " fill-opacity="1" fill-rule="nonzero"/></g></svg>