<svg xmlns="http://www.w3.org/2000/svg" xmlns:xlink="http://www.w3.org/1999/xlink" width="940" zoomAndPan="magnify" viewBox="0 0 705 591.000005" height="788" preserveAspectRatio="xMidYMid meet" version="1.0"><defs><clipPath id="1682ae687a"><path d="M 0.59375 295 L 7 295 L 7 301 L 0.59375 301 Z M 0.59375 295 " clip-rule="nonzero"/></clipPath><clipPath id="1272c51453"><path d="M 0.59375 276 L 704.402344 276 L 704.402344 418 L 0.59375 418 Z M 0.59375 276 " clip-rule="nonzero"/></clipPath></defs><path fill="#000000" d="M 205.558594 257.820312 C 208.820312 254.347656 211.832031 256.964844 215.445312 257.117188 C 218.992188 257.265625 222.507812 256.378906 226.039062 256.410156 C 231.011719 256.453125 235.796875 257.710938 240.867188 257.820312 C 248.464844 257.992188 256.253906 256.25 264.175781 257.117188 C 265.398438 257.25 267.09375 258.464844 268.410156 258.527344 C 274.53125 258.828125 281.089844 257.160156 287.480469 257.820312 C 303.480469 259.484375 322.480469 257.355469 336.914062 259.234375 C 338.421875 259.429688 340.21875 260.515625 341.859375 260.648438 C 351.964844 261.457031 362.03125 259.023438 371.519531 259.941406 C 373.292969 260.113281 375.429688 261.285156 377.167969 261.351562 C 384.542969 261.636719 391.738281 260.378906 399.0625 260.648438 C 425.191406 261.605469 450.863281 259.707031 476.039062 263.472656 C 477.886719 263.273438 479.078125 263.726562 478.863281 265.589844 C 482.71875 262.792969 489.609375 260.84375 495.8125 261.351562 C 498.667969 261.589844 501.191406 264.773438 503.582031 262.765625 C 505.359375 264.285156 506.324219 266.613281 508.523438 267.707031 C 511.28125 266.929688 515.101562 267.222656 517.707031 266.292969 C 518.234375 264.121094 515.269531 265.433594 516.292969 262.765625 C 521.824219 264.164062 526.785156 262.417969 530.417969 264.882812 C 529.460938 269.261719 524.34375 265.355469 521.234375 267 C 518.640625 267.464844 517.71875 269.605469 516.292969 271.238281 C 513.433594 268.8125 510.097656 268.894531 507.820312 271.941406 C 505.144531 271.082031 505.375 267.324219 503.582031 265.589844 C 494.050781 262.226562 475.96875 263.902344 477.453125 275.472656 C 472.878906 269.660156 464.277344 271.679688 459.089844 275.472656 C 462.078125 270.546875 457.613281 272.746094 456.265625 269.117188 C 461.136719 268.414062 473.941406 271.542969 477.453125 267.707031 C 477.585938 267.132812 478.160156 267.003906 478.160156 266.292969 C 470.339844 267.273438 463.398438 263.972656 455.558594 263.472656 C 445.027344 262.796875 433.835938 264.820312 423.074219 264.175781 C 421.449219 264.082031 419.925781 262.976562 418.132812 262.765625 C 415.925781 262.503906 413.601562 263.527344 411.066406 263.472656 C 408.589844 263.414062 406.121094 262.113281 404.007812 262.058594 C 400.671875 261.972656 397.519531 263.363281 394.117188 263.472656 C 378.683594 263.957031 360.527344 262.214844 345.390625 262.058594 C 333.949219 261.9375 321.644531 260.511719 307.960938 261.351562 C 296.664062 262.046875 283.332031 259.007812 271.941406 259.941406 C 270.925781 260.023438 268.796875 260.710938 267.703125 260.648438 C 265.902344 260.539062 263.933594 259.285156 262.054688 259.234375 C 243.253906 258.726562 224.414062 260.957031 205.558594 257.820312 Z M 205.558594 257.820312 " fill-opacity="1" fill-rule="evenodd"/><path fill="#000000" d="M 105.980469 300.179688 C 103.257812 298.648438 102.429688 293.121094 103.859375 289.589844 C 101.519531 284.402344 99.058594 279.328125 98.917969 271.941406 C 97.941406 269.148438 94.179688 269.144531 93.976562 265.585938 C 88.035156 263.425781 80.441406 264.316406 75.613281 267 C 68.628906 271.597656 67.5 280.222656 62.195312 286.058594 C 59.492188 289.03125 54.308594 291.898438 50.1875 294.53125 C 45.984375 297.21875 42.066406 300.554688 38.183594 303 C 35.222656 304.867188 31.203125 305.765625 28.296875 307.941406 C 24.445312 310.828125 18.195312 316.847656 12.054688 317.824219 C 11.804688 314.535156 15.785156 314.242188 17.703125 312.882812 C 23.292969 308.921875 29.335938 303.25 36.769531 300.179688 C 44.496094 293.78125 55.054688 290.21875 60.78125 281.824219 C 57.640625 275.515625 46.410156 278.945312 40.300781 281.824219 C 38.21875 282.804688 36.710938 284.960938 34.652344 286.058594 C 33.257812 286.804688 31.378906 286.695312 29.710938 287.472656 C 24.5625 289.859375 15.855469 295.363281 8.523438 294.53125 C 11.757812 291.175781 16.347656 289.175781 22.648438 288.882812 C 26.136719 287.191406 28.410156 284.289062 33.242188 283.945312 C 39.050781 278.691406 46.832031 275.410156 57.960938 275.472656 C 59.339844 276.445312 61.679688 276.460938 62.195312 278.296875 C 66.714844 274.703125 67.464844 269.585938 71.375 266.296875 C 75.09375 263.171875 79.351562 263.175781 84.089844 262.058594 C 88.074219 261.121094 88.152344 259.996094 92.5625 262.058594 C 94.183594 262.816406 99.773438 266.574219 101.039062 269.121094 C 102.359375 271.78125 101.574219 275.085938 102.449219 278.296875 C 104.042969 284.125 109.347656 290.789062 105.980469 300.179688 Z M 105.980469 300.179688 " fill-opacity="1" fill-rule="evenodd"/><path fill="#000000" d="M 453.441406 269.117188 C 452.464844 271.578125 449.820312 270.273438 447.789062 270.53125 C 438.261719 271.742188 427.910156 272.148438 415.304688 271.941406 C 411.84375 271.886719 408.292969 270.070312 404.710938 269.824219 C 400.722656 269.550781 396.847656 271.132812 392.707031 271.234375 C 391.015625 271.277344 388.878906 269.953125 387.054688 269.824219 C 383.625 269.578125 380.226562 270.789062 377.167969 270.53125 C 374.769531 270.328125 372.441406 269.160156 370.105469 269.117188 C 367.085938 269.058594 363.949219 270.316406 360.925781 270.53125 C 343.910156 271.726562 325.695312 267.546875 308.664062 268.410156 C 314.851562 265.433594 325.921875 266.730469 334.792969 267 C 340.132812 267.160156 345.839844 267.40625 351.035156 267.707031 C 352.898438 267.8125 354.234375 268.917969 355.980469 269.117188 C 360.621094 269.65625 364.71875 267.714844 369.398438 267.707031 C 373.976562 267.695312 379.488281 267.574219 384.9375 267.707031 C 388.648438 267.796875 392.027344 269.121094 395.527344 269.117188 C 398.011719 269.117188 400.859375 267.714844 403.296875 267.707031 C 406.09375 267.699219 408.96875 268.832031 411.769531 269.117188 C 419.703125 269.929688 429.414062 270.285156 437.195312 269.824219 C 438.804688 269.730469 440.523438 268.433594 442.136719 268.410156 C 446.074219 268.355469 449.613281 270.496094 453.441406 269.117188 Z M 453.441406 269.117188 " fill-opacity="1" fill-rule="evenodd"/><path fill="#000000" d="M 339.03125 276.175781 C 328.304688 278.113281 317.417969 276.007812 305.132812 276.175781 C 285.898438 276.445312 265.28125 269.550781 245.8125 272.648438 C 246.53125 271.230469 249.578125 270.050781 250.753906 269.824219 C 256.609375 268.699219 263.019531 271.003906 268.410156 271.234375 C 270.796875 271.339844 273.085938 270.546875 275.472656 270.53125 C 283.085938 270.46875 290.480469 273.492188 298.777344 273.351562 C 306.496094 273.222656 316.832031 273.0625 325.613281 275.472656 C 329.164062 274.304688 336.703125 272.644531 339.03125 276.175781 Z M 339.03125 276.175781 " fill-opacity="1" fill-rule="evenodd"/><path fill="#000000" d="M 460.5 278.296875 C 457.382812 281.53125 450.105469 280.609375 449.910156 286.765625 C 449.390625 290.8125 455.0625 288.675781 454.851562 292.414062 C 449.183594 293.609375 448.878906 289.441406 447.789062 286.0625 C 425.019531 284.359375 410.066406 284.769531 386.347656 283.941406 C 390.128906 279.230469 403.476562 282.535156 408.945312 283.238281 C 411.667969 283.585938 414.375 281.808594 417.417969 281.824219 C 420.195312 281.839844 422.628906 283.324219 425.1875 283.238281 C 428.320312 283.128906 431.460938 281.660156 435.078125 281.824219 C 440.65625 282.078125 448.417969 286.292969 451.320312 279.707031 C 439.382812 278.238281 427.210938 277.347656 414.597656 277.589844 C 412.550781 277.628906 410.269531 278.351562 408.238281 278.296875 C 405.414062 278.214844 402.59375 276.984375 399.765625 276.882812 C 396.175781 276.753906 392.710938 278.363281 389.171875 278.296875 C 386.664062 278.246094 383.550781 276.8125 381.402344 276.882812 C 372.375 277.179688 363.277344 278.195312 353.863281 277.589844 C 350.9375 277.402344 347.261719 278.152344 345.386719 274.765625 C 354.058594 274.898438 364.160156 276.234375 374.34375 275.46875 C 376.917969 275.277344 379.578125 273.949219 382.113281 274.058594 C 384.746094 274.171875 387.25 276.035156 389.878906 276.175781 C 393.0625 276.34375 396.460938 274.851562 399.765625 274.765625 C 407.425781 274.554688 415.542969 276.175781 423.074219 276.175781 C 435.867188 276.175781 447.917969 275.542969 460.5 278.296875 Z M 460.5 278.296875 " fill-opacity="1" fill-rule="evenodd"/><path fill="#000000" d="M 460.5 290.296875 C 460.695312 293.078125 457.480469 292.453125 457.675781 295.234375 C 458.882812 300.03125 466.511719 299.328125 469.683594 300.179688 C 465.265625 303.78125 456.292969 300.632812 454.851562 296.648438 C 455.898438 293.695312 456.042969 289.839844 460.5 290.296875 Z M 460.5 290.296875 " fill-opacity="1" fill-rule="evenodd"/><path fill="#000000" d="M 473.917969 292.414062 L 476.039062 292.414062 C 475.8125 294.070312 474.921875 295.0625 475.332031 297.355469 C 475.386719 299.886719 479.949219 297.914062 480.984375 299.472656 C 480.828125 302.054688 480.011719 302.179688 480.984375 304.414062 C 487.238281 304.042969 492.976562 304.191406 495.8125 307.238281 C 501.492188 307.265625 503.34375 303.46875 507.820312 302.296875 C 506.132812 307.882812 496 312.359375 490.871094 307.945312 C 478.371094 310.054688 465.070312 308.058594 452.027344 307.945312 C 453.816406 305.109375 458.960938 305.121094 462.621094 305.121094 C 468.109375 305.121094 474.722656 306.800781 479.570312 307.238281 C 478.128906 304.679688 477.644531 301.164062 473.917969 300.886719 C 472.363281 297.976562 472.363281 295.316406 473.917969 292.414062 Z M 473.917969 292.414062 " fill-opacity="1" fill-rule="evenodd"/><g clip-path="url(#1682ae687a)"><path fill="#000000" d="M 6.402344 295.234375 C 4.367188 298.613281 -0.820312 298.839844 -4.898438 300.179688 L -4.898438 296.648438 C -0.257812 297.050781 1.9375 295.007812 6.402344 295.234375 Z M 6.402344 295.234375 " fill-opacity="1" fill-rule="evenodd"/></g><path fill="#000000" d="M 632.820312 300.179688 C 632.480469 305.132812 622.136719 306.917969 619.402344 303 C 621.511719 300.949219 629.699219 304.910156 631.40625 299.472656 C 632.226562 299.359375 632.664062 299.628906 632.820312 300.179688 Z M 632.820312 300.179688 " fill-opacity="1" fill-rule="evenodd"/><path fill="#000000" d="M 690.730469 308.648438 C 691.871094 308.449219 691.945312 309.316406 692.847656 309.355469 C 691.414062 319.648438 696.960938 325.511719 700.617188 332.648438 C 695.789062 332.308594 690.652344 321.390625 690.023438 315.003906 C 689.800781 312.75 689.757812 310.589844 690.730469 308.648438 Z M 690.730469 308.648438 " fill-opacity="1" fill-rule="evenodd"/><path fill="#000000" d="M 348.917969 317.121094 C 345.414062 319.753906 341.355469 318.539062 337.621094 319.238281 C 333.980469 319.917969 330.492188 322.183594 325.613281 321.355469 C 331.144531 317.457031 340.5625 316.160156 348.917969 317.121094 Z M 348.917969 317.121094 " fill-opacity="1" fill-rule="evenodd"/><path fill="#000000" d="M 580.558594 319.945312 C 578.632812 319.878906 579.136719 321.121094 577.734375 319.945312 C 577.175781 317.226562 581.117188 317.226562 580.558594 319.945312 Z M 580.558594 319.945312 " fill-opacity="1" fill-rule="evenodd"/><path fill="#000000" d="M 553.714844 319.238281 L 555.835938 319.238281 C 550.878906 334.992188 543.664062 348.484375 532.53125 358.0625 C 535.832031 351.832031 540.152344 346.429688 543.828125 340.417969 C 547.480469 334.445312 550.699219 328.1875 553.714844 321.355469 Z M 553.714844 319.238281 " fill-opacity="1" fill-rule="evenodd"/><path fill="#000000" d="M 596.800781 333.355469 C 599.457031 333.445312 598.683594 340.996094 596.097656 340.417969 C 596.375 336.648438 594.90625 335.5 596.800781 333.355469 Z M 596.800781 333.355469 " fill-opacity="1" fill-rule="evenodd"/><path fill="#000000" d="M 397.652344 334.0625 C 391.296875 336.992188 387.148438 337.167969 380.703125 337.59375 C 384.867188 334.929688 391.523438 334.761719 397.652344 334.0625 Z M 397.652344 334.0625 " fill-opacity="1" fill-rule="evenodd"/><path fill="#000000" d="M 262.761719 336.886719 C 259.003906 338.308594 252.757812 337.238281 248.636719 338.296875 C 250.988281 333.832031 258.210938 336.363281 262.761719 336.886719 Z M 262.761719 336.886719 " fill-opacity="1" fill-rule="evenodd"/><path fill="#000000" d="M 657.535156 339.003906 L 659.65625 339.003906 C 659.226562 340.691406 660.542969 344.125 658.949219 344.652344 C 656.164062 345.082031 658.121094 340.773438 657.535156 339.003906 Z M 657.535156 339.003906 " fill-opacity="1" fill-rule="evenodd"/><path fill="#000000" d="M 616.574219 349.59375 C 618.710938 351.496094 614.25 357.75 611.632812 359.476562 C 611.597656 354.5 615.570312 353.53125 616.574219 349.59375 Z M 616.574219 349.59375 " fill-opacity="1" fill-rule="evenodd"/><path fill="#000000" d="M 613.039062 350.296875 C 610.089844 353.707031 608.464844 358.4375 605.269531 361.59375 C 605.1875 357.972656 607.945312 351.097656 613.039062 350.296875 Z M 613.039062 350.296875 " fill-opacity="1" fill-rule="evenodd"/><path fill="#000000" d="M 601.746094 351.003906 C 602.886719 350.804688 602.960938 351.671875 603.863281 351.710938 C 601.953125 354.039062 601.546875 357.863281 597.507812 358.0625 C 598.101562 354.894531 600.835938 353.859375 601.746094 351.003906 Z M 601.746094 351.003906 " fill-opacity="1" fill-rule="evenodd"/><path fill="#000000" d="M 422.367188 355.945312 C 419.050781 357.859375 414.972656 355.578125 411.773438 356.652344 C 414.375 354.257812 420.164062 355.59375 422.367188 355.945312 Z M 422.367188 355.945312 " fill-opacity="1" fill-rule="evenodd"/><path fill="#000000" d="M 411.066406 355.945312 C 411.347656 358.582031 406.65625 356.242188 406.125 358.0625 C 403.910156 356.257812 409.644531 356.453125 411.066406 355.945312 Z M 411.066406 355.945312 " fill-opacity="1" fill-rule="evenodd"/><path fill="#000000" d="M 531.125 360.183594 C 531.625 363.648438 527.886719 362.871094 529.710938 365.828125 C 527.464844 365.9375 526.605469 367.429688 524.0625 367.242188 C 525.269531 363.742188 528.066406 361.832031 531.125 360.183594 Z M 531.125 360.183594 " fill-opacity="1" fill-rule="evenodd"/><path fill="#000000" d="M 383.523438 367.945312 C 378.367188 368.097656 373.851562 365.800781 369.398438 365.125 C 366.851562 364.734375 363.058594 366.984375 361.632812 363.710938 C 367.078125 362.492188 374.800781 363.214844 379.992188 365.125 C 381.179688 365.558594 383.375 366.71875 383.523438 367.945312 Z M 383.523438 367.945312 " fill-opacity="1" fill-rule="evenodd"/><path fill="#000000" d="M 155.414062 363.710938 C 156.1875 367.070312 153.117188 366.59375 150.472656 366.535156 C 151.371094 364.84375 152.773438 363.660156 155.414062 363.710938 Z M 155.414062 363.710938 " fill-opacity="1" fill-rule="evenodd"/><path fill="#000000" d="M 161.066406 369.359375 C 157.042969 370.28125 154.40625 372.585938 149.058594 372.179688 C 150.859375 369.550781 158.265625 364.324219 161.066406 369.359375 Z M 161.066406 369.359375 " fill-opacity="1" fill-rule="evenodd"/><path fill="#000000" d="M 162.476562 372.886719 C 162.757812 374.644531 158.066406 374.976562 157.535156 373.59375 C 156.957031 370.953125 161.886719 372.289062 162.476562 372.886719 Z M 162.476562 372.886719 " fill-opacity="1" fill-rule="evenodd"/><path fill="#000000" d="M 56.542969 375.710938 C 52.230469 375.167969 49.9375 376.636719 45.949219 376.417969 C 46.351562 373.496094 56.898438 370.605469 56.542969 375.710938 Z M 56.542969 375.710938 " fill-opacity="1" fill-rule="evenodd"/><path fill="#000000" d="M 368.691406 375.710938 C 366.09375 376.808594 361.882812 377.875 359.511719 377.125 C 359.828125 373.351562 366.613281 373.757812 368.691406 375.710938 Z M 368.691406 375.710938 " fill-opacity="1" fill-rule="evenodd"/><path fill="#000000" d="M 60.074219 381.359375 C 56.207031 379.5 50.449219 382.011719 47.363281 380.652344 C 49.488281 378.035156 59.824219 375.925781 60.074219 381.359375 Z M 60.074219 381.359375 " fill-opacity="1" fill-rule="evenodd"/><path fill="#000000" d="M 345.386719 379.242188 C 345.109375 383.140625 338.738281 381.71875 335.503906 381.359375 C 333.476562 383.332031 330.632812 384.492188 329.144531 387.003906 C 327.507812 386.808594 327.523438 385.121094 328.441406 384.183594 C 309.195312 384.71875 292.558594 383.5625 276.179688 387.003906 C 275.996094 385.539062 273.078125 386.8125 272.648438 385.59375 C 274.460938 382.914062 277.894531 384.457031 280.417969 384.183594 C 293.820312 382.722656 314.265625 381.582031 329.851562 382.0625 C 333.375 379.835938 339.589844 376.882812 345.386719 379.242188 Z M 345.386719 379.242188 " fill-opacity="1" fill-rule="evenodd"/><path fill="#000000" d="M 186.488281 382.066406 C 183.804688 381.921875 181.464844 381.441406 179.425781 380.652344 C 179.832031 378.46875 187.925781 378.015625 186.488281 382.066406 Z M 186.488281 382.066406 " fill-opacity="1" fill-rule="evenodd"/><path fill="#000000" d="M 61.488281 385.597656 C 59.550781 386.4375 56.988281 383.910156 54.425781 386.300781 C 54.726562 387.644531 55.945312 388.074219 55.835938 389.832031 C 58.410156 389.613281 60.433594 389.941406 62.191406 390.535156 C 60.445312 394.957031 60.167969 401.800781 60.074219 408.183594 C 59.988281 414.011719 62.550781 419.445312 54.425781 420.183594 C 52.277344 410.765625 58.371094 396.332031 50.894531 389.832031 C 48.890625 389.949219 47.949219 391.125 45.949219 391.242188 C 43.804688 389.691406 40.945312 387.273438 42.417969 384.183594 C 45.085938 384.8125 44.0625 389.125 48.070312 388.417969 C 50.273438 388.742188 50.324219 386.910156 50.1875 384.890625 C 53.09375 384.320312 60.753906 379.746094 61.488281 385.597656 Z M 57.25 412.417969 C 57.800781 407.382812 61.074219 395.976562 56.542969 392.652344 C 58.917969 399.285156 55.316406 405.347656 57.25 412.417969 Z M 57.25 412.417969 " fill-opacity="1" fill-rule="evenodd"/><path fill="#000000" d="M 347.507812 387.003906 C 349.167969 389.019531 345.425781 390.152344 345.386719 392.652344 C 348.664062 392.542969 354.957031 385.863281 359.511719 387.003906 C 357.914062 390.347656 352.371094 389.75 351.039062 393.359375 C 355.152344 395.679688 359.335938 388.664062 363.042969 390.535156 C 361.476562 394.617188 354.347656 393.140625 351.746094 396.183594 C 350.277344 399.183594 353.273438 400.765625 351.746094 403.242188 C 348.535156 403.15625 350.558594 397.84375 345.386719 399.714844 C 345.417969 397.15625 350.402344 399.546875 349.625 396.183594 C 345.226562 393.921875 340.078125 396.976562 339.738281 401.125 C 336.304688 400.558594 328.683594 398.246094 334.089844 394.769531 C 333.410156 397.8125 338.554688 397.160156 339.738281 396.183594 C 342.675781 393.472656 343.035156 388.183594 347.507812 387.003906 Z M 347.507812 387.003906 " fill-opacity="1" fill-rule="evenodd"/><path fill="#000000" d="M 181.546875 389.125 C 181.492188 391.898438 179.792969 393.019531 178.71875 394.769531 C 177.324219 401.179688 176.394531 409.257812 175.1875 413.832031 C 170.125 409.273438 179.484375 398.617188 174.484375 396.183594 C 172.183594 400.035156 175.183594 412.675781 170.246094 415.949219 C 168.96875 411.804688 171.519531 407.402344 170.949219 403.242188 C 170.394531 399.167969 166.304688 396.214844 166.714844 391.949219 C 169.945312 391.09375 172.914062 393 176.597656 394.769531 C 177.777344 393.828125 177.695312 391.632812 178.71875 390.535156 C 175.578125 390.851562 173.570312 390.03125 171.65625 389.125 C 172.691406 386.589844 180.359375 387.355469 181.546875 389.125 Z M 181.546875 389.125 " fill-opacity="1" fill-rule="evenodd"/><path fill="#000000" d="M 342.5625 387.710938 C 341.308594 390.460938 339.761719 392.910156 336.207031 393.359375 C 337.335938 390.488281 339.71875 388.867188 342.5625 387.710938 Z M 342.5625 387.710938 " fill-opacity="1" fill-rule="evenodd"/><path fill="#000000" d="M 592.566406 397.597656 C 597.285156 398.90625 612.246094 398.792969 608.808594 408.183594 C 626.601562 409.097656 633.058594 408.1875 651.886719 410.300781 C 650.117188 406.945312 654.167969 400.824219 658.949219 399.714844 C 662.960938 401.945312 664.753906 400.035156 669.542969 399.714844 C 671.339844 399.800781 672.28125 400.742188 672.367188 402.535156 C 674.6875 401.578125 677.476562 400.332031 680.84375 400.417969 C 682.496094 400.460938 681.5625 401.617188 682.253906 401.832031 C 688.40625 403.710938 699.734375 400.953125 697.792969 409.597656 C 694.789062 411.242188 693.828125 407.746094 692.851562 405.359375 C 689.757812 404.472656 686.054688 404.472656 682.960938 405.359375 C 680.386719 402.398438 675.546875 403.472656 671.664062 404.65625 C 669.394531 405.277344 670.695312 402.328125 668.839844 402.539062 C 665.25 402.011719 663.421875 403.242188 662.484375 405.359375 C 658.855469 400.324219 652.410156 405.507812 654.007812 410.300781 C 661.710938 412.042969 674.289062 408.210938 681.550781 413.125 C 679.246094 416.953125 676.988281 413.421875 674.488281 413.125 C 662.207031 411.660156 647.28125 412.960938 633.527344 411.710938 C 620.273438 410.507812 598.953125 411.628906 582.679688 410.300781 C 584.101562 411.699219 588.121094 410.511719 587.621094 413.832031 C 562.101562 412.9375 536.683594 411.265625 510.640625 415.949219 C 485.59375 411.695312 458.085938 418.90625 441.433594 415.949219 C 442.414062 409.632812 451.128906 415.457031 452.734375 412.417969 C 454.296875 412.03125 453.738281 413.765625 454.851562 413.832031 C 457.507812 414.367188 455.339844 410.082031 458.382812 411.007812 C 458.082031 412.484375 458.867188 412.875 459.089844 413.832031 C 459.492188 412.640625 462.058594 408.671875 461.914062 413.125 C 463.34375 412.675781 462.375 409.824219 464.03125 409.59375 C 466.402344 408.871094 465.128906 411.789062 465.445312 413.125 C 468.695312 410.367188 468.832031 411.960938 472.507812 413.125 C 474.507812 413.242188 471.921875 408.773438 473.917969 408.890625 C 476.0625 408.867188 475.679688 411.367188 476.039062 413.125 C 479.355469 411.445312 481.804688 411.285156 483.101562 408.890625 C 484.644531 408.992188 484.617188 410.667969 484.511719 412.417969 C 488.066406 412.914062 490.402344 412.1875 491.578125 410.300781 C 493.085938 409.972656 492.921875 411.308594 492.988281 412.417969 C 495.402344 412.949219 493.886719 409.550781 496.523438 410.300781 C 496.492188 411.507812 497.046875 412.128906 497.933594 412.417969 C 504.296875 412.570312 513.855469 412.460938 517.003906 411.714844 C 518.441406 411.269531 517.203125 408.148438 519.828125 408.890625 C 519.601562 410.527344 519.941406 411.601562 520.535156 412.421875 C 524.5 413.089844 521.882812 407.179688 525.476562 407.480469 L 525.476562 412.421875 C 529.183594 412.832031 527.765625 408.117188 529.007812 406.066406 C 530.777344 407.359375 529.1875 412.003906 532.539062 411.714844 C 534.539062 410.761719 530.277344 405.699219 534.65625 406.066406 C 534.648438 407.941406 534.925781 410.097656 533.949219 411.007812 C 538.480469 410.445312 546.953125 412.355469 550.195312 408.1875 C 549.386719 410.40625 551.304688 409.902344 551.609375 411.007812 C 553.359375 410.640625 554.125 409.289062 555.136719 408.1875 C 558.261719 408.078125 554.804688 410.179688 556.550781 411.007812 C 560.632812 410.109375 562.964844 411.808594 564.320312 408.1875 C 572.8125 409.125 586.515625 407.457031 596.804688 408.1875 C 600.894531 408.472656 604.761719 409.652344 607.398438 406.066406 C 604.941406 399.726562 595.269531 402.195312 589.742188 400.421875 C 587.90625 397.453125 590.875 397.457031 591.15625 394.773438 C 591.253906 389.640625 580.371094 391.113281 579.855469 395.476562 C 580.644531 397.28125 585.316406 395.195312 586.210938 396.890625 C 585.109375 400.605469 576.867188 399.347656 576.324219 396.183594 C 576.574219 385.699219 596.578125 385.75 592.566406 397.597656 Z M 592.566406 397.597656 " fill-opacity="1" fill-rule="evenodd"/><path fill="#000000" d="M 624.347656 389.125 C 626.269531 388.902344 627.226562 393.226562 625.757812 394.0625 C 624.0625 393.578125 621.65625 389.75 624.347656 389.125 Z M 624.347656 389.125 " fill-opacity="1" fill-rule="evenodd"/><path fill="#000000" d="M 569.261719 392.652344 C 568.632812 396.339844 569.878906 398.152344 573.496094 397.59375 C 573.097656 399.316406 572.894531 401.226562 570.671875 401.125 C 568.722656 399.074219 566.085938 397.707031 566.433594 393.359375 C 562 392.144531 558.988281 393.65625 556.546875 396.183594 C 556.554688 398.539062 559.949219 399.632812 557.960938 401.828125 C 553.675781 401.007812 551.71875 398.546875 547.367188 401.125 C 546.574219 403.15625 545.882812 405.289062 544.542969 406.773438 C 540.96875 406.109375 539.214844 403.628906 536.070312 402.535156 C 532.882812 402.644531 531.949219 405.003906 529.007812 405.359375 C 527.382812 399.472656 518.148438 403.613281 516.296875 406.066406 C 514.460938 400.523438 527.140625 398.402344 530.421875 401.828125 C 533.972656 398.886719 540.550781 400.988281 543.132812 403.242188 C 544.527344 402.753906 545.015625 401.359375 545.25 399.710938 C 548.015625 398.710938 550.632812 397.5625 553.722656 396.890625 C 556.398438 391.972656 564.480469 387.574219 569.261719 392.652344 Z M 569.261719 392.652344 " fill-opacity="1" fill-rule="evenodd"/><path fill="#000000" d="M 618.695312 391.242188 C 622.039062 390.265625 622.96875 393.824219 621.519531 395.476562 C 618.519531 396.125 618.503906 393.785156 618.695312 391.242188 Z M 618.695312 391.242188 " fill-opacity="1" fill-rule="evenodd"/><path fill="#000000" d="M 261.347656 395.476562 C 264.496094 396.328125 267.5625 397.265625 268.410156 400.417969 C 265.5 402.199219 258.589844 399.363281 261.347656 395.476562 Z M 261.347656 395.476562 " fill-opacity="1" fill-rule="evenodd"/><path fill="#000000" d="M 392.703125 401.832031 C 392.648438 404.128906 391.800781 405.632812 389.878906 406.066406 C 388.257812 404.238281 389.796875 401.289062 392.703125 401.832031 Z M 392.703125 401.832031 " fill-opacity="1" fill-rule="evenodd"/><path fill="#000000" d="M 399.765625 401.832031 C 398.460938 403.351562 398.917969 406.632812 395.53125 406.066406 C 395.15625 402.871094 396.570312 401.457031 399.765625 401.832031 Z M 399.765625 401.832031 " fill-opacity="1" fill-rule="evenodd"/><path fill="#000000" d="M 595.390625 403.949219 C 595.613281 405.585938 595.277344 406.660156 594.683594 407.480469 C 593.242188 407.269531 593.300781 405.570312 591.859375 405.359375 C 591.964844 403.816406 593.636719 403.84375 595.390625 403.949219 Z M 595.390625 403.949219 " fill-opacity="1" fill-rule="evenodd"/><path fill="#000000" d="M 513.46875 404.652344 L 513.46875 406.773438 C 511.992188 407.070312 511.597656 406.289062 510.644531 406.066406 C 510.8125 404.824219 511.859375 404.457031 513.46875 404.652344 Z M 513.46875 404.652344 " fill-opacity="1" fill-rule="evenodd"/><path fill="#000000" d="M 365.867188 406.773438 C 367.195312 408.117188 365.449219 408.050781 365.867188 410.300781 C 368.042969 410.828125 366.730469 407.867188 369.398438 408.890625 C 369.535156 412.082031 367.304688 412.914062 364.457031 413.125 C 363.394531 411.367188 362.273438 409.660156 361.632812 407.476562 C 362.464844 406.664062 364.128906 406.679688 365.867188 406.773438 Z M 365.867188 406.773438 " fill-opacity="1" fill-rule="evenodd"/><path fill="#000000" d="M 216.855469 410.300781 C 221.472656 405.71875 229.296875 407.984375 232.390625 412.417969 C 227.886719 413.78125 220.398438 406.339844 218.269531 414.539062 C 215.542969 414.4375 215.003906 412.152344 211.910156 412.417969 C 207.566406 413.015625 207.035156 417.429688 201.316406 416.652344 C 201.304688 410.527344 210.394531 404.726562 216.855469 410.300781 Z M 216.855469 410.300781 " fill-opacity="1" fill-rule="evenodd"/><path fill="#000000" d="M 262.761719 413.832031 C 263.738281 410.789062 259.15625 411.777344 261.347656 409.597656 C 265.273438 408.96875 265.726562 411.808594 265.585938 415.246094 C 261.664062 417.679688 253.6875 416.058594 249.34375 418.066406 C 251.011719 414.015625 249.109375 411.277344 245.8125 410.300781 C 244.40625 411.015625 242.792969 411.523438 242.28125 413.125 C 241.425781 416.566406 245.089844 415.496094 245.105469 418.066406 C 240.882812 419.300781 239.117188 412.40625 233.101562 413.125 C 234.070312 410.132812 238.730469 407.726562 242.28125 409.59375 C 247.5625 405.519531 252.328125 410.945312 254.285156 414.535156 C 257.625 414.816406 260.179688 414.3125 262.761719 413.832031 Z M 262.761719 413.832031 " fill-opacity="1" fill-rule="evenodd"/><path fill="#000000" d="M 344.679688 411.714844 C 341.027344 413.667969 335.796875 413.726562 331.96875 413.832031 C 316.21875 414.269531 301.519531 412.589844 283.238281 413.832031 C 281.785156 414.023438 283.070312 416.957031 281.121094 416.652344 C 275.042969 416.519531 270.246094 416.699219 266.289062 415.949219 C 268.585938 413.023438 269.898438 410.03125 274.765625 409.597656 C 278.796875 409.234375 282.542969 412.421875 286.066406 412.417969 C 288.820312 412.417969 291.40625 410.539062 294.539062 410.300781 C 298.464844 410.003906 304.796875 410.398438 309.371094 411.007812 C 310.59375 411.167969 312.308594 412.382812 313.605469 412.417969 C 324.460938 412.730469 335.257812 408.136719 344.679688 411.714844 Z M 272.648438 413.832031 C 274.792969 413.851562 278.398438 416.039062 278.296875 412.417969 C 276.164062 412.636719 272.804688 411.636719 272.648438 413.832031 Z M 272.648438 413.832031 " fill-opacity="1" fill-rule="evenodd"/><path fill="#000000" d="M 440.730469 412.417969 L 440.730469 415.949219 C 438.359375 416.433594 438.148438 414.765625 437.902344 413.125 C 438.53125 412.578125 439.496094 412.367188 440.730469 412.417969 Z M 440.730469 412.417969 " fill-opacity="1" fill-rule="evenodd"/><path fill="#000000" d="M 232.394531 416.652344 C 233.796875 417.992188 236.148438 422.421875 232.394531 423.007812 C 229.6875 423.136719 232.136719 422.429688 231.6875 420.890625 C 228.460938 420.117188 226.894531 417.679688 224.625 415.949219 C 222.554688 415.996094 222.003906 417.5625 221.09375 418.773438 C 220.339844 421.410156 222.847656 420.785156 222.507812 423.007812 C 215.078125 421 219.957031 413.207031 224.625 413.125 C 228.605469 413.054688 228.171875 419.238281 232.394531 416.652344 Z M 232.394531 416.652344 " fill-opacity="1" fill-rule="evenodd"/><path fill="#000000" d="M 214.03125 416.652344 C 214.144531 420.53125 209.5 419.652344 208.382812 422.304688 C 205.765625 420.910156 209.496094 419.089844 206.96875 416.652344 C 208.554688 415.277344 212.28125 416.039062 214.03125 416.652344 Z M 214.03125 416.652344 " fill-opacity="1" fill-rule="evenodd"/><path fill="#000000" d="M 256.40625 418.777344 C 256.464844 421.953125 251.992188 423.371094 249.34375 421.601562 C 250.949219 419.910156 252.898438 418.566406 256.40625 418.777344 Z M 256.40625 418.777344 " fill-opacity="1" fill-rule="evenodd"/><path fill="#000000" d="M 187.902344 420.183594 C 187.980469 422.851562 186.519531 423.980469 184.371094 424.417969 C 183.859375 421.320312 185.886719 420.757812 187.902344 420.183594 Z M 187.902344 420.183594 " fill-opacity="1" fill-rule="evenodd"/><path fill="#000000" d="M 420.246094 430.773438 C 419.277344 431.789062 416.179688 433.824219 413.890625 434.304688 C 410.839844 434.941406 405.757812 435.078125 404.003906 432.183594 C 393.546875 434.910156 377.113281 429.597656 360.925781 431.480469 C 359.007812 431.683594 357.597656 432.386719 356.6875 433.597656 C 351.796875 434.855469 345.597656 432.296875 341.152344 432.183594 C 338.855469 432.128906 336.507812 433.496094 334.085938 433.597656 C 324.953125 433.972656 314.984375 432.316406 306.546875 432.890625 C 300.539062 433.300781 294.425781 435.523438 288.890625 432.1875 C 291.574219 429.117188 295.917969 431.644531 299.480469 431.480469 C 304.820312 431.234375 310.304688 429.152344 315.726562 430.777344 C 311.421875 427.871094 305.789062 429.933594 300.894531 429.363281 C 297.554688 428.976562 294.011719 427.054688 290.300781 426.539062 C 285.558594 425.886719 281.039062 426.734375 277.589844 423.71875 C 277.214844 423.148438 276.855469 422.574219 276.882812 421.601562 C 277.457031 421.464844 277.589844 420.890625 278.296875 420.894531 C 298.457031 429.59375 329.671875 427.222656 352.449219 431.484375 C 371.597656 425.605469 402.539062 431.199219 420.246094 430.773438 Z M 420.246094 430.773438 " fill-opacity="1" fill-rule="evenodd"/><path fill="#000000" d="M 206.96875 427.949219 C 206.0625 427.023438 206.0625 425.347656 206.96875 424.417969 C 208.019531 425.253906 210.125 425.03125 209.792969 427.242188 C 209.164062 427.792969 208.199219 428.003906 206.96875 427.949219 Z M 206.96875 427.949219 " fill-opacity="1" fill-rule="evenodd"/><path fill="#000000" d="M 451.320312 431.480469 C 449.804688 435.9375 444.101562 432.917969 440.730469 432.890625 C 434.078125 432.835938 426.425781 434.488281 422.367188 431.480469 C 430.957031 427.167969 443.304688 432.867188 451.320312 431.480469 Z M 451.320312 431.480469 " fill-opacity="1" fill-rule="evenodd"/><path fill="#000000" d="M 570.671875 435.007812 C 569.164062 438.796875 564.152344 437.101562 561.492188 437.125 C 547.8125 437.265625 531.609375 436.039062 515.585938 435.714844 C 509.945312 435.601562 504.148438 434.164062 499.34375 434.300781 C 497.378906 434.359375 494.917969 435.53125 492.988281 435.714844 C 481.027344 436.835938 468.792969 433.839844 456.265625 434.300781 C 455.953125 433.671875 455.644531 433.039062 454.851562 432.890625 C 455.167969 432.257812 455.472656 431.625 456.265625 431.476562 C 466.441406 430.683594 476.328125 432.898438 485.925781 432.890625 C 492.160156 432.886719 498.402344 431.253906 504.289062 431.476562 C 506.855469 431.574219 509.449219 432.808594 512.058594 432.890625 C 524.953125 433.28125 538.328125 432.683594 553.019531 433.59375 C 558.636719 433.945312 564.484375 436.109375 570.671875 435.007812 Z M 570.671875 435.007812 " fill-opacity="1" fill-rule="evenodd"/><path fill="#000000" d="M 149.058594 435.714844 C 147.0625 437.019531 141.96875 436.542969 141.996094 433.597656 C 144.941406 433.582031 148.347656 432.160156 149.058594 435.714844 Z M 149.058594 435.714844 " fill-opacity="1" fill-rule="evenodd"/><g clip-path="url(#1272c51453)"><path fill="#000000" d="M 137.054688 379.242188 C 127.972656 377.269531 118.527344 379.148438 109.511719 379.242188 C 107.023438 379.265625 104.699219 381.167969 102.449219 381.359375 C 100.804688 381.5 98.4375 380.648438 96.796875 380.652344 C 88.640625 380.675781 81.59375 384.101562 72.785156 382.066406 C 68.828125 381.851562 68.09375 387.90625 63.605469 384.890625 C 65.675781 382.488281 69.460938 381.800781 70.667969 378.535156 C 69.667969 373.890625 65.117188 372.789062 64.3125 367.945312 C 61.582031 366.410156 57.898438 368.105469 55.835938 367.242188 C 55.335938 365.15625 55.644531 362.257812 53.71875 361.59375 C 49.570312 360.742188 48.894531 363.359375 48.070312 365.828125 C 45.136719 365.394531 44.609375 361.46875 41.003906 363.710938 C 38.984375 363.808594 39.714844 366.65625 39.59375 368.652344 C 37.269531 368.621094 36.078125 367.460938 33.238281 367.945312 C 33.554688 370.8125 31.707031 375.328125 32.53125 377.832031 C 33.859375 381.859375 36.785156 381.105469 38.886719 384.183594 C 26.058594 387.507812 12.707031 389.101562 -0.660156 387.710938 C -0.355469 382.96875 6.261719 384.9375 9.226562 384.890625 C 16.902344 384.765625 25.175781 384.914062 32.53125 382.773438 C 29.496094 379.691406 29.363281 373.703125 29.707031 367.242188 C 33.492188 364.203125 38.691406 362.574219 42.417969 359.476562 C 48.621094 361.464844 50.363281 357.824219 55.835938 357.359375 C 57.027344 359.226562 57.46875 361.84375 58.660156 363.710938 C 67.335938 360.875 67.753906 371.261719 72.785156 374.300781 C 73.757812 375.210938 73.484375 377.367188 73.492188 379.242188 C 82.261719 378.191406 91.441406 378.304688 101.738281 378.535156 C 106.078125 378.628906 109.933594 376.847656 114.449219 376.417969 C 117.589844 376.121094 121.167969 377.019531 124.335938 376.417969 C 126.898438 375.933594 129.863281 373.734375 134.222656 375.710938 C 135.132812 374.757812 132.996094 370.859375 132.8125 368.652344 C 134.785156 360.980469 139.855469 356.398438 142.699219 349.59375 C 148.261719 347.019531 160.550781 340.246094 161.765625 351.003906 C 168.617188 350.039062 169.5 355.035156 171.652344 358.769531 C 169.773438 363.902344 171.085938 366.425781 173.773438 370.066406 C 176.066406 367.183594 175.089844 361.027344 178.714844 359.476562 C 183.457031 360.523438 184.339844 358.800781 188.601562 358.0625 C 190.8125 363.871094 199.933594 364.867188 197.074219 373.59375 C 207.484375 371.738281 217.910156 372.257812 229.5625 370.066406 C 236.773438 368.707031 242.191406 364.636719 248.628906 363.003906 C 238.359375 358.445312 226.769531 355.207031 216.851562 350.296875 L 211.199219 350.296875 C 193.433594 338.878906 160.46875 342.652344 142.699219 331.238281 C 143.914062 329.269531 152.035156 328.691406 154.703125 329.121094 C 156.695312 329.441406 158.109375 330.585938 159.648438 331.238281 C 187.257812 331.136719 213.773438 325.78125 243.6875 322.769531 C 240.199219 317.382812 236.019531 313.941406 230.976562 309.355469 C 229.878906 308.359375 229.789062 306.585938 228.855469 305.828125 C 227.816406 304.980469 226.40625 305.316406 225.324219 304.414062 C 223.355469 302.773438 221.71875 300.132812 219.675781 298.765625 C 209.042969 291.671875 199.574219 298.886719 190.015625 305.121094 C 182.984375 309.699219 176.402344 317.214844 167.414062 319.945312 C 164.65625 320.78125 161.085938 320.765625 158.234375 321.355469 C 152.390625 322.570312 147.058594 324.296875 139.164062 324.886719 C 137.46875 326.4375 144.605469 327.960938 141.988281 330.535156 C 132.339844 328.414062 128.257812 320.730469 119.390625 317.828125 C 116.015625 312.734375 109.441406 310.832031 106.679688 305.121094 C 100.132812 302.960938 96.769531 297.617188 91.144531 294.535156 C 81.457031 293.085938 78.519531 298.386719 72.074219 300.179688 C 74.808594 293.496094 81.039062 293.507812 86.199219 290.296875 C 88.03125 292.167969 90.945312 290.710938 93.261719 291.710938 C 95.074219 292.492188 96.578125 294.929688 98.914062 296.652344 C 99.894531 297.375 101.34375 297.148438 102.445312 298.0625 C 103.359375 298.820312 103.617188 300.269531 104.5625 300.886719 C 106.332031 302.039062 108.792969 301.929688 110.210938 303.003906 C 111.703125 304.132812 113.015625 306.628906 114.449219 307.945312 C 115.148438 308.582031 116.492188 308.578125 117.273438 309.359375 C 118.015625 310.101562 118.109375 311.75 118.6875 312.179688 C 120.957031 313.878906 124.316406 314.132812 126.453125 315.710938 C 128.117188 316.933594 130.03125 321.089844 132.8125 322.0625 C 140.042969 322.492188 147.082031 319.394531 153.996094 319.945312 C 156.425781 319.3125 158.398438 318.230469 160.351562 317.121094 C 162.679688 318.3125 164.867188 317.539062 167.414062 317.121094 C 169.863281 314.964844 172.242188 314.496094 175.890625 312.886719 C 179.289062 311.386719 180.933594 308.308594 184.367188 305.828125 C 186.820312 304.050781 190.808594 302.53125 193.546875 300.179688 C 197.621094 296.679688 206.707031 291.320312 214.027344 292.414062 C 228.101562 299.527344 237.519531 311.285156 247.925781 322.0625 C 257.671875 321.941406 263.359375 320.359375 271.9375 323.472656 C 275.710938 324.84375 279.234375 327.984375 283.238281 329.828125 C 293.535156 334.5625 296.277344 330.652344 307.25 324.886719 C 314.769531 320.933594 321.800781 319.121094 327.023438 315.003906 C 328.730469 313.660156 329.042969 311.523438 330.554688 310.0625 C 331.277344 309.367188 333.644531 308.804688 334.792969 307.945312 C 342.421875 302.226562 355.019531 297.996094 367.277344 303.003906 C 372.058594 304.957031 374.8125 310.125 379.285156 313.59375 C 388.472656 320.71875 401.921875 322.5625 409.652344 330.535156 L 413.886719 330.535156 C 415.695312 337.4375 423.996094 337.84375 428.011719 342.535156 C 435.558594 342.480469 443.851562 339.632812 450.613281 341.125 C 463.964844 337.070312 477.898438 331.964844 489.453125 324.886719 C 494.546875 321.765625 498.773438 318.558594 504.28125 315.003906 C 505.867188 313.984375 507.820312 313.269531 509.226562 312.179688 C 511.53125 310.394531 512.816406 307.898438 514.875 305.828125 C 516.535156 304.160156 518.71875 304.246094 519.820312 301.59375 C 522.988281 301.46875 525.1875 300.371094 526.882812 298.769531 C 535.382812 300.003906 536.503906 293.785156 543.832031 296.648438 C 545.839844 297.4375 548.433594 301.535156 549.480469 301.589844 C 550.363281 301.636719 554.34375 299.105469 555.835938 297.355469 C 556.726562 296.308594 556.679688 293.890625 557.957031 291.707031 C 558.765625 290.320312 560.863281 289.324219 561.488281 288.179688 C 563.085938 285.242188 562.789062 282.75 564.3125 281.117188 C 567.253906 277.960938 574.453125 276.1875 579.140625 276.882812 C 584.039062 277.609375 583.808594 281.972656 592.558594 281.117188 C 595.238281 284.421875 600.863281 288.214844 598.210938 294.53125 C 600.636719 294.222656 602.167969 294.808594 603.859375 295.238281 C 607.386719 300.796875 608.53125 306.949219 613.746094 310.765625 C 618.027344 313.902344 624.191406 314.296875 627.871094 318.53125 C 637.308594 316.90625 643.808594 312.347656 649.765625 307.238281 C 650.066406 299.789062 646.5 287.933594 651.882812 283.941406 C 670.347656 282.898438 677.8125 292.847656 683.664062 304.414062 L 691.429688 304.414062 C 696.78125 306.429688 699.574219 310.546875 703.4375 314.296875 C 705.511719 316.308594 710.144531 316.925781 709.792969 320.648438 C 708.859375 323.605469 704.386719 315.746094 701.316406 315.710938 C 701.410156 322.203125 704.953125 325.253906 706.261719 330.535156 C 700.832031 328.503906 697.871094 318.625 699.90625 313.589844 C 696.164062 310.273438 692.71875 306.65625 685.78125 306.53125 C 682.730469 317.148438 692.246094 324.964844 690.722656 334.0625 C 684.832031 326.304688 684.050781 313.441406 680.835938 303 C 678.578125 311.621094 682.515625 323.902344 682.25 330.53125 C 679.898438 328.285156 679.234375 323.308594 678.71875 319.238281 C 677.601562 310.414062 679.316406 299.796875 674.480469 294.53125 C 671.082031 310.375 675.152344 318.976562 675.1875 335.472656 C 672.125 332.691406 672.117188 325.421875 671.65625 320.648438 C 670.679688 310.546875 671.945312 300.382812 670.949219 291 C 667.953125 294.925781 669.230469 303.707031 668.832031 311.472656 C 668.628906 315.421875 668.984375 320.925781 666.007812 322.769531 C 667.179688 312.613281 668.363281 298.8125 667.417969 288.882812 C 661.125 292.902344 667.035156 314.324219 660.355469 319.945312 C 660.699219 313.433594 662.828125 304.8125 663.179688 297.355469 C 663.332031 294.144531 664.726562 288.414062 661.0625 286.765625 C 657.21875 288.898438 658.609375 297.332031 658.238281 303.707031 C 657.84375 310.5 656.96875 317.261719 655.414062 322.769531 C 654.566406 311.378906 658.199219 298.945312 656.824219 286.765625 C 653.734375 288.070312 654.195312 293.71875 654.003906 297.355469 C 653.828125 300.640625 654.171875 303.953125 654.003906 307.238281 C 653.707031 313.019531 653.753906 319.414062 650.472656 322.0625 C 651.613281 319.441406 651.058594 315.117188 651.175781 311.472656 C 646.960938 311.964844 646.292969 316.003906 646.234375 320.648438 C 643.546875 321.214844 645.335938 317.3125 644.820312 315.710938 C 641.117188 316.007812 641.773438 320.664062 641.289062 324.179688 C 647.144531 330.367188 662.664062 330.125 664.59375 339.003906 C 665.878906 344.894531 662.488281 348.308594 667.421875 352.417969 C 668.140625 353.019531 670.78125 354.300781 672.363281 355.242188 C 675.726562 357.242188 678.929688 358.371094 683.664062 360.183594 C 691.054688 363.015625 697.25 367.253906 703.4375 371.480469 C 697.792969 374.972656 693.484375 367.574219 688.605469 365.125 C 684.609375 363.121094 679.476562 362.21875 675.1875 360.183594 C 670.898438 358.152344 666.507812 356.574219 663.183594 353.832031 C 659.019531 353.757812 655.980469 352.558594 652.589844 351.710938 C 650.523438 351.527344 650.421875 353.308594 648.351562 353.125 C 645.050781 352.65625 644.164062 349.78125 641.289062 348.890625 C 636.773438 349.3125 636.019531 353.503906 633.519531 355.949219 C 637.785156 354.230469 643.542969 356.441406 649.058594 356.652344 C 651.277344 356.738281 653.339844 355.558594 655.414062 355.949219 C 657.898438 356.414062 658.902344 358.441406 661.0625 359.476562 C 663.953125 360.863281 667.84375 361.441406 670.949219 363.007812 C 674.078125 364.585938 677.570312 365.75 678.71875 368.65625 C 674.242188 366.859375 670.148438 365.46875 666.007812 363.714844 C 662.246094 362.117188 658.15625 358.925781 654.003906 358.066406 C 650.847656 357.414062 644.9375 357.972656 641.292969 358.066406 C 623.628906 358.535156 607.167969 366.992188 590.441406 370.066406 C 583.929688 371.265625 578.753906 370.78125 573.492188 373.597656 C 571.238281 374.203125 571.308594 372.484375 569.960938 372.1875 C 569.09375 373.433594 568.585938 375.046875 567.136719 375.714844 C 538.925781 383.515625 515.660156 396.265625 484.507812 401.128906 C 486.289062 402.78125 488.832031 400.359375 491.570312 400.421875 C 493.8125 400.476562 495.335938 401.9375 497.929688 402.542969 C 501.011719 403.257812 507.597656 401.207031 506.402344 406.070312 C 503.148438 408.136719 502.195312 402.703125 497.929688 405.363281 C 495.261719 404.074219 490.40625 401.855469 486.628906 403.953125 C 484.425781 405.015625 488.703125 407 486.628906 408.1875 C 482.867188 407.476562 483.574219 402.296875 478.859375 402.542969 C 474.390625 404.84375 466.796875 405.9375 464.03125 401.835938 C 460.035156 400.566406 460.113281 405.871094 457.675781 403.953125 C 457.664062 402.082031 458.066406 399.796875 456.261719 399.71875 C 452.570312 399.558594 450.921875 401.441406 449.199219 403.25 C 446.972656 405.679688 452.179688 404.964844 451.316406 408.1875 C 448.109375 408.574219 447.441406 406.414062 446.375 404.65625 C 447.246094 398.824219 456.449219 393.984375 460.496094 399.71875 C 465.527344 399.632812 470.261719 399.839844 472.503906 402.542969 C 476.898438 399.167969 484.964844 399.46875 490.863281 397.601562 C 459.519531 394.199219 425.566406 395.015625 393.40625 391.246094 C 399.597656 393.761719 406.332031 395.738281 413.886719 396.894531 C 417.554688 400.523438 424.597656 400.777344 430.128906 402.542969 C 423.679688 405.757812 416.914062 399.875 409.648438 397.601562 C 399.867188 394.539062 384.097656 396.453125 377.871094 387.71875 C 374.027344 387.558594 372.371094 385.214844 370.101562 383.484375 C 365.195312 382.972656 360.664062 382.09375 356.683594 380.660156 C 354.324219 381.082031 349.167969 383.96875 347.5 380.660156 C 350.8125 376.660156 355.003906 378.75 361.625 379.25 C 365.421875 379.535156 369.511719 378.816406 372.21875 379.25 C 373.652344 379.476562 375.148438 380.566406 376.457031 380.660156 C 380.082031 380.914062 383.792969 379.242188 387.753906 380.660156 C 390.574219 381.667969 389.800781 381.234375 393.40625 380.660156 C 401.78125 379.332031 410.601562 382.144531 418.121094 382.074219 C 421.761719 382.039062 424.085938 382.328125 427.304688 382.777344 C 438.734375 384.375 450.734375 383.1875 462.617188 384.191406 C 469.9375 384.808594 476.984375 387.007812 484.507812 387.011719 C 493.75 387.019531 503.003906 385.066406 512.050781 387.71875 C 510.53125 390.546875 508.242188 388.449219 506.402344 388.425781 C 485.289062 388.140625 463.578125 386.628906 441.425781 385.601562 C 418.707031 384.542969 395.128906 382.238281 372.21875 382.070312 C 378.929688 385.476562 382.179688 391.113281 390.578125 391.25 C 392.507812 390.613281 388.429688 389.667969 390.578125 388.425781 C 404.074219 391.066406 418.304688 389.96875 432.953125 391.25 C 436.65625 391.574219 440.40625 393.105469 444.253906 393.367188 C 452.722656 393.941406 462.632812 392.949219 471.796875 393.367188 C 483.042969 393.878906 492.863281 396.644531 502.164062 395.484375 C 510.882812 394.394531 520.023438 388.542969 528.996094 386.304688 C 527.609375 384.738281 524.3125 387.234375 521.230469 386.304688 C 524.023438 381.644531 529.683594 384.796875 533.941406 384.1875 C 542.082031 383.03125 550.183594 378.414062 557.953125 376.421875 C 546.667969 375.175781 532.183594 379.96875 519.816406 379.246094 C 515.65625 379.003906 510.222656 378.640625 504.277344 377.835938 C 498.804688 377.09375 494.722656 375.464844 487.328125 374.304688 C 485.992188 374.09375 484.980469 373.011719 483.796875 372.894531 C 472.28125 371.71875 459.535156 374.632812 448.484375 373.597656 C 438.390625 372.652344 424.648438 374.582031 416.707031 371.480469 C 415.355469 370.953125 414.441406 369.015625 413.175781 368.65625 C 394.09375 367.023438 379.695312 360.707031 360.207031 359.480469 C 363.667969 355.789062 368.476562 358.988281 372.214844 359.480469 C 383.382812 360.945312 395.683594 362.554688 404.699219 366.539062 C 410.144531 364.855469 413.957031 368.367188 417.410156 369.363281 C 420.203125 370.167969 423.585938 369.46875 426.59375 370.066406 C 436.347656 372.011719 449.378906 371.988281 461.902344 371.480469 C 469.136719 371.1875 475.652344 371.457031 483.089844 372.1875 C 486.367188 372.503906 490.21875 371.589844 492.976562 372.1875 C 495.265625 372.675781 497.085938 374.570312 499.332031 375.007812 C 501.175781 375.367188 503.5625 374.820312 505.6875 375.007812 C 510.449219 375.425781 515.734375 377.519531 520.519531 377.832031 C 528.160156 378.332031 536.238281 375.761719 543.824219 375.007812 C 552.585938 374.140625 561.214844 375.378906 567.835938 372.1875 C 568.214844 368.984375 563.835938 370.535156 562.1875 369.363281 C 559.703125 367.757812 556.714844 364.367188 553.710938 367.242188 C 553.488281 369.117188 557.667969 366.585938 556.535156 369.363281 C 551.882812 370.828125 546.546875 371.609375 541.707031 372.894531 C 539.808594 373.378906 540.339844 371.433594 539.589844 370.773438 C 521.957031 375.515625 501.394531 373.492188 485.210938 367.949219 C 458.496094 371.621094 428.5 368.246094 401.875 363.011719 C 400.183594 362.675781 398.785156 361.1875 396.933594 360.890625 C 395.382812 360.648438 393.421875 361.257812 391.992188 360.890625 C 390.007812 360.390625 388.226562 358.578125 386.339844 358.070312 C 383.804688 357.386719 381.191406 357.945312 378.570312 357.363281 C 374.316406 356.421875 372.609375 355.273438 366.566406 354.539062 C 365.304688 354.386719 364.015625 353.207031 363.035156 353.128906 C 361.621094 353.015625 360.027344 354.011719 358.796875 353.835938 C 358.203125 353.75 357.535156 352.558594 356.679688 352.425781 C 353.910156 351.992188 350.402344 353.265625 348.203125 351.011719 C 345.578125 354.027344 340.523438 352.507812 334.785156 353.128906 C 327.304688 353.941406 321.796875 358.914062 314.304688 360.894531 C 309.457031 362.175781 303.785156 361.613281 298.769531 363.011719 C 297.128906 363.46875 295.449219 364.851562 293.828125 365.128906 C 286.320312 366.417969 278.242188 364.898438 270.519531 365.835938 C 266.757812 366.289062 262.101562 368.429688 257.808594 369.363281 C 256.695312 369.609375 255.375 369.066406 254.277344 369.363281 C 251.9375 370 249.757812 371.808594 247.214844 372.1875 C 242.953125 372.824219 238.179688 371.710938 233.796875 372.1875 C 221.941406 373.480469 211.351562 377.726562 199.898438 378.542969 L 199.898438 380.660156 C 206.640625 381.523438 214.03125 379.507812 219.671875 378.542969 C 229.40625 376.875 239.941406 377.972656 249.332031 376.421875 C 253.828125 375.679688 258.789062 373.117188 263.457031 372.1875 C 264.917969 371.898438 266.417969 372.488281 267.695312 372.1875 C 270.652344 371.492188 273.183594 369.773438 276.167969 369.363281 C 280.507812 368.773438 285.179688 369.839844 289.585938 369.363281 C 312.683594 366.878906 333.824219 355.042969 358.089844 354.539062 C 357.988281 356.085938 356.308594 356.054688 354.558594 355.953125 C 354.589844 358.511719 359.570312 356.117188 358.796875 359.484375 C 355.960938 360.230469 353.351562 358.246094 350.320312 358.070312 C 335.546875 357.214844 317.320312 366.855469 299.472656 370.070312 C 293.238281 371.195312 286.253906 372.207031 280.40625 372.1875 C 274.625 372.167969 271.734375 373.503906 264.164062 374.304688 C 257.21875 375.039062 249.734375 378.480469 242.972656 379.246094 C 234.710938 380.183594 226.921875 379.582031 218.964844 380.660156 C 214.671875 381.238281 208.5625 381.699219 204.132812 382.777344 C 202.367188 383.207031 198.914062 383.230469 199.191406 386.304688 C 206.40625 385.917969 215.113281 385.050781 223.203125 384.894531 C 238.675781 384.597656 254.625 380.625 270.519531 378.542969 C 274.039062 378.078125 277.199219 378.554688 280.40625 377.835938 C 294.480469 374.671875 315.984375 371.425781 332.664062 368.65625 C 334.519531 368.160156 334.058594 365.34375 335.488281 364.421875 C 342.730469 363.71875 348.238281 361.46875 355.261719 363.71875 C 350.746094 368.28125 340.96875 363.859375 334.785156 367.246094 C 344.128906 369.898438 352.691406 365.226562 361.617188 365.835938 C 367.523438 366.234375 375.804688 369.496094 383.511719 370.070312 C 391.1875 370.644531 399.632812 371.15625 406.816406 372.1875 C 410.039062 372.652344 412.871094 374.683594 416 375.011719 C 417.8125 375.203125 419.832031 374.332031 421.648438 374.304688 C 426.535156 374.238281 430.976562 376.683594 435.773438 377.128906 C 437.839844 377.320312 440.175781 376.355469 442.128906 376.421875 C 444.496094 376.507812 446.828125 377.824219 449.191406 377.835938 C 452.484375 377.855469 455.785156 376.378906 459.082031 376.421875 C 469.511719 376.566406 480.164062 379.746094 490.859375 380.660156 C 496.179688 381.113281 501.902344 380.074219 507.101562 380.660156 C 511.554688 381.160156 515.363281 383.097656 519.8125 382.777344 C 504.230469 382.609375 487.683594 382.5 471.792969 380.660156 C 466.535156 380.050781 461.605469 378.464844 456.253906 378.542969 C 453.40625 378.582031 451.144531 379.871094 448.484375 379.953125 C 443.984375 380.09375 437.308594 379.1875 430.828125 378.542969 C 408.988281 376.359375 388.253906 371.449219 367.269531 370.070312 C 366.578125 369.347656 365.875 368.644531 365.152344 367.953125 C 343.46875 369.476562 323.328125 371.558594 303.710938 375.011719 C 294.519531 376.628906 285.625 379.359375 276.167969 380.660156 C 269.710938 381.546875 262.964844 381.734375 256.394531 382.777344 C 236.976562 385.859375 217.492188 387.242188 196.363281 389.839844 C 202.945312 391.625 209.960938 389.523438 216.84375 389.839844 C 220.472656 390.003906 224 392.101562 227.4375 391.953125 C 231.746094 391.773438 235.34375 387.9375 239.445312 390.542969 C 239.367188 392.347656 237.082031 391.945312 235.207031 391.953125 C 235.363281 394.152344 238.722656 393.148438 240.855469 393.367188 C 241.808594 392.886719 240.242188 391.21875 242.269531 390.546875 C 252.164062 390.007812 261.390625 386.085938 270.519531 387.015625 C 268.867188 390.550781 274.417969 392.835938 273.34375 395.484375 C 269.78125 397.777344 270.140625 390.921875 266.988281 390.546875 C 260.632812 393.070312 256.761719 389.792969 252.15625 394.074219 C 251.769531 398.464844 258.949219 395.289062 259.222656 399.015625 C 251.644531 399.269531 245.214844 395.785156 237.328125 394.78125 C 228.648438 393.675781 219.871094 395.328125 214.023438 391.25 C 206.28125 394.65625 197.171875 391.269531 190.71875 393.367188 C 189.464844 393.773438 183.957031 398.023438 182.949219 399.71875 C 181.253906 402.585938 181.664062 407.105469 180.125 411.015625 C 175.757812 407.035156 182.839844 400.609375 179.417969 396.898438 C 182.214844 396.632812 183.585938 394.945312 183.65625 391.957031 C 185.910156 391.351562 185.839844 393.070312 187.1875 393.367188 C 189.585938 391.144531 184.589844 389.449219 186.484375 387.722656 C 190.0625 388.523438 191.046875 389.472656 194.25 387.722656 C 194.53125 383.128906 195.003906 381.507812 196.371094 377.132812 C 197.019531 374.367188 192.644531 376.621094 192.132812 375.015625 C 191.863281 372.628906 193.355469 372.003906 194.25 370.78125 C 192.332031 368.851562 191.269531 366.722656 188.601562 367.25 C 187.789062 365.765625 189.03125 364.496094 187.1875 363.015625 C 182.894531 365.21875 182.363281 363.734375 178.007812 364.425781 C 178.589844 366.421875 177.011719 366.257812 177.300781 367.957031 C 178.226562 369.621094 182.789062 367.648438 182.953125 370.074219 C 182.417969 373.160156 178.988281 369.257812 177.300781 371.488281 C 181.921875 372.046875 185.875 373.269531 187.1875 377.136719 C 187.558594 379.652344 182.492188 377.109375 181.539062 376.429688 C 177.992188 376.957031 182.746094 373.558594 179.417969 374.3125 C 176.707031 375.367188 177.636719 380.058594 175.890625 382.078125 C 177.648438 384.320312 182.964844 383.003906 184.363281 385.609375 C 181.4375 388.292969 173.886719 382.941406 169.535156 386.3125 C 170.605469 381.5 176.597656 381.605469 175.183594 374.3125 C 174.441406 372.464844 172.316406 372.003906 169.535156 372.195312 L 169.535156 368.664062 C 169.019531 366.914062 167.410156 370.996094 166.003906 368.664062 C 164.824219 363.722656 168.976562 364.105469 169.535156 360.898438 C 169.171875 356.59375 164.457031 357.726562 165.296875 353.839844 C 162.671875 353.570312 163.449219 356.699219 160.351562 355.957031 C 159.453125 352.386719 158.96875 348.398438 155.410156 347.488281 C 152.453125 346.882812 153.863281 350.644531 152.585938 351.722656 C 149.613281 349.183594 146.804688 349.792969 143.40625 351.722656 C 141.8125 354.445312 144.238281 354.984375 144.109375 358.074219 C 139.757812 357.019531 139.835938 360.390625 137.753906 361.605469 C 137.039062 364.910156 140.585938 363.949219 139.875 367.253906 C 138.96875 368.464844 135.652344 367.269531 135.636719 369.371094 C 136.234375 374.890625 139.238281 378.007812 143.40625 379.957031 C 141.722656 381.902344 143.007812 383.664062 140.578125 385.609375 C 142.625 389.480469 146.117188 387.566406 151.171875 388.429688 C 151.78125 384.597656 149.417969 384.367188 151.171875 379.253906 C 150.613281 376.605469 148.703125 379.207031 147.640625 377.839844 C 150.507812 374.085938 161.503906 373.636719 162.472656 379.253906 C 158.070312 380.269531 153.773438 373.46875 153.289062 380.664062 C 156.050781 381.890625 163.53125 378.9375 163.175781 384.902344 C 160.097656 383.800781 154.75 381.019531 153.289062 385.605469 C 155.597656 388.648438 163.550781 382.699219 164.589844 389.136719 C 163.371094 392.414062 162.050781 387.503906 158.941406 388.429688 C 159.5625 392.578125 158.386719 396.402344 158.234375 400.429688 C 158.042969 405.570312 160.3125 412.171875 156.117188 415.253906 C 153.640625 407.644531 159.691406 396.1875 156.117188 388.429688 C 152.472656 389.210938 154.191406 393.945312 155.410156 395.488281 C 154.4375 401.472656 155.257812 411.238281 152.585938 417.371094 C 148.695312 410.820312 155.238281 399.628906 151.878906 391.253906 C 146.882812 392.386719 141.5 391.207031 138.460938 388.429688 C 124.828125 388.378906 110.261719 387.433594 99.617188 388.429688 C 95.613281 388.808594 91.460938 391.644531 87.613281 389.136719 C 87.21875 385.683594 92.046875 387.449219 94.675781 387.019531 C 88.273438 382.933594 76.570312 391.964844 69.957031 387.722656 C 77.242188 384.71875 92.375 381.261719 100.324219 385.609375 C 105.175781 385.042969 112.714844 387.164062 114.449219 383.488281 C 111.574219 382.285156 106.855469 385.292969 101.738281 384.195312 C 101.539062 383.054688 102.40625 382.980469 102.445312 382.078125 C 112.898438 380.039062 127.601562 382.261719 137.054688 379.242188 Z M 560.078125 313.589844 C 561.226562 311.917969 561.644531 309.507812 562.195312 307.238281 C 559.511719 306.199219 562.058594 310.390625 559.371094 309.355469 C 559.445312 303.53125 564.714844 298.683594 561.492188 293.824219 C 560.410156 298.953125 552.183594 300.394531 553.015625 305.121094 C 554.914062 306.378906 554.382812 302.011719 555.136719 304.414062 C 552.753906 308.898438 558.183594 311.089844 560.078125 313.589844 Z M 573.496094 279.707031 C 570.707031 288.890625 569.683594 298.027344 567.140625 306.53125 C 565.777344 311.097656 561.1875 318.585938 566.433594 320.648438 C 570.59375 307.867188 572.832031 293.160156 576.324219 279.707031 Z M 565.726562 285.355469 C 568.734375 291.226562 566.054688 298.246094 564.316406 304.414062 C 563.0625 308.855469 560.097656 313.441406 562.195312 316.414062 C 565.972656 306.539062 570.761719 293.917969 569.261719 281.117188 C 568.199219 282.648438 565.726562 282.761719 565.726562 285.355469 Z M 578.441406 281.117188 C 575.640625 284.078125 576.601562 289.546875 575.617188 294.53125 C 574.472656 300.316406 572.191406 308.992188 570.675781 312.886719 C 569.0625 317.015625 566.058594 320.945312 569.261719 323.472656 C 572.050781 317.4375 576.324219 310.089844 577.734375 301.589844 C 578.777344 295.332031 576.933594 287.296875 581.972656 283.238281 C 580.757812 299.90625 577.195312 314.226562 569.96875 324.886719 C 572.121094 325.792969 571.855469 329.113281 574.910156 329.121094 C 575.902344 328.230469 574.949219 325.398438 577.734375 326.296875 C 573.871094 333.5625 582.289062 336.691406 586.207031 340.417969 C 589.28125 341.421875 589.457031 338.003906 591.152344 339.710938 C 591.339844 346.523438 596.945312 346.414062 602.449219 344.652344 C 602.425781 337.078125 601.230469 330.769531 605.277344 326.296875 C 603.570312 320.761719 609.914062 309.011719 604.570312 304.414062 C 602.445312 311.9375 606.054688 325.195312 599.628906 328.417969 C 599.878906 325.84375 600.875 324.015625 601.746094 322.0625 C 600.402344 316.421875 605.628906 302.808594 599.628906 298.769531 C 600.414062 306.160156 599.417969 315.234375 597.507812 320.652344 C 596.699219 322.945312 595.859375 327.167969 593.273438 327.003906 C 595.050781 321.6875 597.589844 313.761719 598.214844 307.238281 C 598.550781 303.746094 599.460938 297.734375 595.390625 295.941406 C 594.554688 303.121094 594.828125 310.582031 593.273438 315.710938 C 591.746094 320.722656 588.703125 326.867188 584.796875 328.414062 C 592.304688 319.898438 591.722656 304.507812 593.273438 290.296875 C 593.375 289.339844 595.707031 287.21875 593.273438 287.472656 C 589.976562 297.828125 591.441406 312.9375 584.089844 319.238281 C 587.945312 309.890625 590.445312 295.503906 590.445312 284.648438 C 584.785156 283.847656 587.414062 290.753906 586.914062 293.824219 C 586.378906 297.101562 585.726562 301.753906 584.796875 305.121094 C 584.171875 307.375 582.945312 311.640625 580.558594 311.472656 C 582.898438 302.988281 585.402344 294.664062 584.796875 283.234375 C 582.671875 282.539062 581.644531 280.738281 578.441406 281.117188 Z M 651.179688 295.234375 C 650.773438 296.671875 651.664062 300.800781 651.886719 297.355469 C 651.675781 293.144531 652.175781 289.640625 653.300781 286.765625 L 651.179688 286.765625 C 651.386719 290.1875 649.625 292.425781 651.179688 295.234375 Z M 565.023438 293.824219 C 565.566406 293.34375 566.863281 289.621094 564.316406 290.296875 C 563.195312 291.351562 563.796875 293.183594 565.023438 293.824219 Z M 526.886719 301.589844 C 523.929688 305.691406 520.683594 309.503906 515.585938 311.472656 C 509.441406 321.332031 499.660156 327.554688 493.695312 337.589844 C 492.25 338.265625 490.898438 339.03125 489.457031 339.710938 C 486.632812 343.550781 482.488281 347.273438 478.15625 350.296875 C 472.820312 354.019531 466.726562 358.152344 461.207031 359.476562 C 462.820312 355.929688 466.835938 355.6875 469.683594 353.828125 C 470.972656 352.984375 471.855469 351.273438 473.214844 350.296875 C 474.703125 349.230469 476.621094 348.59375 478.15625 347.476562 C 486.15625 341.660156 491.765625 335.101562 497.929688 328.414062 C 501.945312 324.0625 506.8125 320.824219 508.523438 315.710938 C 498.621094 322.046875 491.421875 331.085938 483.101562 339.003906 C 482.941406 338.457031 483.078125 337.613281 482.394531 337.59375 C 478.683594 341.109375 474.179688 344.867188 469.683594 348.183594 C 465.207031 351.484375 460.335938 355.128906 455.558594 355.945312 C 462.179688 349.902344 471.210938 343.789062 478.15625 338.296875 C 480.226562 336.660156 484.339844 335.128906 483.808594 331.945312 C 478.289062 334.898438 472.800781 337.882812 466.152344 339.710938 C 465.328125 341.003906 464.304688 342.101562 463.328125 343.238281 C 460.347656 344.253906 457.503906 347 454.144531 348.886719 C 451.109375 350.59375 446.71875 353.628906 444.257812 351.710938 C 449.148438 348.363281 455.328125 346.304688 459.796875 342.535156 C 452.757812 342.386719 446.21875 348.683594 440.023438 351.710938 C 442.769531 353.769531 446.519531 355.859375 449.910156 358.0625 C 453.011719 360.085938 458.371094 362.144531 457.675781 365.828125 C 449.851562 360.03125 432.125 359.769531 420.246094 362.300781 C 434.285156 364.800781 449.554688 368.011719 466.152344 365.828125 C 468.917969 364.414062 472.398438 360.554688 475.332031 361.59375 C 475.195312 363.820312 470.488281 363.601562 472.507812 365.828125 C 482.007812 367.554688 484.769531 363.242188 491.578125 360.886719 C 491.582031 364.425781 487.039062 363.410156 486.632812 366.535156 C 491.128906 366.277344 493.066406 365.640625 496.523438 367.242188 C 501.203125 364.15625 504.40625 359.59375 509.9375 357.359375 C 509.292969 364.003906 500.773438 362.785156 499.347656 368.652344 C 514.5625 372.972656 531.660156 368.839844 544.546875 368.652344 C 550.5625 362.726562 550.4375 354.871094 555.84375 348.183594 C 552.90625 347.804688 556.554688 343.132812 557.257812 341.828125 C 558.023438 343.636719 555.113281 345.195312 557.257812 346.066406 C 560.191406 339.820312 564.074219 334.519531 565.730469 327.003906 C 563.332031 326.816406 564.191406 323.367188 561.496094 323.476562 C 558.484375 330.378906 555.710938 337.371094 552.316406 343.945312 C 548.917969 350.523438 545.316406 357.292969 540.308594 362.300781 C 546.601562 348.117188 555.125 336.167969 560.082031 320.652344 C 558.839844 318.503906 557.894531 322.578125 557.257812 320.652344 C 558.945312 317.484375 556.5625 314.992188 553.726562 314.296875 C 550.441406 320.664062 547.746094 327.617188 543.132812 332.652344 C 546.074219 326.410156 551.242188 318.644531 552.316406 312.886719 C 541.34375 330.859375 533.457031 351.921875 517.003906 364.417969 C 516.882812 365.476562 517.257812 367.023438 516.296875 367.242188 C 514.503906 368.121094 512.855469 367.550781 511.355469 367.242188 C 513.109375 363.605469 518.078125 362.589844 521.242188 359.476562 C 522.519531 358.21875 523.335938 355.695312 524.773438 353.828125 C 531.679688 344.847656 538.660156 334.296875 543.84375 324.179688 C 547.074219 317.867188 550.746094 312.261719 550.90625 306.53125 C 543.585938 310.042969 544.800781 322.078125 538.902344 327.003906 C 541.796875 321.660156 545.027344 312.898438 545.964844 307.945312 C 539.097656 317.953125 533.304688 331.542969 526.894531 341.121094 C 523.816406 345.722656 521.070312 349.726562 517.710938 353.125 C 516.324219 354.527344 514.25 357.257812 512.0625 356.652344 C 524.195312 341.957031 534.449219 325.378906 543.136719 307.238281 C 544.058594 305.808594 546.875 306.269531 547.375 304.414062 C 543.03125 301.675781 539.140625 306.84375 536.78125 309.355469 C 533.828125 312.496094 531.242188 316.683594 529.011719 319.945312 C 520.355469 332.597656 511.039062 345.058594 500.765625 354.535156 C 496.410156 354.652344 496.742188 359.457031 492.289062 359.476562 C 512.140625 342.84375 525.367188 319.59375 542.429688 300.179688 C 540.015625 300.011719 537.144531 302.070312 535.367188 303.707031 C 527.644531 310.835938 522.28125 324.339844 514.890625 329.121094 C 517.777344 326.363281 518.917969 321.851562 522.65625 319.945312 C 524.371094 313.183594 532.484375 309.066406 533.25 303.707031 C 521.683594 312.796875 514.148438 326.902344 504.292969 338.296875 C 500.40625 342.792969 495.289062 345.871094 490.875 349.59375 C 486.332031 353.425781 482.699219 358.707031 476.75 359.476562 C 480.871094 355.359375 485.464844 351.714844 490.875 348.886719 C 505.046875 334.109375 519.554688 315.902344 531.128906 300.882812 C 531.035156 302.441406 528.128906 301.183594 526.886719 301.589844 Z M 341.855469 307.945312 C 349.589844 304.855469 359.078125 309.390625 365.160156 306.53125 C 358.722656 303.046875 346.761719 302.804688 341.855469 307.945312 Z M 346.09375 310.0625 C 349.179688 310.085938 352.476562 310.324219 353.863281 308.648438 C 350.761719 308.609375 348.027344 308.933594 346.09375 310.0625 Z M 332.675781 315.003906 C 333.507812 315.113281 334.679688 314.882812 334.792969 315.707031 C 330.128906 316.976562 324.039062 318.808594 323.496094 322.0625 C 318.394531 323.789062 313.242188 325.457031 308.664062 327.707031 C 318.414062 323.6875 330.320312 326.242188 338.324219 323.472656 C 344.59375 321.304688 350.796875 318.554688 358.101562 317.824219 C 364.285156 317.207031 370.667969 318.277344 377.875 317.824219 C 374.742188 312.4375 364.320312 315.390625 355.980469 315 C 348.332031 314.644531 340.882812 314.765625 335.5 314.296875 C 338.929688 313.253906 342.441406 312.292969 344.679688 310.058594 C 338.871094 307.863281 336.699219 313.292969 332.675781 315.003906 Z M 345.386719 312.179688 C 354.210938 312.304688 365.183594 314.039062 373.636719 312.179688 C 366.53125 309.210938 352.511719 309.308594 345.386719 312.179688 Z M 604.570312 343.238281 C 616.289062 346.425781 632.234375 343.773438 645.53125 346.0625 C 646.402344 347.546875 647.488281 348.816406 648.355469 350.296875 C 653.648438 347.457031 656.484375 350.992188 661.777344 351.710938 C 661.898438 348.632812 660.601562 343.289062 661.777344 338.296875 C 658.925781 336.96875 655.359375 333.191406 652.59375 334.0625 C 651.765625 337.277344 654.445312 340.636719 653.300781 341.828125 C 647.21875 342.492188 653.953125 330.351562 647.648438 331.238281 C 644.5625 333.917969 650.09375 337.675781 647.648438 339.710938 C 643.09375 338.617188 647.199219 328.863281 642 328.414062 C 639.707031 331.007812 644.816406 339.957031 642 342.535156 C 636.945312 340.054688 642.453125 327.019531 636.351562 325.589844 C 633.511719 329.917969 638.269531 339.246094 634.9375 341.828125 C 630.785156 336.964844 637.625 324.652344 630.699219 323.476562 C 628.503906 328.148438 632.164062 337.238281 629.285156 339.003906 C 626.886719 335.703125 627.679688 326.425781 628.582031 322.0625 C 626.691406 321.601562 625.894531 320.039062 624.34375 319.238281 C 623.636719 324.503906 627.023438 332.113281 624.34375 334.769531 C 619.597656 331.980469 625.390625 318.660156 619.402344 317.121094 C 615.859375 325.050781 624.050781 334.390625 619.402344 341.121094 C 619.679688 335.945312 616.558594 329.765625 615.871094 324.179688 C 615.441406 320.722656 618 314.96875 613.753906 314.296875 C 611.851562 322.542969 613.941406 332.324219 611.632812 341.121094 C 607.375 332.683594 611.898438 322.511719 611.632812 311.472656 C 610.296875 311.632812 610.074219 310.675781 608.808594 310.765625 C 609.617188 323.332031 602.824219 334.257812 604.570312 343.238281 Z M 634.230469 322.0625 C 635.882812 322.296875 637.152344 322.910156 638.46875 323.472656 C 639.253906 322.136719 639.371094 320.140625 639.882812 318.53125 C 636.480469 318.191406 635.011719 319.78125 634.230469 322.0625 Z M 345.386719 322.0625 C 345.277344 322.894531 345.507812 324.066406 344.683594 324.179688 C 334.734375 324.589844 327.160156 327.371094 317.140625 327.710938 C 315.410156 328.648438 318.414062 329.839844 316.433594 330.535156 C 308.996094 334.628906 296.050781 333.21875 290.304688 339.003906 C 319.632812 336.226562 341.933594 326.15625 373.640625 324.179688 C 374.972656 324.101562 374.128906 321.847656 375.757812 322.0625 C 379.457031 323.785156 387.429688 324.972656 392 323.472656 C 379.179688 317.261719 358.96875 320.921875 345.386719 322.0625 Z M 275.472656 329.121094 C 270.214844 326.839844 265.824219 324.511719 259.9375 324.179688 C 249.855469 323.613281 239.238281 326.476562 228.15625 327.710938 C 219.058594 328.722656 208.105469 328.15625 203.4375 329.828125 C 196.464844 332.324219 187.210938 330.429688 180.839844 333.355469 C 191.164062 331.75 201.261719 333.835938 211.207031 332.652344 C 212.792969 332.460938 214.605469 330.792969 216.148438 330.535156 C 218.90625 330.074219 221.660156 331.445312 224.625 331.238281 C 229.046875 330.933594 233.742188 328.949219 238.042969 328.414062 C 240.292969 328.136719 242.484375 328.667969 245.105469 328.414062 C 248.765625 328.0625 252.824219 326.335938 256.40625 326.296875 C 268.402344 326.167969 277.941406 332.175781 288.1875 336.179688 C 286.414062 331.113281 279.679688 330.945312 275.472656 329.121094 Z M 377.875 327.707031 C 375.984375 327.917969 379.75 324.96875 376.460938 325.589844 C 363.253906 326.371094 343.699219 330.53125 331.265625 333.355469 C 320.40625 335.820312 307.964844 338.792969 298.070312 340.417969 C 293.648438 341.140625 288.0625 340.222656 284.652344 343.945312 C 327.5625 341.175781 358.597656 329.78125 402.589844 329.121094 C 396.722656 325.601562 385.894531 327.296875 377.875 327.707031 Z M 281.828125 335.472656 C 279.464844 334.304688 277.265625 332.976562 273.351562 333.355469 C 269.828125 331.246094 262.4375 328.578125 258.523438 328.414062 C 253.699219 328.210938 248.648438 330.824219 243.691406 331.238281 C 241.238281 331.445312 238.941406 330.386719 236.628906 330.535156 C 232.144531 330.820312 227.800781 332.75 223.210938 333.355469 C 220.199219 333.753906 216.976562 332.996094 214.03125 333.355469 C 211.289062 333.695312 208.898438 335.1875 206.261719 335.476562 C 193.03125 336.910156 180.15625 333.878906 169.539062 336.886719 C 182.28125 338.769531 196.640625 340.261719 211.207031 337.59375 C 213.160156 337.234375 214.867188 335.648438 216.855469 335.476562 C 220.777344 335.128906 226.652344 337.222656 230.980469 336.179688 C 233.945312 332.726562 240.773438 334.660156 245.8125 334.0625 C 247.925781 333.8125 249.316406 332.246094 251.460938 331.945312 C 255.390625 331.390625 264.59375 331.796875 268.410156 332.648438 C 275.945312 334.335938 279.816406 340.957031 286.066406 339.710938 C 287.996094 337.265625 283.214844 336.8125 281.828125 335.472656 Z M 569.261719 328.414062 C 564.4375 330.789062 564.964844 336.769531 562.90625 341.121094 C 559.78125 347.703125 554.726562 353.425781 551.605469 359.476562 C 552.464844 359.558594 553.277344 359.6875 553.015625 360.886719 C 551.652344 363.761719 548.148438 364.496094 547.367188 367.949219 C 551.296875 367.640625 552.832031 364.941406 555.839844 363.714844 C 561.203125 352.835938 567.125 342.519531 571.378906 330.535156 C 567.941406 330.625 568.535156 334.75 566.433594 336.183594 C 566.613281 332.828125 569.160156 331.84375 569.261719 328.414062 Z M 298.070312 334.0625 C 305.464844 334.15625 309.277344 330.675781 315.023438 329.121094 C 308.605469 330.003906 302.070312 330.765625 298.070312 334.0625 Z M 149.765625 332.648438 C 152.398438 332.332031 156.140625 335.328125 156.828125 332.648438 C 154.601562 331.417969 151.214844 330.488281 149.765625 332.648438 Z M 281.121094 346.0625 C 278.242188 349.773438 272.402344 350.523438 270.53125 355.242188 C 286.011719 354.757812 299.042969 350.433594 311.492188 348.886719 C 314.09375 348.5625 316.835938 349.238281 319.257812 348.886719 C 324.023438 348.203125 328.136719 346.269531 332.675781 345.359375 C 338.199219 344.25 342.953125 345.210938 347.507812 344.652344 C 349.539062 344.402344 351.722656 343.039062 353.863281 342.535156 C 360.132812 341.058594 367.585938 339.957031 374.34375 339.003906 C 379.011719 338.347656 383.898438 339.101562 388.46875 338.300781 C 389.996094 338.03125 391.125 337.03125 392.703125 336.886719 C 398.378906 336.367188 404.289062 337.804688 410.359375 336.183594 C 410.691406 331.355469 399.546875 335.847656 404.710938 332.652344 C 361.964844 329.707031 324.0625 345.625 281.121094 346.0625 Z M 162.476562 334.0625 C 166.566406 333.910156 169.640625 335.6875 172.363281 333.355469 C 170.507812 332.050781 162.355469 333.464844 162.476562 334.0625 Z M 569.261719 343.238281 C 566.011719 350.769531 561.230469 356.65625 557.960938 363.710938 C 563.125 365.136719 566.933594 367.917969 572.789062 368.652344 C 573.285156 366.988281 575.066406 362.980469 576.320312 364.417969 C 575.898438 367.03125 575.160156 368.507812 577.027344 370.066406 C 583.089844 368.59375 588.949219 366.921875 592.5625 363.003906 C 592.722656 364.339844 591.769531 364.5625 591.859375 365.828125 C 606.484375 364.445312 617.828125 359.785156 631.40625 357.355469 C 630.816406 352.296875 635.875 352.878906 636.351562 348.886719 C 628.539062 347.433594 629.863281 355.109375 624.34375 355.945312 C 624.363281 351.730469 628.984375 352.109375 629.285156 348.179688 C 621.867188 347.589844 623.445312 355.992188 617.988281 357.355469 C 618.304688 353.441406 622.207031 353.105469 622.222656 348.886719 C 615.480469 347.582031 608.097656 349.226562 598.917969 348.886719 C 595.4375 352.699219 594.773438 359.328125 589.03125 360.886719 C 589.945312 355.917969 594.398438 354.484375 595.386719 349.59375 C 587.382812 347.675781 589.1875 361.132812 581.96875 362.300781 C 583.855469 355.953125 588.554688 352.414062 591.148438 346.769531 C 589.660156 346.140625 589.0625 344.617188 586.914062 344.652344 C 586.453125 348.105469 583.648438 350.804688 581.96875 353.828125 C 580.386719 356.683594 579.902344 361.769531 575.613281 362.300781 C 577.113281 354.808594 584.3125 349.410156 584.796875 343.238281 C 583.15625 343.464844 582.085938 343.125 581.265625 342.535156 C 579.128906 345.53125 578.257812 350.136719 576.320312 353.828125 C 574.578125 357.144531 572.140625 361.65625 569.257812 361.59375 C 570.925781 355.964844 575.273438 353.015625 576.320312 346.769531 C 578.445312 345.414062 581.015625 339.597656 577.027344 338.300781 C 572.9375 346.210938 571.339844 356.617188 563.609375 360.886719 C 568.183594 352.988281 572.128906 344.460938 576.320312 336.179688 C 575.417969 334.726562 575.195312 332.601562 572.789062 332.652344 C 570.738281 335.789062 570.574219 340.1875 569.261719 343.238281 Z M 226.742188 338.296875 C 214.308594 339.578125 202.925781 338.167969 192.84375 341.828125 C 222.292969 346.277344 251.164062 336.210938 276.882812 343.945312 C 265.789062 342.988281 254.835938 344.398438 243.691406 344.652344 C 236.328125 344.816406 228.777344 345.175781 221.800781 345.355469 C 218.015625 345.453125 214.296875 344.023438 211.207031 346.0625 C 215.585938 345.777344 218.316406 349.328125 222.507812 350.296875 C 236.988281 353.652344 255.128906 346.765625 269.117188 351.710938 C 272.792969 348.558594 277.492188 346.433594 281.125 343.238281 C 269.355469 328.5625 245.84375 336.332031 226.742188 338.296875 Z M 416.011719 341.121094 C 416.09375 341.164062 416.636719 336.789062 414.597656 339.003906 C 410 336.628906 404.449219 339.667969 399.058594 339.710938 C 396.835938 339.726562 395.21875 338.886719 393.410156 339.003906 C 382.121094 339.738281 370.410156 343.117188 358.804688 344.652344 C 351.738281 345.585938 344.386719 344.253906 338.324219 347.476562 C 344.90625 348.910156 354.285156 349.566406 362.335938 348.886719 C 381.996094 347.226562 399.257812 344.195312 417.421875 344.652344 C 419.417969 344.703125 422.867188 346.878906 424.484375 343.945312 C 423.050781 339.613281 418.082031 342.230469 416.011719 341.121094 Z M 437.902344 351.003906 C 440.320312 348.480469 444.421875 347.632812 446.378906 344.652344 C 441.066406 345.832031 436.367188 346.84375 432.253906 346.0625 C 434.953125 346.894531 437.5625 347.816406 437.902344 351.003906 Z M 366.574219 351.003906 C 381.199219 356.492188 399.347656 351.421875 416.011719 351.710938 C 424.019531 351.847656 431.570312 354.730469 438.609375 353.121094 C 435.066406 350.308594 430.429688 348.59375 425.191406 347.476562 C 422.699219 347.683594 427.683594 349.386719 425.191406 349.59375 C 422.804688 347.773438 418.570312 351.179688 416.007812 348.886719 C 418.90625 348.960938 421.773438 349.003906 423.070312 347.476562 C 405.234375 346.648438 385.371094 347.382812 366.574219 351.003906 Z M 264.878906 357.355469 C 262.582031 358.609375 260.617188 360.402344 257.816406 361.59375 C 252.839844 363.714844 245.691406 363.46875 243.691406 368.652344 C 247.671875 370.164062 250.617188 366.8125 254.285156 365.828125 C 264.796875 363.011719 276.476562 362.917969 288.183594 361.59375 C 304.929688 359.699219 324.988281 352.394531 337.621094 347.476562 C 312.910156 350.304688 291.269531 356.207031 264.878906 357.355469 Z M 230.980469 353.828125 C 236.449219 355.371094 243.699219 358.371094 249.34375 360.183594 C 254.371094 361.796875 256.675781 359.191406 259.9375 357.359375 C 262.15625 356.109375 265.09375 355.515625 266.292969 353.125 C 254.550781 351.363281 244.949219 353.203125 230.980469 353.828125 Z M 392.703125 355.242188 C 392.15625 355.398438 391.3125 355.257812 391.292969 355.945312 C 399.613281 357.746094 407.335938 360.144531 416.007812 361.59375 C 418.421875 362.121094 416.90625 358.726562 419.539062 359.476562 C 430.664062 359.226562 437.753906 359.265625 447.082031 358.769531 C 434.691406 353.175781 409.765625 354.402344 392.703125 355.242188 Z M 134.226562 382.769531 C 136.402344 382.75 139.226562 384.835938 139.171875 381.359375 C 136.984375 381.289062 135.253906 381.679688 134.226562 382.769531 Z M 127.871094 384.183594 C 126.0625 384.257812 124.507812 384.582031 123.632812 385.597656 C 128.214844 386.53125 134.054688 387.394531 137.757812 385.597656 C 134.585938 384.050781 127.847656 382.339844 125.046875 382.773438 C 126.363281 382.867188 127.410156 383.234375 127.871094 384.183594 Z M 115.867188 386.300781 C 118.160156 386.242188 120.210938 385.9375 121.515625 384.890625 C 119.667969 384.175781 116.234375 383.703125 115.867188 386.300781 Z M 243.691406 393.359375 C 244.996094 393.527344 250.078125 395.648438 250.046875 392.652344 C 248.941406 391.136719 244.105469 391.84375 243.691406 393.359375 Z M 243.691406 393.359375 " fill-opacity="1" fill-rule="evenodd"/></g><path fill="#000000" d="M 541.714844 305.121094 C 544.738281 304.925781 541.464844 307.910156 540.304688 307.945312 C 534.132812 318.480469 529.019531 330.078125 521.234375 339.003906 C 520.402344 336.738281 524.023438 332.867188 526.179688 331.242188 C 529.933594 321.109375 536.1875 313.472656 541.714844 305.121094 Z M 541.714844 305.121094 " fill-opacity="1" fill-rule="evenodd"/><path fill="#000000" d="M 493.695312 339.710938 C 498.980469 332.988281 508.660156 324.550781 514.175781 315.710938 C 510.902344 324.441406 501.539062 333.191406 493.695312 339.710938 Z M 493.695312 339.710938 " fill-opacity="1" fill-rule="evenodd"/><path fill="#000000" d="M 562.195312 327.707031 C 562.273438 330.855469 559.21875 336.957031 557.960938 341.121094 C 557.1875 337.277344 560.636719 331.570312 562.195312 327.707031 Z M 562.195312 327.707031 " fill-opacity="1" fill-rule="evenodd"/><path fill="#000000" d="M 531.832031 339.003906 C 534.59375 339.382812 529.988281 343.433594 529.710938 345.355469 C 527.472656 343.074219 532.042969 341.605469 531.832031 339.003906 Z M 531.832031 339.003906 " fill-opacity="1" fill-rule="evenodd"/><path fill="#000000" d="M 413.1875 340.417969 C 412.582031 343.445312 406.925781 339.339844 404.710938 341.828125 C 404.117188 340.226562 410.914062 339.605469 413.1875 340.417969 Z M 413.1875 340.417969 " fill-opacity="1" fill-rule="evenodd"/><path fill="#000000" d="M 519.117188 339.710938 C 520.308594 340.71875 518.035156 344.234375 516.292969 344.652344 C 516.429688 342.199219 518.792969 341.972656 519.117188 339.710938 Z M 519.117188 339.710938 " fill-opacity="1" fill-rule="evenodd"/><path fill="#000000" d="M 279.710938 393.359375 C 277.34375 393.578125 278.996094 397.824219 276.886719 398.300781 C 279.121094 400.550781 283.964844 397.410156 286.066406 400.417969 C 284.210938 403.976562 278.789062 401.617188 274.0625 401.121094 C 273.671875 399.558594 275.410156 400.117188 275.472656 399.003906 C 274.199219 397.097656 272.882812 401.066406 269.824219 399.710938 C 269.5 397.503906 271.332031 397.453125 273.355469 397.59375 C 275.9375 388.746094 287.699219 390.738281 300.191406 389.828125 C 302.996094 389.621094 306.738281 389.011719 308.664062 389.121094 C 310.640625 389.230469 312.417969 390.652344 314.316406 390.535156 C 319.246094 390.226562 323.4375 386.121094 327.734375 388.417969 C 329.5 388.535156 329.945312 387.332031 330.558594 386.296875 C 332.699219 387.125 334.34375 388.441406 336.914062 387.003906 C 337.6875 389.246094 334.113281 392.460938 331.265625 393.355469 C 328.585938 389.371094 320.511719 390.421875 315.730469 391.945312 C 320.042969 394.457031 326.863281 394.460938 331.265625 396.886719 C 329.792969 397.769531 328.289062 398.613281 327.027344 399.707031 C 322.25 399.628906 321.195312 393.367188 315.726562 396.179688 C 313.347656 395.96875 313.679688 393.050781 311.488281 392.648438 C 308.527344 392.277344 307.546875 393.882812 305.132812 394.0625 C 305.59375 396.636719 304.65625 397.820312 303.722656 399 C 306.964844 399.652344 307.132812 397.234375 310.078125 397.589844 C 310.167969 398.855469 309.214844 399.078125 309.371094 400.414062 C 309.992188 401.664062 312.207031 398.597656 314.3125 399 C 315.222656 398.617188 315.519531 401.53125 316.433594 401.824219 C 317.109375 402.039062 317.734375 400.40625 318.550781 400.410156 C 319.738281 400.421875 320.730469 401.75 322.082031 401.824219 C 323.4375 401.898438 324.71875 400.464844 326.320312 400.410156 C 327.441406 400.375 328.589844 401.625 329.851562 401.824219 C 336.546875 402.875 343.796875 400.738281 349.625 403.941406 C 341.699219 404.296875 332.308594 404.324219 322.789062 403.941406 C 315.246094 403.640625 307.496094 404.148438 300.898438 402.53125 C 300.417969 397.816406 302.855469 396.015625 303.722656 392.644531 C 300.71875 392.460938 292.816406 390.574219 291.714844 395.46875 C 293.191406 398.230469 295.125 400.53125 298.777344 401.117188 C 298.285156 404.222656 288.445312 404.5625 288.890625 400.410156 L 291.714844 400.410156 L 291.714844 397.589844 C 287.898438 398.039062 285.707031 390.734375 279.710938 393.359375 Z M 279.710938 393.359375 " fill-opacity="1" fill-rule="evenodd"/><path fill="#000000" d="M 357.394531 400.417969 C 355.859375 397.820312 355.824219 402.53125 353.863281 401.832031 C 353.863281 396.761719 359.148438 393.644531 362.335938 394.066406 C 362.117188 395.726562 358.988281 394.484375 359.511719 396.890625 C 364.414062 397.082031 364.285156 392.25 368.695312 391.949219 C 368.820312 394.425781 366.308594 394.269531 365.871094 396.183594 C 369.597656 396.851562 370.425781 394.621094 372.226562 393.359375 C 375.714844 394.785156 370.398438 395.707031 370.8125 398.300781 C 374.164062 398.121094 374.433594 394.863281 378.582031 395.476562 C 378.230469 398.417969 375.390625 398.875 372.933594 399.714844 C 375.238281 404.085938 377.898438 398.710938 380.699219 397.597656 C 383.675781 398.476562 380.632812 400.488281 380.699219 402.535156 C 383.941406 403.1875 384.113281 400.769531 387.054688 401.125 C 385.679688 404.710938 381.429688 406.105469 377.875 403.945312 C 375.9375 405.472656 378.578125 407.1875 377.167969 408.886719 C 391.339844 410.941406 412.148438 411.71875 424.484375 408.886719 C 420.074219 408.070312 413.4375 407.335938 408.242188 406.769531 C 405.605469 406.484375 401.054688 408.839844 401.179688 404.652344 C 410.652344 401.34375 416.628906 407.722656 430.136719 406.066406 C 432.410156 405.515625 432.59375 402.875 433.667969 401.125 C 435.824219 400.234375 440.867188 401.691406 444.96875 401.125 C 445.765625 403.386719 446.402344 405.808594 446.378906 408.890625 C 443.269531 406.351562 439.242188 404.210938 432.960938 406.066406 C 431.875 408.558594 433.34375 409.222656 432.257812 411.714844 C 418.59375 413.125 399.742188 412.292969 381.40625 412.417969 C 378.847656 412.4375 375.015625 410.027344 373.640625 413.832031 C 375.808594 415.953125 379.417969 413.527344 381.40625 413.125 C 387.222656 415.492188 394.339844 415.941406 401.179688 415.949219 C 408.082031 415.960938 414.980469 413.367188 421.660156 413.832031 C 427.011719 414.207031 431.140625 416.386719 435.785156 415.949219 C 431.558594 420.292969 425.699219 416.996094 420.25 416.652344 C 402.667969 415.558594 381.167969 419.6875 367.28125 415.949219 C 365.367188 416.625 367.949219 421.792969 365.164062 421.597656 C 362.238281 421.695312 364.425781 416.683594 363.75 414.539062 C 368.980469 413.648438 373.515625 412.0625 375.050781 407.476562 C 374.933594 402.890625 370.238281 402.871094 368.695312 399.710938 C 365.375 399.21875 365.902344 402.566406 363.75 403.242188 C 360.320312 403.105469 357 403.082031 355.277344 404.652344 C 354.609375 410.261719 357.109375 412.707031 360.222656 414.539062 C 359.339844 417.511719 357.324219 414.46875 355.277344 414.539062 C 353.710938 415.324219 353.363281 417.332031 351.746094 418.066406 C 325.144531 419.203125 304.738281 419.101562 282.535156 420.183594 C 286.214844 415.492188 295.148438 417.125 305.136719 416.652344 C 318.390625 416.027344 331.871094 416.507812 342.566406 415.949219 C 345.105469 413.546875 347.316406 410.816406 353.160156 411.714844 C 351.671875 408.621094 353.296875 401.972656 357.394531 400.417969 Z M 357.394531 400.417969 " fill-opacity="1" fill-rule="evenodd"/><path fill="#000000" d="M 221.800781 425.125 C 223.527344 426.792969 220.746094 426.4375 221.09375 428.65625 C 225.722656 429.988281 225.359375 426.328125 228.15625 425.832031 C 227.929688 427.46875 228.269531 428.542969 228.863281 429.363281 C 236.898438 429.007812 249.691406 429.609375 259.9375 429.363281 C 257.664062 426.695312 249.480469 429.933594 250.050781 424.421875 C 252.710938 422.898438 253.039062 425.527344 255.699219 425.832031 C 265.910156 427.863281 277.535156 428.480469 288.183594 430.070312 C 284.53125 434.0625 276.4375 430.804688 268.410156 431.480469 C 249.992188 433.03125 228.589844 432.824219 206.96875 431.480469 C 203.574219 431.269531 200.070312 430.007812 197.082031 430.070312 C 195.523438 430.101562 193.746094 431.238281 192.140625 431.480469 C 186.832031 432.289062 181.683594 430.582031 175.898438 430.070312 C 165.617188 429.160156 156.390625 430.980469 146.941406 430.773438 C 141.761719 430.664062 137.132812 429.757812 132.109375 430.070312 C 126.304688 430.425781 120.484375 431.808594 114.457031 432.1875 C 104.25 432.824219 92.546875 430.824219 84.089844 433.597656 C 70.46875 430.40625 48.203125 437.257812 33.242188 432.894531 C 41.371094 429.019531 58.199219 433.839844 66.433594 430.070312 C 51.710938 427.753906 36.566406 428.71875 25.472656 427.953125 C 19.847656 427.5625 12.949219 429.4375 7.109375 426.539062 C 7.554688 423.605469 12.523438 425.085938 16.996094 425.128906 C 29.484375 425.246094 42.527344 426.066406 55.839844 426.539062 C 64.410156 426.84375 73.398438 425.394531 81.261719 425.835938 C 85.902344 426.09375 90.390625 428.882812 94.683594 427.246094 C 97.777344 426.503906 97.003906 429.636719 99.625 429.363281 C 128.195312 426.796875 153.855469 425.65625 185.078125 428.660156 C 187.6875 428.679688 187.640625 426.042969 189.316406 425.128906 C 192.425781 425.019531 189.515625 427.125 189.316406 427.953125 C 192.109375 426.511719 196.171875 426.335938 197.789062 423.71875 C 196.960938 419.585938 192.957031 425.496094 191.433594 423.011719 C 191.4375 420.191406 192.847656 418.773438 192.847656 415.953125 C 189.480469 412.9375 186.480469 417.40625 182.960938 414.539062 C 177.550781 415.945312 181.480469 420.195312 180.136719 423.71875 C 171.992188 416.085938 184.09375 407.34375 193.554688 412.421875 C 194.492188 417.792969 196.601562 418.164062 199.910156 421.601562 C 200.320312 424.363281 199.304688 425.699219 198.5 427.246094 C 206.203125 429.023438 216.925781 429.636719 221.800781 425.125 Z M 221.800781 425.125 " fill-opacity="1" fill-rule="evenodd"/></svg>