<svg xmlns="http://www.w3.org/2000/svg" xmlns:xlink="http://www.w3.org/1999/xlink" width="940" zoomAndPan="magnify" viewBox="0 0 705 591.000005" height="788" preserveAspectRatio="xMidYMid meet" version="1.0"><defs><clipPath id="579e1f0e67"><path d="M 106 109.632812 L 623.757812 109.632812 L 623.757812 523.683594 L 106 523.683594 Z M 106 109.632812 " clip-rule="nonzero"/></clipPath><clipPath id="8ffcf250ad"><path d="M 123 162 L 589 162 L 589 523.683594 L 123 523.683594 Z M 123 162 " clip-rule="nonzero"/></clipPath><clipPath id="4ef03dec9a"><path d="M 106 109.632812 L 623.757812 109.632812 L 623.757812 518 L 106 518 Z M 106 109.632812 " clip-rule="nonzero"/></clipPath></defs><path fill="#ffffff" d="M 229.796875 181.46875 C 238.351562 183.109375 239.402344 184.164062 241.042969 192.714844 C 241.121094 193.128906 241.484375 193.425781 241.90625 193.425781 C 242.324219 193.425781 242.691406 193.125 242.769531 192.714844 C 244.410156 184.160156 245.460938 183.109375 254.015625 181.46875 C 254.429688 181.390625 254.730469 181.027344 254.730469 180.605469 C 254.730469 180.183594 254.429688 179.820312 254.015625 179.742188 C 245.460938 178.101562 244.410156 177.050781 242.769531 168.5 C 242.691406 168.085938 242.324219 167.785156 241.90625 167.785156 C 241.484375 167.785156 241.121094 168.085938 241.042969 168.5 C 239.402344 177.050781 238.351562 178.101562 229.796875 179.742188 C 229.378906 179.820312 229.082031 180.183594 229.082031 180.605469 C 229.082031 181.027344 229.382812 181.390625 229.796875 181.46875 Z M 229.796875 181.46875 " fill-opacity="1" fill-rule="nonzero"/><path fill="#ffffff" d="M 397.359375 346.003906 C 405.910156 347.644531 406.964844 348.695312 408.601562 357.246094 C 408.683594 357.660156 409.046875 357.960938 409.464844 357.960938 C 409.886719 357.960938 410.25 357.660156 410.332031 357.246094 C 411.972656 348.695312 413.023438 347.644531 421.578125 346.003906 C 421.992188 345.921875 422.289062 345.558594 422.289062 345.140625 C 422.289062 344.71875 421.988281 344.355469 421.578125 344.277344 C 413.023438 342.636719 411.972656 341.582031 410.332031 333.03125 C 410.25 332.617188 409.886719 332.320312 409.464844 332.320312 C 409.046875 332.320312 408.683594 332.617188 408.601562 333.03125 C 406.964844 341.582031 405.910156 342.636719 397.359375 344.277344 C 396.941406 344.355469 396.644531 344.71875 396.644531 345.140625 C 396.644531 345.558594 396.945312 345.921875 397.359375 346.003906 Z M 397.359375 346.003906 " fill-opacity="1" fill-rule="nonzero"/><path fill="#ffffff" d="M 130.859375 404.328125 C 130.941406 404.742188 131.304688 405.042969 131.722656 405.042969 C 132.144531 405.042969 132.507812 404.742188 132.589844 404.328125 C 134.230469 395.777344 135.28125 394.726562 143.835938 393.085938 C 144.25 393.007812 144.546875 392.644531 144.546875 392.222656 C 144.546875 391.800781 144.246094 391.4375 143.835938 391.359375 C 135.28125 389.71875 134.230469 388.667969 132.589844 380.113281 C 132.507812 379.699219 132.144531 379.402344 131.722656 379.402344 C 131.304688 379.402344 130.941406 379.703125 130.859375 380.113281 C 129.222656 388.664062 128.167969 389.71875 119.617188 391.359375 C 119.199219 391.4375 118.902344 391.800781 118.902344 392.222656 C 118.902344 392.644531 119.203125 393.007812 119.617188 393.085938 C 128.167969 394.726562 129.21875 395.777344 130.859375 404.328125 Z M 130.859375 404.328125 " fill-opacity="1" fill-rule="nonzero"/><path fill="#ffffff" d="M 436.953125 284.367188 L 439.707031 284.367188 C 440.253906 288.925781 444.128906 292.464844 448.835938 292.464844 L 522.769531 292.464844 C 527.847656 292.464844 531.96875 288.347656 531.96875 283.265625 L 531.96875 209.355469 C 531.96875 204.277344 527.847656 200.15625 522.769531 200.15625 L 520.949219 200.15625 C 520.832031 194.703125 516.367188 190.296875 510.882812 190.296875 L 436.949219 190.296875 C 431.394531 190.296875 426.871094 194.820312 426.871094 200.378906 L 426.871094 274.289062 C 426.871094 279.84375 431.394531 284.367188 436.953125 284.367188 Z M 436.953125 284.367188 " fill-opacity="1" fill-rule="nonzero"/><g clip-path="url(#579e1f0e67)"><path fill="#ffffff" d="M 622.625 494.421875 L 586.742188 494.421875 C 587.742188 488.539062 588.199219 482.566406 588.039062 476.640625 L 588.035156 476.292969 C 588.035156 476.089844 587.953125 475.898438 587.808594 475.753906 C 587.664062 475.617188 587.476562 475.539062 587.277344 475.535156 C 587.273438 475.535156 587.269531 475.535156 587.265625 475.539062 L 579.429688 475.628906 L 574.507812 475.6875 C 574.851562 464.765625 574.6875 450.582031 575.03125 438.558594 C 575.117188 435.710938 575.136719 432.699219 573.707031 430.238281 C 572.277344 427.777344 568.839844 426.257812 566.480469 427.859375 C 564.753906 429.03125 564.253906 431.316406 563.988281 433.386719 C 563.511719 437.023438 563.324219 440.699219 563.285156 444.367188 C 563.265625 446.199219 563.28125 448.03125 563.316406 449.863281 C 563.347656 451.488281 563.585938 453.214844 563.460938 454.828125 C 563.445312 454.992188 563.4375 455.15625 563.421875 455.324219 C 563.386719 455.730469 563.308594 456.144531 563.078125 456.476562 C 562.417969 457.421875 561.191406 456.753906 560.503906 456.214844 C 559.664062 455.554688 559.03125 454.65625 558.28125 453.890625 C 557.488281 453.089844 556.523438 452.40625 555.429688 452.128906 C 554.335938 451.847656 553.089844 452.011719 552.214844 452.730469 C 550.886719 453.808594 550.726562 455.871094 551.433594 457.429688 C 552.132812 458.980469 553.496094 460.132812 554.882812 461.125 C 557.699219 463.152344 560.84375 464.859375 562.144531 466.835938 C 563.289062 468.464844 563.394531 470.582031 563.460938 472.574219 C 563.496094 473.65625 563.53125 474.734375 563.566406 475.816406 L 548.65625 475.992188 C 548.242188 475.996094 547.910156 476.414062 547.902344 476.828125 C 547.800781 482.746094 548.292969 488.628906 549.324219 494.421875 L 515.847656 494.421875 C 515.792969 494.671875 515.738281 494.914062 515.683594 495.164062 C 517.277344 487.878906 519.144531 479.355469 521.082031 470.503906 C 525.082031 452.25 529.371094 432.652344 532.148438 419.898438 C 532.945312 416.292969 532.070312 412.570312 529.746094 409.6875 C 527.433594 406.8125 523.980469 405.164062 520.28125 405.164062 L 362.890625 405.164062 C 361.792969 405.164062 360.726562 405.316406 359.703125 405.597656 C 363.972656 366.464844 380.640625 309.378906 380.207031 272.722656 C 379.761719 235.078125 374.074219 206.601562 363.96875 171.273438 C 363.992188 171.261719 364.019531 171.253906 364.046875 171.242188 C 364.4375 171.082031 364.625 170.636719 364.464844 170.25 C 364.316406 169.882812 363.914062 169.707031 363.546875 169.816406 C 363.125 168.355469 362.710938 166.90625 362.277344 165.421875 C 362.152344 165.027344 362.074219 164.644531 361.980469 164.257812 C 362.035156 164.242188 362.089844 164.226562 362.140625 164.207031 C 362.152344 164.207031 362.253906 164.175781 362.261719 164.171875 C 362.625 164.054688 362.871094 163.722656 362.875 163.34375 C 362.925781 158.789062 363.359375 151.410156 364.035156 149.402344 C 364.484375 148.0625 365.085938 146.742188 365.664062 145.460938 C 366.144531 144.402344 366.640625 143.308594 367.0625 142.1875 C 369.980469 134.449219 369.34375 125.445312 365.378906 118.140625 C 364.675781 116.683594 363.242188 115.441406 361.539062 114.824219 C 360.1875 114.332031 358.875 114.339844 357.8125 114.84375 C 356.761719 112.738281 355.328125 111.554688 353.453125 111.234375 C 352.160156 111.011719 350.777344 111.300781 349.632812 112 C 348.464844 111.011719 347.261719 110.167969 345.78125 109.9375 C 343.964844 109.636719 342.011719 110.394531 340.5625 111.9375 C 340.191406 112.335938 339.855469 112.777344 339.546875 113.273438 C 337.785156 112.0625 335.578125 111.515625 333.511719 111.8125 C 332.558594 111.9375 331.796875 112.222656 331.179688 112.679688 C 330.425781 113.230469 329.949219 113.992188 329.558594 114.667969 C 327.589844 118.097656 326.597656 121.5 326.375 125.625 C 325.804688 125.835938 325.304688 126.089844 324.859375 126.402344 C 322.144531 128.300781 321.65625 132.125 322.375 135.070312 C 322.921875 137.308594 324.03125 139.3125 325.101562 141.25 C 325.433594 141.847656 325.765625 142.445312 326.082031 143.054688 C 329.078125 148.824219 330.535156 155.304688 330.289062 161.792969 C 330.273438 162.125 330.460938 162.429688 330.746094 162.585938 C 331.035156 164.984375 331.292969 167.382812 331.535156 169.785156 C 331.25 169.816406 331 170.007812 330.902344 170.296875 C 330.769531 170.695312 330.984375 171.125 331.382812 171.261719 C 331.425781 171.273438 331.539062 171.3125 331.6875 171.359375 C 334.570312 201.097656 334.039062 230.988281 331.679688 260.640625 C 330.816406 271.472656 329.6875 282.378906 327.675781 293.058594 C 327.625 292.433594 327.574219 291.804688 327.539062 291.171875 C 327.480469 290.207031 326.335938 288.742188 325.339844 288.238281 C 324.660156 279.148438 322.714844 268.714844 319.496094 256.984375 L 314.414062 238.480469 C 314.390625 238.402344 314.34375 238.339844 314.300781 238.273438 C 314.894531 237.886719 315.476562 237.480469 316.03125 237.042969 C 319.15625 234.125 321.605469 230.367188 322.441406 226.183594 C 323.285156 221.996094 322.363281 217.367188 319.546875 214.15625 C 318.152344 212.5625 316.351562 211.371094 314.460938 210.417969 C 310.277344 208.3125 305.53125 207.339844 300.859375 207.632812 C 293.359375 208.109375 286.433594 211.722656 280.390625 215.695312 C 270.859375 219.609375 260.636719 221.609375 251.007812 225.273438 C 241.378906 228.941406 231.960938 234.695312 227.0625 243.761719 C 220.804688 255.34375 223.246094 269.761719 228.425781 282.3125 C 228.578125 282.625 228.730469 282.9375 228.878906 283.253906 C 227.179688 283.597656 225.582031 284.414062 224.375 285.585938 C 223.414062 286.519531 222.613281 287.722656 222.070312 289.0625 C 220.140625 293.769531 221.738281 299.652344 225.78125 302.746094 C 228.9375 305.152344 233.382812 305.734375 237.203125 304.265625 C 238.046875 306.097656 238.894531 307.945312 239.742188 309.800781 C 239.816406 311.816406 239.828125 313.769531 239.707031 315.589844 C 239.28125 321.898438 239.910156 331.535156 240.75 337.804688 C 240.910156 339.011719 241.152344 340.226562 241.472656 341.417969 C 225.15625 330.519531 217.410156 318.339844 208.488281 303.617188 C 198.433594 287.023438 191.214844 268.890625 184.496094 250.695312 C 176.058594 227.832031 168.335938 204.703125 161.351562 181.355469 C 161.402344 181.328125 161.457031 181.300781 161.507812 181.273438 C 161.871094 181.058594 161.996094 180.59375 161.785156 180.230469 C 161.605469 179.917969 161.242188 179.796875 160.910156 179.894531 C 160.015625 176.890625 159.136719 173.878906 158.265625 170.867188 C 158.433594 170.78125 158.582031 170.664062 158.667969 170.496094 C 158.777344 170.28125 158.792969 170.03125 158.714844 169.804688 C 156.402344 163.109375 155.925781 155.902344 157.335938 148.960938 C 157.484375 148.234375 157.652344 147.511719 157.820312 146.785156 C 158.367188 144.4375 158.929688 142.011719 158.8125 139.519531 C 158.660156 136.25 156.945312 132.441406 153.460938 131.304688 C 152.878906 131.117188 152.246094 131 151.539062 130.957031 C 150.003906 126.710938 147.863281 123.460938 144.648438 120.476562 C 144.023438 119.902344 143.277344 119.261719 142.320312 118.921875 C 141.535156 118.648438 140.621094 118.585938 139.601562 118.734375 C 137.253906 119.066406 135.042969 120.328125 133.546875 122.160156 C 133.03125 121.703125 132.5 121.320312 131.949219 121.007812 C 129.933594 119.859375 127.640625 119.671875 125.816406 120.511719 C 124.292969 121.207031 123.257812 122.472656 122.3125 123.875 C 120.859375 123.46875 119.277344 123.585938 117.949219 124.210938 C 116.039062 125.109375 114.882812 126.789062 114.425781 129.332031 C 113.121094 129.089844 111.699219 129.472656 110.390625 130.40625 C 108.761719 131.558594 107.617188 133.269531 107.335938 134.945312 C 105.359375 143.808594 107.507812 153.371094 113.085938 160.535156 C 113.894531 161.574219 114.777344 162.5625 115.628906 163.523438 C 116.65625 164.679688 117.722656 165.878906 118.632812 167.136719 C 120.367188 169.535156 121.65625 172.320312 122.363281 175.195312 C 122.367188 175.21875 122.371094 175.246094 122.378906 175.269531 C 122.464844 175.605469 122.539062 175.941406 122.605469 176.28125 C 122.679688 176.652344 122.988281 176.917969 123.355469 176.96875 C 123.460938 178.792969 123.648438 181.855469 123.925781 185.910156 C 123.574219 185.929688 123.253906 186.203125 123.21875 186.578125 C 123.175781 186.996094 123.484375 187.371094 123.898438 187.414062 C 123.921875 187.417969 123.984375 187.421875 124.03125 187.425781 C 126.203125 218.175781 133.445312 298.285156 154.023438 337.902344 C 162.472656 354.164062 173.011719 369.355469 183.4375 384.554688 L 183.335938 384.621094 C 180.058594 387.796875 178.5 390.570312 176.933594 394.859375 C 173.804688 403.441406 174.0625 412.890625 175.320312 421.9375 C 177.570312 438.109375 182.835938 453.65625 188.433594 469.019531 L 158.644531 469.019531 C 158.191406 469.019531 157.824219 469.386719 157.824219 469.839844 L 157.824219 476.46875 C 148.21875 476.71875 140.488281 484.570312 140.488281 494.1875 C 140.488281 494.265625 140.5 494.34375 140.5 494.425781 L 111.15625 494.425781 C 110.734375 494.425781 110.390625 494.765625 110.390625 495.1875 C 110.390625 495.609375 110.734375 495.949219 111.15625 495.949219 L 140.574219 495.949219 C 140.527344 495.445312 140.503906 494.9375 140.5 494.425781 C 140.628906 504.054688 148.5 511.855469 158.195312 511.914062 C 159.734375 518.761719 165.808594 523.660156 172.898438 523.660156 L 193.324219 523.660156 C 201.636719 523.660156 208.402344 516.898438 208.402344 508.585938 L 208.402344 495.949219 L 333.246094 495.949219 C 333.308594 495.664062 333.371094 495.378906 333.433594 495.09375 C 332.839844 497.816406 332.277344 500.382812 331.773438 502.703125 C 331.664062 503.199219 331.589844 503.710938 331.546875 504.257812 L 263.300781 504.257812 C 259.554688 504.257812 256.511719 507.304688 256.511719 511.046875 C 256.511719 514.789062 259.554688 517.832031 263.300781 517.832031 L 399.347656 517.832031 C 423.234375 517.832031 447.472656 517.695312 466.949219 517.585938 C 480.773438 517.507812 492.710938 517.441406 501.03125 517.441406 C 506.710938 517.441406 511.707031 513.414062 512.910156 507.871094 C 513.628906 504.574219 514.511719 500.519531 515.511719 495.949219 L 549.589844 495.949219 C 550.351562 499.828125 551.359375 503.664062 552.621094 507.441406 C 553.414062 509.8125 554.308594 512.171875 555.285156 514.457031 C 555.40625 514.738281 555.679688 514.917969 555.980469 514.921875 C 555.984375 514.921875 555.988281 514.921875 555.988281 514.921875 L 580.332031 514.800781 C 580.640625 514.796875 580.914062 514.613281 581.03125 514.328125 C 583.484375 508.441406 585.316406 502.253906 586.496094 495.949219 L 622.625 495.949219 C 623.046875 495.949219 623.386719 495.609375 623.386719 495.1875 C 623.386719 494.765625 623.046875 494.421875 622.625 494.421875 Z M 157.820312 504.960938 C 152.664062 504.738281 148.441406 500.90625 147.613281 495.945312 L 157.820312 495.945312 Z M 157.820312 494.421875 L 147.472656 494.421875 C 147.46875 494.339844 147.460938 494.261719 147.460938 494.183594 C 147.460938 488.394531 152.066406 483.65625 157.820312 483.40625 Z M 157.820312 494.421875 " fill-opacity="1" fill-rule="nonzero"/></g><path fill="#ffffff" d="M 436.953125 283.484375 L 510.882812 283.484375 C 515.964844 283.484375 520.082031 279.367188 520.082031 274.289062 L 520.082031 200.375 C 520.082031 195.296875 515.964844 191.179688 510.882812 191.179688 L 436.953125 191.179688 C 431.871094 191.179688 427.75 195.296875 427.75 200.375 L 427.75 274.289062 C 427.75 279.367188 431.871094 283.484375 436.953125 283.484375 Z M 481.1875 260.332031 C 481.1875 263.480469 478.636719 266.03125 475.484375 266.03125 L 471.945312 266.03125 C 468.796875 266.03125 466.242188 263.480469 466.242188 260.332031 Z M 254.789062 305.648438 C 250.300781 301.953125 247.460938 291.132812 243.089844 285.5 C 241.484375 276.75 243.710938 267.371094 248.410156 259.777344 C 248.683594 259.339844 248.972656 258.921875 249.25 258.488281 C 257.328125 245.71875 269.828125 243.726562 271.570312 243.589844 C 273.6875 243.417969 276.019531 243.765625 278.152344 243.859375 C 282.847656 244.074219 287.550781 244.3125 292.257812 244.148438 C 299.832031 243.871094 307.636719 242.410156 313.679688 238.675781 C 315.371094 244.84375 317.066406 251.011719 318.761719 257.179688 C 321.933594 268.742188 323.871094 279.035156 324.566406 288.023438 L 323.816406 288.054688 L 323.867188 290.21875 C 323.992188 295.566406 322.453125 300.878906 319.222656 305.144531 C 317.589844 307.289062 315.714844 308.953125 313.867188 309.40625 C 309.8125 310.40625 306.046875 308.53125 302.21875 306.523438 C 302.214844 306.527344 302.214844 306.53125 302.210938 306.535156 C 299.875 308.804688 296.757812 310.230469 293.515625 310.613281 C 298.070312 314.46875 304.160156 316.597656 310.1875 316.300781 C 310.1875 316.300781 310.902344 316.449219 310.902344 316.449219 C 310.941406 320.628906 307.171875 323.125 303.777344 324.765625 C 299.214844 326.96875 293.832031 328.976562 288.691406 328.351562 C 282.199219 327.566406 276.632812 321.90625 272.75 317.03125 C 278.742188 317.449219 284.824219 314.847656 288.738281 310.410156 C 286.855469 310.042969 285.039062 309.34375 283.402344 308.34375 C 282.109375 307.546875 280.90625 306.546875 280.132812 305.238281 C 280.046875 305.09375 279.96875 304.941406 279.898438 304.789062 C 278.089844 305.382812 276.296875 306.023438 274.527344 306.609375 C 267.996094 308.777344 260.066406 309.992188 254.789062 305.648438 Z M 237.84375 287.65625 C 238.207031 294.007812 239.257812 301.1875 239.652344 307.753906 C 239.003906 306.332031 238.347656 304.914062 237.695312 303.496094 L 237.242188 303.421875 C 233.695312 304.914062 229.328125 304.480469 226.25 302.132812 C 222.472656 299.246094 220.980469 293.734375 222.777344 289.34375 C 223.265625 288.144531 223.980469 287.027344 224.910156 286.125 C 226.085938 284.984375 227.609375 284.234375 229.222656 283.945312 C 230.128906 283.777344 231.0625 283.761719 231.972656 283.910156 C 234.285156 284.28125 236.398438 285.710938 237.84375 287.65625 Z M 242.769531 192.714844 C 242.691406 193.128906 242.328125 193.425781 241.90625 193.425781 C 241.484375 193.425781 241.121094 193.125 241.042969 192.714844 C 239.402344 184.164062 238.351562 183.109375 229.796875 181.46875 C 229.382812 181.390625 229.082031 181.027344 229.082031 180.605469 C 229.082031 180.183594 229.382812 179.820312 229.796875 179.742188 C 238.351562 178.101562 239.402344 177.050781 241.042969 168.5 C 241.121094 168.085938 241.484375 167.785156 241.90625 167.785156 C 242.328125 167.785156 242.691406 168.085938 242.769531 168.5 C 244.410156 177.050781 245.460938 178.101562 254.015625 179.742188 C 254.429688 179.820312 254.730469 180.183594 254.730469 180.605469 C 254.730469 181.027344 254.429688 181.390625 254.015625 181.46875 C 245.460938 183.113281 244.410156 184.160156 242.769531 192.714844 Z M 520.28125 405.921875 C 484.730469 405.921875 392.355469 405.921875 362.886719 405.921875 C 357.535156 405.921875 352.902344 409.652344 351.765625 414.882812 C 347.539062 434.238281 337.554688 479.761719 332.515625 502.863281 C 332.363281 503.578125 332.292969 504.300781 332.273438 505.019531 L 263.300781 505.019531 C 259.96875 505.019531 257.273438 507.714844 257.273438 511.042969 C 257.273438 514.371094 259.96875 517.066406 263.300781 517.066406 L 399.347656 517.066406 C 440.042969 517.066406 480.882812 516.675781 501.03125 516.675781 C 506.394531 516.675781 511.027344 512.9375 512.164062 507.707031 C 516.378906 488.351562 526.378906 442.828125 531.402344 419.734375 C 532.144531 416.367188 531.316406 412.847656 529.152344 410.164062 C 526.988281 407.476562 523.722656 405.921875 520.28125 405.921875 Z M 434.015625 473.824219 C 427.539062 473.824219 422.292969 468.574219 422.292969 462.101562 C 422.292969 455.628906 427.542969 450.378906 434.015625 450.378906 C 440.492188 450.378906 445.742188 455.628906 445.742188 462.101562 C 445.742188 468.574219 440.492188 473.824219 434.015625 473.824219 Z M 119.347656 166.613281 C 117.65625 164.273438 115.554688 162.265625 113.78125 159.988281 C 108.390625 153.066406 106.285156 143.699219 108.199219 135.132812 C 108.449219 133.652344 109.480469 132.125 110.902344 131.117188 C 111.902344 130.402344 113.164062 129.949219 114.363281 130.207031 C 114.613281 130.261719 114.851562 130.34375 115.078125 130.449219 L 115.179688 130.242188 C 115.433594 128.054688 116.191406 126.007812 118.324219 125 C 119.679688 124.363281 121.292969 124.355469 122.671875 124.917969 C 123.605469 123.488281 124.632812 122.011719 126.183594 121.308594 C 127.863281 120.535156 129.902344 120.847656 131.511719 121.761719 C 132.300781 122.210938 132.992188 122.792969 133.621094 123.449219 L 133.816406 123.261719 C 135.164062 121.292969 137.367188 119.929688 139.726562 119.597656 C 140.492188 119.484375 141.292969 119.488281 142.027344 119.746094 C 142.804688 120.019531 143.449219 120.5625 144.054688 121.117188 C 147.386719 124.210938 149.4375 127.507812 150.910156 131.804688 L 150.910156 131.8125 C 151.683594 131.8125 152.453125 131.894531 153.191406 132.132812 C 156.160156 133.101562 157.789062 136.429688 157.933594 139.550781 C 158.082031 142.671875 157.097656 145.714844 156.472656 148.777344 C 155.039062 155.832031 155.53125 163.273438 157.882812 170.085938 C 146.195312 173.527344 135.53125 176.132812 123.46875 176.101562 C 123.394531 175.75 123.320312 175.394531 123.230469 175.042969 C 123.230469 175.039062 123.230469 175.035156 123.230469 175.035156 C 122.496094 172.011719 121.171875 169.140625 119.347656 166.613281 Z M 323.230469 134.859375 C 322.546875 132.066406 323.078125 128.71875 325.363281 127.117188 C 325.933594 126.722656 326.570312 126.457031 327.230469 126.265625 L 327.230469 126.257812 C 327.375 122.09375 328.273438 118.667969 330.324219 115.101562 C 330.695312 114.460938 331.105469 113.820312 331.699219 113.382812 C 332.257812 112.972656 332.945312 112.769531 333.628906 112.679688 C 335.730469 112.382812 337.960938 113.035156 339.625 114.433594 L 339.835938 114.550781 C 340.203125 113.816406 340.648438 113.128906 341.207031 112.535156 C 342.34375 111.324219 344.003906 110.539062 345.640625 110.800781 C 347.148438 111.035156 348.410156 112.085938 349.574219 113.113281 C 350.605469 112.269531 351.988281 111.875 353.308594 112.097656 C 355.390625 112.453125 356.570312 114.074219 357.351562 115.945312 L 357.492188 116.101562 C 357.660156 115.953125 357.84375 115.820312 358.042969 115.710938 C 359 115.183594 360.195312 115.269531 361.234375 115.648438 C 362.710938 116.183594 363.988281 117.277344 364.585938 118.519531 C 368.433594 125.609375 369.054688 134.410156 366.242188 141.875 C 365.3125 144.328125 364.039062 146.632812 363.199219 149.121094 C 362.464844 151.304688 362.042969 158.996094 361.996094 163.332031 C 361.914062 163.359375 361.84375 163.375 361.761719 163.402344 C 347.28125 168.339844 331.167969 161.824219 331.167969 161.824219 C 331.417969 155.21875 329.914062 148.519531 326.863281 142.644531 C 325.535156 140.09375 323.910156 137.652344 323.230469 134.859375 Z M 158.644531 477.285156 C 158.527344 477.285156 158.414062 477.277344 158.296875 477.277344 C 148.914062 477.277344 141.308594 484.84375 141.308594 494.183594 C 141.308594 503.523438 148.914062 511.089844 158.296875 511.089844 C 158.488281 511.089844 158.675781 511.082031 158.867188 511.074219 C 160.042969 517.757812 165.878906 522.835938 172.902344 522.835938 L 193.324219 522.835938 C 201.199219 522.835938 207.582031 516.457031 207.582031 508.585938 L 207.582031 469.835938 L 158.644531 469.835938 Z M 158.644531 505.78125 C 158.527344 505.785156 158.414062 505.792969 158.296875 505.792969 C 151.859375 505.792969 146.636719 500.59375 146.636719 494.183594 C 146.636719 487.769531 151.859375 482.574219 158.296875 482.574219 C 158.414062 482.574219 158.527344 482.578125 158.644531 482.582031 Z M 396.644531 345.140625 C 396.644531 344.71875 396.945312 344.355469 397.359375 344.277344 C 405.910156 342.636719 406.964844 341.582031 408.601562 333.03125 C 408.683594 332.617188 409.046875 332.320312 409.464844 332.320312 C 409.886719 332.320312 410.25 332.617188 410.332031 333.03125 C 411.972656 341.582031 413.023438 342.636719 421.578125 344.277344 C 421.992188 344.355469 422.289062 344.71875 422.289062 345.140625 C 422.289062 345.558594 421.988281 345.921875 421.578125 346.003906 C 413.023438 347.644531 411.972656 348.695312 410.332031 357.246094 C 410.25 357.660156 409.886719 357.960938 409.464844 357.960938 C 409.046875 357.960938 408.683594 357.660156 408.601562 357.246094 C 406.964844 348.695312 405.910156 347.644531 397.359375 346.003906 C 396.945312 345.921875 396.644531 345.558594 396.644531 345.140625 Z M 143.835938 393.085938 C 135.28125 394.726562 134.230469 395.777344 132.589844 404.328125 C 132.507812 404.742188 132.144531 405.042969 131.722656 405.042969 C 131.304688 405.042969 130.941406 404.742188 130.859375 404.328125 C 129.222656 395.777344 128.167969 394.726562 119.617188 393.085938 C 119.199219 393.007812 118.902344 392.644531 118.902344 392.222656 C 118.902344 391.800781 119.203125 391.4375 119.617188 391.359375 C 128.167969 389.71875 129.222656 388.664062 130.859375 380.113281 C 130.941406 379.699219 131.304688 379.402344 131.722656 379.402344 C 132.144531 379.402344 132.507812 379.699219 132.589844 380.113281 C 134.230469 388.667969 135.28125 389.71875 143.835938 391.359375 C 144.25 391.4375 144.546875 391.800781 144.546875 392.222656 C 144.546875 392.644531 144.25 393.007812 143.835938 393.085938 Z M 580.328125 514.03125 L 555.984375 514.152344 C 555.011719 511.871094 554.128906 509.550781 553.34375 507.195312 C 550.082031 497.441406 548.488281 487.125 548.667969 476.835938 L 548.667969 476.75 L 562.34375 476.585938 L 572.925781 476.464844 L 587.273438 476.296875 L 587.277344 476.644531 C 587.625 489.414062 585.238281 502.246094 580.328125 514.03125 Z M 580.328125 514.03125 " fill-opacity="1" fill-rule="nonzero"/><g clip-path="url(#8ffcf250ad)"><path fill="#537188" d="M 362.277344 165.417969 C 373.445312 203.523438 379.734375 233.015625 380.203125 272.71875 C 380.640625 309.375 363.972656 366.460938 359.703125 405.59375 C 355.429688 406.769531 351.992188 410.25 351.023438 414.71875 C 349.347656 422.390625 346.765625 434.167969 343.949219 447.035156 C 340.429688 463.101562 336.542969 480.855469 333.578125 494.417969 L 233.804688 494.417969 L 221.007812 452.785156 C 221 452.78125 220.988281 452.777344 220.988281 452.777344 L 220.988281 452.726562 C 212.941406 427.886719 198.300781 406.203125 183.441406 384.546875 C 173.015625 369.351562 162.472656 354.15625 154.027344 337.898438 C 128.511719 288.777344 123.492188 177.390625 123.234375 175.042969 C 123.324219 175.394531 123.398438 175.75 123.46875 176.101562 C 135.535156 176.132812 146.199219 173.527344 157.886719 170.085938 L 158.03125 170.046875 C 165.863281 197.238281 174.699219 224.140625 184.496094 250.6875 C 191.21875 268.886719 198.4375 287.015625 208.492188 303.609375 C 217.414062 318.332031 225.15625 330.511719 241.472656 341.410156 C 242.8125 346.410156 245.570312 351.078125 250.023438 353.75 C 251.925781 354.890625 254.085938 355.644531 255.773438 357.070312 C 258.519531 359.390625 259.535156 363.058594 260.382812 366.511719 C 261.226562 369.960938 262.164062 373.628906 264.8125 376.054688 C 267.460938 378.476562 272.441406 378.773438 274.289062 375.71875 C 274.921875 374.667969 275.148438 373.324219 277.160156 373.300781 C 278.324219 373.289062 279.425781 373.824219 280.195312 374.675781 C 284.660156 379.613281 289.121094 384.550781 293.582031 389.488281 C 295.84375 391.988281 298.246094 394.585938 301.460938 395.707031 C 304.675781 396.828125 308.925781 395.871094 310.257812 392.796875 C 311.449219 390.042969 310.371094 385.945312 313.976562 385.144531 C 315.421875 384.820312 316.898438 385.296875 318.105469 386.160156 C 322.03125 388.96875 327.976562 387.75 330.710938 383.980469 C 333.085938 380.707031 332.800781 375.835938 330.058594 372.851562 C 334.257812 373.636719 336.433594 367.820312 335.464844 363.75 C 334.496094 359.683594 335.3125 351.652344 337.214844 347.910156 C 337.804688 346.75 338.753906 345.800781 339.386719 344.660156 C 341.550781 340.765625 339.550781 336.015625 337.769531 331.9375 C 332.363281 319.542969 328.722656 306.476562 327.675781 293.058594 C 329.6875 282.375 330.820312 271.46875 331.683594 260.636719 C 334.273438 228.066406 334.675781 195.207031 330.75 162.582031 C 330.78125 162.601562 330.804688 162.625 330.839844 162.636719 C 331.320312 162.832031 339.648438 166.136719 349.75 166.136719 C 353.679688 166.136719 357.875 165.632812 361.980469 164.253906 C 362.074219 164.644531 362.152344 165.023438 362.277344 165.417969 Z M 356.632812 163.792969 C 349.601562 164.144531 342.53125 163.652344 335.617188 162.328125 C 340.324219 163.628906 348.441406 165.21875 356.632812 163.792969 Z M 522.769531 200.15625 L 520.949219 200.15625 C 520.953125 200.230469 520.960938 200.300781 520.960938 200.375 L 520.960938 274.289062 C 520.960938 279.84375 516.441406 284.363281 510.882812 284.363281 L 439.707031 284.363281 C 440.25 288.925781 444.128906 292.464844 448.835938 292.464844 L 522.765625 292.464844 C 527.847656 292.464844 531.96875 288.347656 531.96875 283.265625 L 531.96875 209.355469 C 531.96875 204.273438 527.847656 200.15625 522.769531 200.15625 Z M 471.945312 266.03125 L 475.484375 266.03125 C 478.636719 266.03125 481.1875 263.480469 481.1875 260.332031 L 466.242188 260.332031 C 466.242188 263.480469 468.796875 266.03125 471.945312 266.03125 Z M 581.03125 514.324219 C 580.914062 514.609375 580.640625 514.792969 580.332031 514.796875 L 555.988281 514.917969 C 555.988281 514.917969 555.984375 514.917969 555.980469 514.917969 C 555.679688 514.914062 555.40625 514.734375 555.285156 514.453125 C 554.308594 512.167969 553.414062 509.808594 552.621094 507.4375 C 549.3125 497.542969 547.722656 487.242188 547.902344 476.824219 C 547.910156 476.414062 548.246094 475.996094 548.65625 475.992188 L 563.566406 475.816406 C 563.53125 474.734375 563.496094 473.652344 563.460938 472.574219 C 563.394531 470.582031 563.289062 468.464844 562.144531 466.835938 C 560.84375 464.859375 557.699219 463.152344 554.882812 461.125 C 553.496094 460.132812 552.132812 458.980469 551.433594 457.425781 C 550.726562 455.867188 550.882812 453.808594 552.214844 452.726562 C 553.089844 452.011719 554.335938 451.847656 555.429688 452.128906 C 556.527344 452.40625 557.488281 453.085938 558.28125 453.890625 C 559.03125 454.65625 559.664062 455.550781 560.503906 456.214844 C 561.191406 456.753906 562.417969 457.421875 563.078125 456.476562 C 563.308594 456.144531 563.386719 455.726562 563.421875 455.324219 C 563.4375 455.15625 563.445312 454.988281 563.460938 454.828125 C 563.585938 453.214844 563.347656 451.484375 563.316406 449.859375 C 563.28125 448.027344 563.265625 446.199219 563.285156 444.367188 C 563.324219 440.699219 563.507812 437.023438 563.988281 433.386719 C 564.253906 431.316406 564.753906 429.03125 566.480469 427.855469 C 568.835938 426.253906 572.277344 427.777344 573.707031 430.234375 C 575.136719 432.699219 575.117188 435.710938 575.03125 438.558594 C 574.6875 450.578125 574.851562 464.765625 574.507812 475.6875 L 568.867188 475.753906 L 587.265625 475.535156 C 587.269531 475.535156 587.273438 475.535156 587.277344 475.535156 C 587.476562 475.535156 587.667969 475.613281 587.808594 475.753906 C 587.953125 475.894531 588.035156 476.089844 588.035156 476.292969 L 588.039062 476.640625 C 588.390625 489.445312 585.964844 502.484375 581.03125 514.324219 Z M 586.523438 477.066406 L 549.417969 477.503906 C 549.328125 487.589844 550.890625 497.460938 554.066406 506.957031 C 554.792969 509.128906 555.605469 511.289062 556.488281 513.390625 L 579.816406 513.273438 C 584.488281 501.875 586.804688 489.378906 586.523438 477.066406 Z M 208.402344 469.835938 L 208.402344 508.582031 C 208.402344 516.894531 201.636719 523.660156 193.324219 523.660156 L 172.902344 523.660156 C 165.808594 523.660156 159.734375 518.757812 158.195312 511.910156 C 148.421875 511.855469 140.488281 503.925781 140.488281 494.183594 C 140.488281 484.566406 148.21875 476.714844 157.820312 476.464844 L 157.820312 469.835938 C 157.820312 469.382812 158.1875 469.015625 158.640625 469.015625 L 207.582031 469.015625 C 208.035156 469.015625 208.402344 469.382812 208.402344 469.835938 Z M 206.757812 470.65625 L 159.464844 470.65625 L 159.464844 477.285156 C 159.464844 477.507812 159.375 477.71875 159.21875 477.871094 C 159.0625 478.027344 158.820312 478.101562 158.628906 478.109375 L 158.296875 478.097656 C 149.382812 478.097656 142.128906 485.3125 142.128906 494.183594 C 142.128906 503.050781 149.382812 510.265625 158.296875 510.265625 C 158.453125 510.265625 158.609375 510.261719 158.761719 510.253906 C 158.773438 510.253906 158.785156 510.253906 158.792969 510.253906 C 159.195312 510.253906 159.605469 510.539062 159.675781 510.929688 C 160.808594 517.355469 166.371094 522.015625 172.902344 522.015625 L 193.324219 522.015625 C 200.730469 522.015625 206.757812 515.988281 206.757812 508.582031 Z M 159.464844 482.582031 L 159.464844 505.78125 C 159.464844 506.226562 159.113281 506.589844 158.667969 506.601562 L 158.296875 506.613281 C 151.417969 506.613281 145.816406 501.035156 145.816406 494.183594 C 145.816406 487.328125 151.414062 481.753906 158.296875 481.753906 L 158.601562 481.761719 C 159.042969 481.773438 159.464844 482.140625 159.464844 482.582031 Z M 157.820312 483.40625 C 152.066406 483.65625 147.460938 488.394531 147.460938 494.183594 C 147.460938 499.972656 152.066406 504.710938 157.820312 504.960938 Z M 157.820312 483.40625 " fill-opacity="1" fill-rule="nonzero"/></g><path fill="#cbb279" d="M 241.90625 193.425781 C 241.484375 193.425781 241.121094 193.125 241.042969 192.714844 C 239.402344 184.164062 238.351562 183.109375 229.796875 181.46875 C 229.378906 181.390625 229.082031 181.027344 229.082031 180.605469 C 229.082031 180.183594 229.382812 179.820312 229.796875 179.742188 C 238.351562 178.101562 239.402344 177.050781 241.042969 168.5 C 241.121094 168.085938 241.484375 167.785156 241.90625 167.785156 C 242.324219 167.785156 242.691406 168.085938 242.769531 168.5 C 244.410156 177.050781 245.460938 178.101562 254.015625 179.742188 C 254.429688 179.820312 254.730469 180.183594 254.730469 180.605469 C 254.730469 181.027344 254.429688 181.390625 254.015625 181.46875 C 245.460938 183.109375 244.410156 184.160156 242.769531 192.714844 C 242.691406 193.128906 242.328125 193.425781 241.90625 193.425781 Z M 233.976562 180.605469 C 238.761719 181.921875 240.59375 183.75 241.90625 188.535156 C 243.222656 183.75 245.050781 181.921875 249.835938 180.605469 C 245.050781 179.292969 243.222656 177.464844 241.90625 172.675781 C 240.589844 177.464844 238.761719 179.292969 233.976562 180.605469 Z M 409.46875 357.960938 C 409.046875 357.960938 408.683594 357.660156 408.605469 357.246094 C 406.964844 348.695312 405.914062 347.644531 397.359375 346.003906 C 396.945312 345.921875 396.644531 345.558594 396.644531 345.140625 C 396.644531 344.71875 396.945312 344.355469 397.359375 344.277344 C 405.914062 342.636719 406.964844 341.582031 408.605469 333.03125 C 408.683594 332.617188 409.046875 332.320312 409.46875 332.320312 C 409.890625 332.320312 410.253906 332.617188 410.332031 333.03125 C 411.972656 341.582031 413.023438 342.636719 421.578125 344.277344 C 421.992188 344.355469 422.292969 344.71875 422.292969 345.140625 C 422.292969 345.558594 421.992188 345.921875 421.578125 346.003906 C 413.023438 347.644531 411.972656 348.695312 410.332031 357.246094 C 410.253906 357.660156 409.890625 357.960938 409.46875 357.960938 Z M 401.535156 345.140625 C 406.324219 346.453125 408.152344 348.28125 409.46875 353.066406 C 410.78125 348.28125 412.613281 346.453125 417.398438 345.140625 C 412.613281 343.824219 410.78125 341.996094 409.46875 337.210938 C 408.152344 341.996094 406.324219 343.824219 401.535156 345.140625 Z M 131.722656 405.042969 C 131.304688 405.042969 130.941406 404.742188 130.859375 404.332031 C 129.222656 395.78125 128.167969 394.726562 119.617188 393.085938 C 119.199219 393.007812 118.902344 392.644531 118.902344 392.222656 C 118.902344 391.800781 119.203125 391.4375 119.617188 391.359375 C 128.167969 389.71875 129.222656 388.667969 130.859375 380.117188 C 130.941406 379.703125 131.304688 379.402344 131.722656 379.402344 C 132.144531 379.402344 132.507812 379.703125 132.589844 380.117188 C 134.230469 388.667969 135.28125 389.71875 143.835938 391.359375 C 144.25 391.4375 144.546875 391.800781 144.546875 392.222656 C 144.546875 392.644531 144.246094 393.007812 143.835938 393.085938 C 135.28125 394.726562 134.230469 395.777344 132.589844 404.332031 C 132.507812 404.742188 132.144531 405.042969 131.722656 405.042969 Z M 123.792969 392.222656 C 128.582031 393.535156 130.410156 395.367188 131.722656 400.152344 C 133.039062 395.367188 134.867188 393.535156 139.65625 392.222656 C 134.867188 390.90625 133.039062 389.078125 131.722656 384.292969 C 130.410156 389.078125 128.582031 390.90625 123.792969 392.222656 Z M 327.539062 291.167969 C 327.476562 290.097656 326.074219 288.398438 325.023438 288.097656 L 324.738281 288.019531 L 323.816406 288.054688 L 323.867188 290.21875 C 323.992188 295.566406 322.453125 300.882812 319.222656 305.144531 C 317.589844 307.292969 315.714844 308.953125 313.867188 309.410156 C 307.175781 311.058594 301.277344 304.882812 294.59375 303.199219 C 287.914062 301.511719 281.054688 304.441406 274.527344 306.609375 C 267.996094 308.777344 260.066406 309.992188 254.789062 305.648438 C 250.300781 301.953125 247.460938 291.132812 243.089844 285.5 C 241.484375 276.75 243.710938 267.371094 248.410156 259.777344 C 248.683594 259.339844 248.972656 258.921875 249.25 258.488281 C 257.328125 245.71875 269.828125 243.726562 271.570312 243.589844 C 273.6875 243.417969 276.019531 243.765625 278.152344 243.859375 C 282.847656 244.074219 287.550781 244.3125 292.257812 244.148438 C 299.832031 243.871094 307.636719 242.410156 313.679688 238.675781 C 314.5 238.171875 315.285156 237.628906 316.035156 237.035156 C 319.15625 234.117188 321.609375 230.363281 322.445312 226.175781 C 323.285156 221.992188 322.367188 217.359375 319.546875 214.152344 C 318.152344 212.558594 316.355469 211.363281 314.460938 210.414062 C 310.28125 208.304688 305.53125 207.332031 300.859375 207.628906 C 293.359375 208.101562 286.433594 211.714844 280.390625 215.6875 C 270.859375 219.601562 260.640625 221.601562 251.011719 225.265625 C 241.382812 228.933594 231.960938 234.691406 227.0625 243.753906 C 220.804688 255.339844 223.246094 269.757812 228.429688 282.308594 C 228.691406 282.851562 228.957031 283.398438 229.21875 283.945312 C 230.125 283.777344 231.0625 283.761719 231.96875 283.910156 C 234.285156 284.28125 236.394531 285.710938 237.84375 287.65625 C 238.359375 296.667969 240.261719 307.359375 239.707031 315.582031 C 239.28125 321.890625 239.910156 331.527344 240.75 337.796875 C 241.589844 344.066406 244.507812 350.441406 250.023438 353.75 C 251.925781 354.890625 254.085938 355.644531 255.773438 357.070312 C 258.519531 359.390625 259.535156 363.058594 260.382812 366.511719 C 261.226562 369.960938 262.164062 373.628906 264.8125 376.054688 C 267.460938 378.476562 272.441406 378.773438 274.289062 375.71875 C 274.925781 374.667969 275.148438 373.324219 277.160156 373.300781 C 278.324219 373.289062 279.425781 373.824219 280.195312 374.675781 C 284.660156 379.613281 289.121094 384.550781 293.582031 389.488281 C 295.84375 391.988281 298.246094 394.585938 301.460938 395.707031 C 304.675781 396.828125 308.925781 395.871094 310.257812 392.796875 C 311.449219 390.042969 310.371094 385.945312 313.976562 385.144531 C 315.421875 384.820312 316.898438 385.296875 318.105469 386.160156 C 322.03125 388.96875 327.976562 387.75 330.710938 383.980469 C 333.085938 380.707031 332.800781 375.835938 330.058594 372.851562 C 334.257812 373.636719 336.433594 367.820312 335.464844 363.75 C 334.496094 359.683594 335.3125 351.652344 337.214844 347.910156 C 337.804688 346.75 338.753906 345.800781 339.386719 344.660156 C 341.550781 340.765625 339.550781 336.015625 337.769531 331.9375 C 332.109375 318.960938 328.375 305.25 327.539062 291.167969 Z M 303.777344 324.765625 C 299.214844 326.96875 293.832031 328.976562 288.6875 328.351562 C 282.195312 327.566406 276.632812 321.90625 272.746094 317.03125 C 279.859375 317.527344 287.109375 313.78125 290.691406 307.753906 C 295.324219 313.386719 302.800781 316.667969 310.1875 316.300781 C 310.1875 316.300781 310.902344 316.449219 310.902344 316.449219 C 310.9375 320.628906 307.167969 323.125 303.777344 324.765625 Z M 445.742188 462.101562 C 445.742188 468.578125 440.492188 473.824219 434.015625 473.824219 C 427.539062 473.824219 422.292969 468.578125 422.292969 462.101562 C 422.292969 455.628906 427.542969 450.382812 434.015625 450.382812 C 440.492188 450.382812 445.742188 455.628906 445.742188 462.101562 Z M 475.941406 250.761719 C 475.941406 250.785156 475.949219 250.804688 475.949219 250.828125 L 470.917969 250.828125 C 470.914062 250.796875 470.925781 250.769531 470.921875 250.738281 L 467.4375 225.96875 L 472.488281 230.257812 C 472.816406 230.53125 473.300781 230.53125 473.628906 230.257812 L 478.746094 225.910156 Z M 487.375 236.734375 C 485.734375 239.496094 484.648438 242.546875 484.101562 245.710938 C 483.898438 246.886719 483.726562 248.089844 483.636719 249.199219 C 483.558594 250.117188 482.796875 250.828125 481.875 250.828125 L 477.707031 250.828125 L 480.746094 223.902344 C 480.785156 223.542969 480.605469 223.195312 480.285156 223.027344 C 479.96875 222.859375 479.578125 222.898438 479.300781 223.132812 L 473.058594 228.433594 L 466.8125 223.132812 C 466.535156 222.898438 466.140625 222.855469 465.820312 223.03125 C 465.5 223.210938 465.320312 223.566406 465.371094 223.925781 L 469.15625 250.832031 L 465.554688 250.832031 C 464.640625 250.832031 463.871094 250.128906 463.796875 249.21875 C 463.695312 248.011719 463.503906 246.695312 463.28125 245.421875 C 462.675781 242.015625 461.203125 238.875 459.542969 235.839844 C 456.015625 229.394531 455.847656 223.027344 457.722656 218.105469 C 458.53125 215.445312 460.132812 213.003906 462.890625 211.09375 C 466.140625 208.839844 469.925781 207.738281 473.714844 207.761719 C 477.503906 207.738281 481.289062 208.839844 484.542969 211.09375 C 487.300781 213.003906 488.902344 215.445312 489.710938 218.105469 C 491.671875 223.253906 491.394531 229.984375 487.375 236.734375 Z M 220.988281 452.726562 L 233.804688 494.417969 L 208.402344 494.417969 L 208.402344 469.835938 C 208.402344 469.378906 208.035156 469.011719 207.582031 469.011719 L 188.433594 469.011719 C 182.835938 453.652344 177.570312 438.101562 175.324219 421.929688 C 174.066406 412.882812 173.808594 403.433594 176.9375 394.855469 C 178.503906 390.566406 180.0625 387.789062 183.339844 384.617188 L 183.4375 384.546875 C 198.300781 406.203125 212.9375 427.886719 220.988281 452.726562 Z M 220.988281 452.726562 " fill-opacity="1" fill-rule="nonzero"/><g clip-path="url(#4ef03dec9a)"><path fill="#000000" d="M 279.140625 281.824219 C 280.660156 283.933594 279.910156 288.96875 277.082031 288.832031 C 275.257812 288.742188 274.96875 286.496094 274.992188 284.917969 C 275.011719 283.738281 275.332031 282.566406 276.042969 281.625 C 276.761719 280.679688 277.851562 280.03125 279.140625 281.824219 Z M 300.816406 282.945312 C 300.105469 283.886719 299.785156 285.058594 299.765625 286.238281 C 299.742188 287.820312 300.03125 290.0625 301.855469 290.152344 C 304.683594 290.289062 305.433594 285.253906 303.917969 283.144531 C 302.625 281.351562 301.535156 282 300.816406 282.945312 Z M 294.472656 305.664062 C 294.480469 305.667969 294.488281 305.667969 294.492188 305.667969 C 294.90625 305.667969 295.246094 305.339844 295.253906 304.925781 C 295.535156 295.089844 292.023438 279.277344 291.875 278.609375 C 291.785156 278.199219 291.371094 277.949219 290.964844 278.03125 C 290.554688 278.125 290.296875 278.53125 290.386719 278.941406 C 290.421875 279.105469 294.007812 295.234375 293.730469 304.882812 C 293.71875 305.304688 294.050781 305.652344 294.472656 305.664062 Z M 284.550781 272.894531 C 284.75 272.523438 284.609375 272.0625 284.238281 271.863281 C 273.960938 266.378906 266.035156 272.59375 265.957031 272.65625 C 265.628906 272.921875 265.578125 273.402344 265.839844 273.730469 C 265.988281 273.917969 266.210938 274.015625 266.433594 274.015625 C 266.601562 274.015625 266.769531 273.957031 266.910156 273.847656 C 267.203125 273.613281 274.164062 268.210938 283.519531 273.207031 C 283.894531 273.40625 284.351562 273.265625 284.550781 272.894531 Z M 310.09375 270.320312 C 310.507812 270.441406 310.925781 270.207031 311.042969 269.808594 C 311.164062 269.402344 310.933594 268.980469 310.53125 268.859375 C 302.144531 266.367188 296.246094 271.007812 295.996094 271.207031 C 295.667969 271.46875 295.617188 271.949219 295.878906 272.277344 C 296.03125 272.464844 296.25 272.5625 296.476562 272.5625 C 296.644531 272.5625 296.808594 272.507812 296.949219 272.394531 C 297.003906 272.351562 302.496094 268.066406 310.09375 270.320312 Z M 286.183594 316.425781 C 285.886719 316.726562 285.890625 317.207031 286.1875 317.503906 C 286.230469 317.539062 288.871094 320.089844 292.367188 320.089844 C 294.125 320.089844 296.101562 319.441406 298.066406 317.503906 C 298.367188 317.207031 298.367188 316.722656 298.074219 316.421875 C 297.777344 316.125 297.296875 316.121094 296.992188 316.414062 C 292.203125 321.148438 287.457031 316.609375 287.261719 316.414062 C 286.960938 316.121094 286.476562 316.125 286.183594 316.425781 Z M 244.214844 287.105469 C 242.105469 278.542969 243.886719 268.539062 249.058594 260.179688 C 249.207031 259.9375 249.367188 259.699219 249.523438 259.464844 L 249.894531 258.898438 C 258.332031 245.558594 271.496094 244.363281 271.628906 244.351562 C 273.015625 244.242188 274.53125 244.363281 276.003906 244.476562 C 276.71875 244.535156 277.429688 244.59375 278.117188 244.625 L 278.867188 244.65625 C 283.257812 244.859375 287.796875 245.070312 292.285156 244.910156 C 300.8125 244.601562 307.84375 242.894531 313.207031 239.84375 L 318.023438 257.382812 C 321.210938 268.996094 323.140625 279.304688 323.820312 288.265625 L 323.816406 288.054688 L 324.738281 288.019531 L 325.023438 288.101562 C 325.125 288.128906 325.234375 288.183594 325.339844 288.238281 C 324.660156 279.144531 322.714844 268.710938 319.496094 256.980469 L 314.414062 238.476562 C 314.351562 238.246094 314.183594 238.058594 313.957031 237.96875 C 313.734375 237.882812 313.484375 237.90625 313.277344 238.03125 C 308.039062 241.269531 300.957031 243.070312 292.230469 243.386719 C 287.804688 243.542969 283.296875 243.335938 278.9375 243.136719 L 278.1875 243.101562 C 277.515625 243.070312 276.824219 243.015625 276.125 242.960938 C 274.597656 242.839844 273.019531 242.710938 271.507812 242.832031 C 271.367188 242.84375 257.445312 244.105469 248.605469 258.078125 L 248.25 258.621094 C 248.085938 258.871094 247.921875 259.121094 247.757812 259.378906 C 242.984375 267.097656 240.988281 276.183594 242.136719 284.390625 C 242.871094 285.15625 243.558594 286.078125 244.214844 287.105469 Z M 225.785156 302.738281 C 228.9375 305.144531 233.382812 305.730469 237.207031 304.257812 C 238.054688 306.101562 238.90625 307.957031 239.753906 309.820312 C 239.703125 308.445312 239.613281 307.035156 239.503906 305.601562 C 239.132812 304.792969 238.757812 303.980469 238.386719 303.175781 C 238.277344 302.945312 238.0625 302.78125 237.8125 302.742188 L 237.355469 302.667969 C 237.214844 302.644531 237.074219 302.664062 236.941406 302.71875 C 233.601562 304.125 229.488281 303.644531 226.707031 301.527344 C 223.191406 298.839844 221.804688 293.726562 223.484375 289.628906 C 223.945312 288.484375 224.625 287.460938 225.4375 286.671875 C 226.480469 285.664062 227.871094 284.960938 229.359375 284.695312 C 230.191406 284.539062 231.03125 284.527344 231.847656 284.660156 C 234.035156 285.011719 236.144531 286.445312 237.519531 288.5 C 237.601562 288.8125 237.765625 289.105469 237.957031 289.378906 C 237.882812 288.363281 237.824219 287.363281 237.78125 286.386719 C 236.230469 284.671875 234.199219 283.496094 232.089844 283.15625 C 231.097656 282.992188 230.085938 283.007812 229.085938 283.195312 C 227.304688 283.511719 225.636719 284.359375 224.375 285.578125 C 223.414062 286.515625 222.613281 287.714844 222.070312 289.054688 C 220.140625 293.765625 221.738281 299.644531 225.785156 302.738281 Z M 363.472656 169.828125 C 349.40625 175.554688 332.042969 169.867188 331.867188 169.808594 C 331.464844 169.671875 331.035156 169.890625 330.902344 170.289062 C 330.769531 170.6875 330.984375 171.121094 331.382812 171.253906 C 331.867188 171.417969 339.5625 173.941406 348.929688 173.941406 C 353.777344 173.941406 359.074219 173.265625 364.046875 171.238281 C 364.4375 171.078125 364.625 170.632812 364.464844 170.242188 C 364.308594 169.855469 363.859375 169.667969 363.472656 169.828125 Z M 160.742188 179.949219 C 146.773438 188.066406 124.277344 185.914062 124.054688 185.890625 C 123.65625 185.839844 123.261719 186.15625 123.21875 186.574219 C 123.175781 186.992188 123.484375 187.367188 123.902344 187.410156 C 124.226562 187.441406 127.113281 187.71875 131.351562 187.71875 C 139.332031 187.71875 152.101562 186.734375 161.511719 181.265625 C 161.875 181.054688 162 180.585938 161.785156 180.222656 C 161.574219 179.859375 161.113281 179.734375 160.742188 179.949219 Z M 113.089844 160.527344 C 107.511719 153.367188 105.363281 143.800781 107.335938 134.941406 C 107.621094 133.265625 108.765625 131.550781 110.394531 130.398438 C 111.699219 129.464844 113.121094 129.082031 114.425781 129.324219 C 114.886719 126.785156 116.042969 125.105469 117.949219 124.203125 C 119.277344 123.578125 120.863281 123.464844 122.3125 123.867188 C 123.261719 122.464844 124.292969 121.203125 125.820312 120.507812 C 127.644531 119.667969 129.933594 119.851562 131.949219 121 C 132.503906 121.316406 133.03125 121.699219 133.546875 122.15625 C 135.042969 120.320312 137.257812 119.058594 139.601562 118.730469 C 140.621094 118.582031 141.539062 118.640625 142.320312 118.917969 C 143.28125 119.253906 144.027344 119.894531 144.648438 120.472656 C 147.863281 123.453125 150.003906 126.707031 151.539062 130.949219 C 152.246094 130.996094 152.878906 131.109375 153.464844 131.300781 C 156.949219 132.4375 158.660156 136.242188 158.8125 139.511719 C 158.933594 142.007812 158.367188 144.433594 157.824219 146.78125 C 157.652344 147.503906 157.484375 148.230469 157.335938 148.953125 C 155.925781 155.894531 156.402344 163.101562 158.71875 169.800781 C 158.796875 170.027344 158.78125 170.273438 158.667969 170.488281 C 158.558594 170.703125 158.367188 170.863281 158.136719 170.929688 C 145.457031 174.664062 135.257812 176.980469 123.695312 176.980469 C 123.621094 176.980469 123.542969 176.980469 123.46875 176.980469 C 123.050781 176.980469 122.6875 176.683594 122.605469 176.277344 C 122.539062 175.9375 122.46875 175.601562 122.378906 175.265625 C 122.375 175.238281 122.367188 175.214844 122.363281 175.191406 C 121.65625 172.316406 120.371094 169.53125 118.632812 167.128906 C 117.726562 165.875 116.660156 164.675781 115.632812 163.519531 C 114.78125 162.558594 113.898438 161.570312 113.089844 160.527344 Z M 134.730469 123.511719 C 136.863281 125.980469 138.527344 130.316406 139.101562 131.929688 C 142.796875 131.277344 147.449219 131.105469 149.695312 131.0625 C 148.265625 127.296875 146.367188 124.464844 143.457031 121.761719 C 142.964844 121.308594 142.382812 120.804688 141.738281 120.578125 C 141.226562 120.398438 140.59375 120.363281 139.855469 120.472656 C 137.835938 120.753906 135.949219 121.886719 134.730469 123.511719 Z M 123.769531 124.855469 C 129.972656 130.160156 132.210938 137.894531 131.640625 143.363281 C 131.488281 144.789062 131.152344 146.007812 130.65625 146.996094 C 131.339844 147.4375 132.796875 148.050781 134.867188 147.121094 C 137.03125 146.148438 138.414062 143.828125 139.054688 142.511719 C 135.542969 142.214844 134.089844 140.480469 133.554688 139.5 C 132.359375 137.324219 133.015625 134.785156 134.34375 133.59375 C 134.972656 133.023438 136.152344 132.585938 137.59375 132.242188 C 136.964844 130.511719 135.3125 126.34375 133.359375 124.273438 C 133.21875 124.230469 133.089844 124.164062 132.988281 124.054688 C 132.363281 123.402344 131.738281 122.902344 131.078125 122.527344 C 129.578125 121.671875 127.84375 121.511719 126.554688 122.105469 C 125.417969 122.621094 124.574219 123.671875 123.769531 124.855469 Z M 143.957031 142.125 C 142.746094 142.378906 141.679688 142.503906 140.722656 142.542969 C 140.644531 142.726562 140.542969 142.949219 140.417969 143.207031 C 140.765625 143.546875 141.535156 144.125 143.015625 144.617188 C 143.3125 143.628906 143.652344 142.785156 143.957031 142.125 Z M 116.054688 130.34375 C 116.054688 130.34375 116.054688 130.34375 116.054688 130.347656 C 122.546875 136.746094 124.808594 144.53125 123.613281 148.746094 C 124.5625 148.816406 126.175781 148.773438 127.796875 147.960938 C 129.023438 147.347656 129.871094 145.617188 130.121094 143.203125 C 130.640625 138.21875 128.460938 130.695312 122.488281 125.765625 C 122.4375 125.753906 122.386719 125.75 122.339844 125.730469 C 121.164062 125.25 119.804688 125.273438 118.699219 125.792969 C 117.171875 126.519531 116.328125 127.960938 116.054688 130.34375 Z M 114.476562 159.449219 C 115.253906 160.445312 116.113281 161.414062 116.949219 162.351562 C 118.003906 163.539062 119.097656 164.769531 120.058594 166.097656 C 121.9375 168.699219 123.328125 171.71875 124.085938 174.828125 C 124.089844 174.847656 124.097656 174.863281 124.097656 174.882812 C 124.125 174.996094 124.15625 175.109375 124.179688 175.222656 C 135.070312 175.160156 144.816406 172.988281 156.761719 169.5 C 154.597656 162.753906 154.199219 155.550781 155.613281 148.601562 C 155.765625 147.863281 155.9375 147.121094 156.109375 146.382812 C 156.648438 144.050781 157.164062 141.847656 157.054688 139.597656 C 156.933594 136.929688 155.605469 133.847656 152.917969 132.972656 C 152.347656 132.785156 151.6875 132.695312 150.910156 132.691406 C 150.757812 132.691406 150.621094 132.644531 150.496094 132.574219 C 145.335938 132.625 137.011719 133.238281 135.363281 134.722656 C 134.5 135.503906 134.074219 137.273438 134.890625 138.769531 C 136.199219 141.152344 139.960938 141.695312 145.210938 140.253906 C 145.507812 140.167969 145.835938 140.28125 146.023438 140.53125 C 146.210938 140.785156 146.226562 141.128906 146.058594 141.394531 C 146.011719 141.464844 141.707031 148.46875 145.054688 155.515625 C 145.238281 155.894531 145.078125 156.351562 144.695312 156.53125 C 144.589844 156.582031 144.476562 156.605469 144.367188 156.605469 C 144.082031 156.605469 143.808594 156.445312 143.679688 156.171875 C 141.929688 152.496094 142.023438 148.902344 142.632812 146.089844 C 141.167969 145.617188 140.230469 145.046875 139.660156 144.574219 C 138.777344 145.992188 137.410156 147.644531 135.492188 148.507812 C 134.472656 148.96875 133.558594 149.136719 132.757812 149.136719 C 131.421875 149.136719 130.425781 148.664062 129.8125 148.257812 C 129.417969 148.707031 128.976562 149.074219 128.476562 149.320312 C 126.914062 150.105469 125.375 150.296875 124.234375 150.296875 C 123.71875 150.296875 123.285156 150.257812 122.96875 150.214844 C 122.320312 151.253906 121.371094 151.9375 120.183594 152.171875 C 119.765625 152.25 119.363281 152.289062 118.972656 152.289062 C 113.769531 152.289062 110.671875 145.558594 110.53125 145.25 C 110.359375 144.867188 110.53125 144.414062 110.914062 144.242188 C 111.292969 144.070312 111.746094 144.238281 111.921875 144.621094 C 111.953125 144.691406 115.164062 151.613281 119.886719 150.675781 C 120.996094 150.457031 121.753906 149.675781 122.136719 148.359375 C 123.257812 144.492188 120.816406 137.097656 114.828125 131.273438 C 114.789062 131.261719 114.75 131.265625 114.714844 131.246094 C 114.53125 131.164062 114.347656 131.105469 114.175781 131.066406 C 113.347656 130.886719 112.339844 131.167969 111.410156 131.828125 C 110.171875 132.707031 109.273438 134.027344 109.0625 135.277344 C 107.191406 143.675781 109.21875 152.695312 114.476562 159.449219 Z M 322.375 135.066406 C 321.65625 132.121094 322.144531 128.296875 324.859375 126.398438 C 325.304688 126.089844 325.804688 125.832031 326.375 125.621094 C 326.597656 121.496094 327.589844 118.09375 329.558594 114.664062 C 329.949219 113.992188 330.425781 113.226562 331.179688 112.675781 C 331.796875 112.21875 332.5625 111.933594 333.511719 111.808594 C 335.578125 111.511719 337.785156 112.058594 339.546875 113.269531 C 339.855469 112.773438 340.191406 112.332031 340.5625 111.933594 C 342.011719 110.390625 343.960938 109.632812 345.78125 109.933594 C 347.257812 110.164062 348.464844 111.007812 349.632812 111.996094 C 350.777344 111.296875 352.160156 111.007812 353.453125 111.230469 C 355.328125 111.550781 356.757812 112.734375 357.8125 114.839844 C 358.875 114.335938 360.183594 114.328125 361.535156 114.820312 C 363.242188 115.4375 364.679688 116.679688 365.378906 118.136719 C 369.34375 125.441406 369.980469 134.445312 367.0625 142.183594 C 366.640625 143.304688 366.144531 144.398438 365.664062 145.457031 C 365.085938 146.738281 364.484375 148.0625 364.035156 149.398438 C 363.359375 151.40625 362.925781 158.785156 362.875 163.339844 C 362.871094 163.71875 362.625 164.054688 362.261719 164.167969 C 362.253906 164.171875 362.152344 164.203125 362.140625 164.203125 C 357.984375 165.621094 353.726562 166.136719 349.75 166.136719 C 339.644531 166.136719 331.320312 162.832031 330.839844 162.636719 C 330.496094 162.5 330.277344 162.160156 330.289062 161.789062 C 330.535156 155.300781 329.082031 148.820312 326.082031 143.050781 C 325.769531 142.441406 325.4375 141.84375 325.105469 141.246094 C 324.027344 139.308594 322.921875 137.304688 322.375 135.066406 Z M 351.257812 113.175781 C 351.242188 113.199219 351.242188 113.226562 351.222656 113.253906 C 347.03125 119.1875 347.03125 126.546875 348.804688 130.871094 C 349.640625 132.917969 350.820312 134.214844 352.039062 134.4375 C 353.625 134.722656 355.019531 134.378906 355.84375 134.078125 C 353.828125 130.785156 353.726562 123.886719 357.230469 116.925781 C 357.089844 116.878906 356.949219 116.808594 356.839844 116.6875 L 356.699219 116.535156 C 356.632812 116.460938 356.578125 116.375 356.542969 116.28125 C 355.703125 114.269531 354.628906 113.214844 353.160156 112.964844 C 352.527344 112.859375 351.871094 112.949219 351.257812 113.175781 Z M 341.847656 113.140625 C 341.613281 113.386719 341.398438 113.664062 341.191406 113.96875 C 341.328125 114.195312 341.347656 114.484375 341.203125 114.734375 C 339.902344 116.960938 339.496094 121.277344 339.378906 123.078125 C 340.71875 123.015625 341.863281 123.101562 342.558594 123.441406 C 344.058594 124.164062 345.3125 126.261719 344.816406 128.523438 C 344.59375 129.53125 343.765625 131.433594 340.78125 132.617188 C 341.699219 133.617188 343.476562 135.230469 345.574219 135.519531 C 347.574219 135.789062 348.675781 134.929688 349.167969 134.375 C 348.488281 133.628906 347.882812 132.652344 347.390625 131.449219 C 345.546875 126.949219 345.445312 119.9375 349.054688 113.808594 C 349.039062 113.792969 349.015625 113.785156 348.996094 113.769531 C 347.863281 112.773438 346.742188 111.863281 345.503906 111.667969 C 344.289062 111.472656 342.882812 112.039062 341.847656 113.140625 Z M 337.738281 135.390625 C 338.84375 134.621094 339.355469 133.949219 339.578125 133.566406 C 339.429688 133.398438 339.292969 133.246094 339.191406 133.117188 C 338.371094 133.320312 337.445312 133.480469 336.371094 133.570312 C 336.78125 134.050781 337.257812 134.664062 337.738281 135.390625 Z M 328.171875 125.203125 C 330.113281 124.671875 334.339844 123.59375 337.84375 123.199219 C 337.929688 121.695312 338.242188 117.949219 339.28125 115.25 L 339.199219 115.207031 C 339.148438 115.179688 339.101562 115.144531 339.058594 115.109375 C 337.589844 113.871094 335.609375 113.285156 333.753906 113.550781 C 333.097656 113.636719 332.597656 113.816406 332.222656 114.09375 C 331.746094 114.441406 331.386719 115.023438 331.085938 115.542969 C 329.316406 118.617188 328.429688 121.566406 328.171875 125.203125 Z M 324.085938 134.648438 C 324.574219 136.660156 325.578125 138.472656 326.644531 140.390625 C 326.980469 141.003906 327.320312 141.617188 327.644531 142.238281 C 330.683594 148.089844 332.207031 154.636719 332.066406 161.21875 C 334.996094 162.273438 348.71875 166.742188 361.125 162.6875 C 361.199219 158.894531 361.574219 151.195312 362.367188 148.835938 C 362.847656 147.414062 363.46875 146.050781 364.0625 144.730469 C 364.53125 143.699219 365.015625 142.628906 365.417969 141.5625 C 368.160156 134.296875 367.558594 125.839844 363.8125 118.933594 C 363.296875 117.859375 362.199219 116.929688 360.9375 116.472656 C 360.367188 116.261719 359.820312 116.199219 359.332031 116.246094 C 355.453125 122.972656 355.1875 130.210938 357.183594 133.351562 C 357.847656 134.398438 358.722656 134.875 359.714844 134.789062 C 364.097656 134.390625 365.121094 127.503906 365.132812 127.433594 C 365.191406 127.019531 365.574219 126.730469 365.992188 126.785156 C 366.410156 126.84375 366.699219 127.230469 366.640625 127.644531 C 366.597656 127.980469 365.4375 135.800781 359.851562 136.308594 C 359.726562 136.320312 359.601562 136.324219 359.476562 136.324219 C 358.507812 136.324219 357.621094 135.96875 356.867188 135.308594 C 356.183594 135.609375 354.882812 136.066406 353.257812 136.066406 C 352.785156 136.066406 352.285156 136.027344 351.769531 135.933594 C 351.273438 135.84375 350.792969 135.644531 350.335938 135.359375 C 349.707031 136.085938 348.457031 137.097656 346.351562 137.097656 C 346.039062 137.097656 345.714844 137.074219 345.367188 137.027344 C 343.460938 136.761719 341.835938 135.675781 340.6875 134.660156 C 340.300781 135.21875 339.628906 135.933594 338.519531 136.695312 C 339.777344 139.027344 340.777344 142.171875 340.183594 145.859375 C 340.125 146.234375 339.800781 146.503906 339.433594 146.503906 C 339.390625 146.503906 339.351562 146.5 339.308594 146.492188 C 338.894531 146.425781 338.609375 146.035156 338.675781 145.621094 C 339.808594 138.5625 334.214844 133.507812 334.160156 133.457031 C 333.925781 133.246094 333.84375 132.914062 333.949219 132.621094 C 334.058594 132.328125 334.339844 132.128906 334.652344 132.121094 C 339.632812 132.039062 342.792969 130.609375 343.328125 128.191406 C 343.65625 126.6875 342.84375 125.265625 341.894531 124.808594 C 340.054688 123.917969 332.390625 125.582031 327.84375 126.871094 C 327.742188 126.972656 327.625 127.058594 327.476562 127.105469 C 326.828125 127.292969 326.304688 127.53125 325.867188 127.835938 C 323.84375 129.253906 323.527344 132.359375 324.085938 134.648438 Z M 426.871094 274.289062 L 426.871094 200.375 C 426.871094 194.820312 431.394531 190.296875 436.953125 190.296875 L 510.882812 190.296875 C 516.441406 190.296875 520.964844 194.816406 520.964844 200.375 L 520.964844 274.289062 C 520.964844 279.84375 516.441406 284.363281 510.882812 284.363281 L 436.953125 284.363281 C 431.394531 284.367188 426.871094 279.84375 426.871094 274.289062 Z M 428.628906 274.289062 C 428.628906 278.875 432.363281 282.605469 436.953125 282.605469 L 510.882812 282.605469 C 515.46875 282.605469 519.203125 278.875 519.203125 274.289062 L 519.203125 200.375 C 519.203125 195.789062 515.46875 192.058594 510.882812 192.058594 L 436.953125 192.058594 C 432.363281 192.058594 428.628906 195.789062 428.628906 200.375 Z M 463.289062 256.246094 L 484.140625 256.246094 C 484.625 256.246094 485.019531 255.851562 485.019531 255.367188 C 485.019531 254.882812 484.625 254.488281 484.140625 254.488281 L 463.289062 254.488281 C 462.804688 254.488281 462.410156 254.882812 462.410156 255.367188 C 462.410156 255.851562 462.804688 256.246094 463.289062 256.246094 Z M 550.371094 495.945312 L 515.511719 495.945312 C 514.511719 500.519531 513.628906 504.574219 512.910156 507.867188 C 511.707031 513.414062 506.710938 517.4375 501.03125 517.4375 C 492.710938 517.4375 480.773438 517.503906 466.949219 517.582031 C 447.472656 517.691406 423.234375 517.832031 399.347656 517.832031 L 263.300781 517.832031 C 259.554688 517.832031 256.511719 514.785156 256.511719 511.042969 C 256.511719 507.300781 259.554688 504.257812 263.300781 504.257812 L 331.546875 504.257812 C 331.589844 503.710938 331.664062 503.195312 331.773438 502.703125 C 332.277344 500.378906 332.839844 497.816406 333.433594 495.089844 C 333.371094 495.375 333.308594 495.664062 333.246094 495.945312 L 208.402344 495.945312 L 208.402344 494.421875 L 333.578125 494.421875 C 336.542969 480.855469 340.429688 463.105469 343.949219 447.035156 C 346.765625 434.171875 349.347656 422.390625 351.023438 414.71875 C 352.222656 409.183594 357.214844 405.160156 362.886719 405.160156 L 520.28125 405.160156 C 523.980469 405.160156 527.433594 406.808594 529.746094 409.683594 C 532.066406 412.566406 532.945312 416.289062 532.148438 419.898438 C 529.371094 432.652344 525.082031 452.25 521.082031 470.503906 C 519.144531 479.351562 517.277344 487.878906 515.683594 495.160156 C 515.738281 494.914062 515.789062 494.667969 515.84375 494.421875 L 550.101562 494.421875 C 550.195312 494.929688 550.269531 495.441406 550.371094 495.945312 Z M 519.59375 470.175781 C 523.589844 451.925781 527.882812 432.328125 530.660156 419.574219 C 531.355469 416.417969 530.589844 413.160156 528.558594 410.640625 C 526.535156 408.125 523.519531 406.6875 520.28125 406.6875 L 362.890625 406.6875 C 357.929688 406.6875 353.566406 410.199219 352.511719 415.042969 C 350.835938 422.714844 348.257812 434.496094 345.4375 447.363281 C 341.148438 466.960938 336.300781 489.078125 333.261719 503.027344 C 333.128906 503.640625 333.054688 504.300781 333.035156 505.039062 L 333.019531 505.78125 L 263.300781 505.78125 C 260.398438 505.78125 258.039062 508.144531 258.039062 511.042969 C 258.039062 513.945312 260.398438 516.304688 263.300781 516.304688 L 399.347656 516.304688 C 423.230469 516.304688 447.46875 516.167969 466.941406 516.058594 C 480.765625 515.980469 492.707031 515.914062 501.03125 515.914062 C 505.996094 515.914062 510.367188 512.394531 511.417969 507.542969 C 513.308594 498.878906 516.351562 484.96875 519.59375 470.175781 Z M 622.625 494.421875 L 585.976562 494.421875 C 585.890625 494.929688 585.820312 495.441406 585.722656 495.945312 L 622.625 495.945312 C 623.046875 495.945312 623.386719 495.605469 623.386719 495.183594 C 623.386719 494.761719 623.046875 494.421875 622.625 494.421875 Z M 147.617188 495.945312 L 157.824219 495.945312 L 157.824219 494.421875 L 147.472656 494.421875 C 147.484375 494.9375 147.53125 495.449219 147.617188 495.945312 Z M 111.15625 494.421875 C 110.734375 494.421875 110.390625 494.761719 110.390625 495.183594 C 110.390625 495.605469 110.734375 495.945312 111.15625 495.945312 L 140.574219 495.945312 C 140.527344 495.445312 140.503906 494.933594 140.5 494.417969 L 111.15625 494.417969 Z M 111.15625 494.421875 " fill-opacity="1" fill-rule="nonzero"/></g></svg>