<svg xmlns="http://www.w3.org/2000/svg" xmlns:xlink="http://www.w3.org/1999/xlink" width="940" zoomAndPan="magnify" viewBox="0 0 705 591.000005" height="788" preserveAspectRatio="xMidYMid meet" version="1.0"><defs><clipPath id="df9d6ab238"><path d="M 260.707031 174.734375 L 444 174.734375 L 444 439.785156 L 260.707031 439.785156 Z M 260.707031 174.734375 " clip-rule="nonzero"/></clipPath></defs><path fill="#cbb279" d="M 327.289062 179.273438 L 377.535156 179.273438 C 379.558594 179.273438 381.574219 179.371094 383.589844 179.570312 C 385.601562 179.769531 387.601562 180.066406 389.585938 180.460938 C 391.570312 180.859375 393.527344 181.347656 395.464844 181.9375 C 397.398438 182.527344 399.300781 183.207031 401.171875 183.984375 C 403.039062 184.757812 404.867188 185.625 406.652344 186.578125 C 408.433594 187.535156 410.167969 188.574219 411.847656 189.703125 C 413.53125 190.828125 415.15625 192.03125 416.71875 193.320312 C 418.28125 194.605469 419.777344 195.964844 421.210938 197.394531 C 422.640625 198.828125 423.996094 200.328125 425.28125 201.894531 C 426.5625 203.460938 427.765625 205.085938 428.890625 206.773438 C 430.015625 208.457031 431.054688 210.195312 432.007812 211.980469 C 432.960938 213.769531 433.824219 215.597656 434.597656 217.46875 C 435.371094 219.34375 436.054688 221.246094 436.640625 223.1875 C 437.226562 225.125 437.71875 227.089844 438.113281 229.078125 C 438.507812 231.066406 438.804688 233.066406 439.003906 235.082031 C 439.199219 237.101562 439.300781 239.121094 439.300781 241.148438 L 439.300781 373.253906 C 439.300781 375.28125 439.199219 377.300781 439.003906 379.320312 C 438.804688 381.335938 438.507812 383.335938 438.113281 385.324219 C 437.71875 387.3125 437.226562 389.277344 436.640625 391.214844 C 436.054688 393.15625 435.371094 395.058594 434.597656 396.933594 C 433.824219 398.804688 432.960938 400.632812 432.007812 402.421875 C 431.054688 404.207031 430.015625 405.945312 428.890625 407.628906 C 427.765625 409.316406 426.5625 410.941406 425.28125 412.507812 C 423.996094 414.074219 422.640625 415.574219 421.210938 417.007812 C 419.777344 418.4375 418.28125 419.796875 416.71875 421.085938 C 415.15625 422.371094 413.53125 423.574219 411.847656 424.703125 C 410.167969 425.828125 408.433594 426.867188 406.652344 427.824219 C 404.867188 428.777344 403.039062 429.644531 401.171875 430.417969 C 399.300781 431.195312 397.398438 431.875 395.464844 432.464844 C 393.527344 433.054688 391.570312 433.542969 389.585938 433.941406 C 387.601562 434.335938 385.601562 434.632812 383.589844 434.832031 C 381.574219 435.03125 379.558594 435.128906 377.535156 435.128906 L 327.289062 435.128906 C 325.265625 435.128906 323.246094 435.03125 321.234375 434.832031 C 319.222656 434.632812 317.222656 434.335938 315.238281 433.941406 C 313.253906 433.542969 311.292969 433.054688 309.359375 432.464844 C 307.421875 431.875 305.519531 431.195312 303.652344 430.417969 C 301.78125 429.644531 299.957031 428.777344 298.171875 427.824219 C 296.386719 426.867188 294.65625 425.828125 292.972656 424.703125 C 291.292969 423.574219 289.667969 422.371094 288.105469 421.085938 C 286.542969 419.796875 285.042969 418.4375 283.613281 417.007812 C 282.183594 415.574219 280.828125 414.074219 279.542969 412.507812 C 278.261719 410.941406 277.054688 409.316406 275.933594 407.628906 C 274.808594 405.945312 273.769531 404.207031 272.816406 402.421875 C 271.863281 400.632812 271 398.804688 270.226562 396.933594 C 269.449219 395.058594 268.769531 393.15625 268.183594 391.214844 C 267.59375 389.277344 267.105469 387.3125 266.710938 385.324219 C 266.316406 383.335938 266.019531 381.335938 265.820312 379.320312 C 265.621094 377.300781 265.523438 375.28125 265.523438 373.253906 L 265.523438 241.148438 C 265.523438 239.121094 265.621094 237.101562 265.820312 235.082031 C 266.019531 233.066406 266.316406 231.066406 266.710938 229.078125 C 267.105469 227.089844 267.59375 225.125 268.183594 223.1875 C 268.769531 221.246094 269.449219 219.34375 270.226562 217.46875 C 271 215.597656 271.863281 213.769531 272.816406 211.980469 C 273.769531 210.195312 274.808594 208.457031 275.933594 206.773438 C 277.054688 205.085938 278.261719 203.460938 279.542969 201.894531 C 280.828125 200.328125 282.183594 198.828125 283.613281 197.394531 C 285.042969 195.964844 286.542969 194.605469 288.105469 193.320312 C 289.667969 192.03125 291.292969 190.828125 292.972656 189.703125 C 294.65625 188.574219 296.386719 187.535156 298.171875 186.578125 C 299.957031 185.625 301.78125 184.757812 303.652344 183.984375 C 305.519531 183.207031 307.421875 182.527344 309.359375 181.9375 C 311.292969 181.347656 313.253906 180.859375 315.238281 180.460938 C 317.222656 180.066406 319.222656 179.769531 321.234375 179.570312 C 323.246094 179.371094 325.265625 179.273438 327.289062 179.273438 Z M 327.289062 179.273438 " fill-opacity="1" fill-rule="nonzero"/><g clip-path="url(#df9d6ab238)"><path fill="#000000" d="M 377.535156 439.667969 L 327.320312 439.667969 C 326.234375 439.667969 325.148438 439.640625 324.0625 439.589844 C 322.980469 439.535156 321.898438 439.457031 320.816406 439.351562 C 319.734375 439.242188 318.660156 439.113281 317.585938 438.953125 C 316.511719 438.792969 315.441406 438.609375 314.375 438.394531 C 313.3125 438.183594 312.253906 437.945312 311.199219 437.683594 C 310.144531 437.417969 309.101562 437.128906 308.0625 436.816406 C 307.023438 436.5 305.992188 436.160156 304.96875 435.792969 C 303.945312 435.425781 302.933594 435.035156 301.929688 434.621094 C 300.925781 434.207031 299.933594 433.765625 298.953125 433.300781 C 297.972656 432.835938 297 432.347656 296.042969 431.835938 C 295.085938 431.324219 294.140625 430.789062 293.210938 430.230469 C 292.277344 429.671875 291.359375 429.089844 290.457031 428.488281 C 289.554688 427.882812 288.667969 427.257812 287.792969 426.609375 C 286.921875 425.964844 286.066406 425.296875 285.226562 424.605469 C 284.386719 423.917969 283.566406 423.207031 282.761719 422.476562 C 281.953125 421.746094 281.167969 420.996094 280.398438 420.230469 C 279.632812 419.460938 278.882812 418.671875 278.152344 417.867188 C 277.425781 417.0625 276.714844 416.242188 276.023438 415.398438 C 275.335938 414.558594 274.667969 413.703125 274.019531 412.832031 C 273.371094 411.957031 272.746094 411.070312 272.144531 410.164062 C 271.539062 409.261719 270.957031 408.34375 270.398438 407.410156 C 269.839844 406.476562 269.304688 405.53125 268.792969 404.574219 C 268.28125 403.613281 267.792969 402.644531 267.328125 401.660156 C 266.863281 400.679688 266.421875 399.683594 266.003906 398.679688 C 265.589844 397.675781 265.195312 396.660156 264.832031 395.636719 C 264.464844 394.613281 264.121094 393.582031 263.804688 392.542969 C 263.492188 391.5 263.199219 390.453125 262.933594 389.398438 C 262.671875 388.34375 262.433594 387.285156 262.21875 386.21875 C 262.007812 385.152344 261.820312 384.078125 261.660156 383.003906 C 261.5 381.929688 261.367188 380.847656 261.257812 379.765625 C 261.152344 378.683594 261.070312 377.601562 261.015625 376.515625 C 260.960938 375.429688 260.933594 374.339844 260.933594 373.253906 L 260.933594 241.179688 C 260.933594 240.09375 260.960938 239.007812 261.015625 237.921875 C 261.070312 236.835938 261.152344 235.753906 261.257812 234.671875 C 261.367188 233.589844 261.5 232.511719 261.660156 231.4375 C 261.820312 230.363281 262.003906 229.292969 262.21875 228.226562 C 262.429688 227.160156 262.667969 226.101562 262.933594 225.046875 C 263.195312 223.992188 263.484375 222.945312 263.800781 221.90625 C 264.117188 220.867188 264.457031 219.835938 264.824219 218.8125 C 265.191406 217.789062 265.582031 216.777344 265.996094 215.773438 C 266.410156 214.769531 266.851562 213.777344 267.316406 212.792969 C 267.78125 211.8125 268.265625 210.84375 268.777344 209.882812 C 269.289062 208.925781 269.824219 207.980469 270.382812 207.046875 C 270.941406 206.117188 271.523438 205.199219 272.125 204.296875 C 272.726562 203.390625 273.351562 202.503906 274 201.632812 C 274.644531 200.757812 275.3125 199.902344 276 199.0625 C 276.6875 198.222656 277.398438 197.402344 278.125 196.59375 C 278.855469 195.789062 279.601562 195.003906 280.367188 194.234375 C 281.136719 193.46875 281.921875 192.71875 282.722656 191.988281 C 283.527344 191.257812 284.347656 190.546875 285.1875 189.859375 C 286.027344 189.167969 286.878906 188.5 287.75 187.855469 C 288.621094 187.207031 289.507812 186.582031 290.410156 185.976562 C 291.3125 185.371094 292.230469 184.792969 293.160156 184.234375 C 294.089844 183.671875 295.03125 183.136719 295.988281 182.625 C 296.945312 182.113281 297.914062 181.625 298.894531 181.160156 C 299.875 180.695312 300.867188 180.253906 301.867188 179.835938 C 302.871094 179.421875 303.882812 179.03125 304.902344 178.664062 C 305.921875 178.296875 306.953125 177.953125 307.992188 177.640625 C 309.027344 177.324219 310.074219 177.03125 311.125 176.769531 C 312.175781 176.503906 313.234375 176.265625 314.300781 176.050781 C 315.363281 175.839844 316.429688 175.652344 317.503906 175.492188 C 318.578125 175.332031 319.652344 175.199219 320.730469 175.089844 C 321.8125 174.984375 322.894531 174.902344 323.976562 174.847656 C 325.058594 174.792969 326.144531 174.765625 327.226562 174.765625 L 377.535156 174.765625 C 378.621094 174.765625 379.707031 174.792969 380.789062 174.84375 C 381.875 174.898438 382.957031 174.976562 384.035156 175.082031 C 385.117188 175.1875 386.195312 175.320312 387.269531 175.480469 C 388.34375 175.640625 389.410156 175.824219 390.476562 176.035156 C 391.542969 176.246094 392.601562 176.484375 393.652344 176.75 C 394.707031 177.011719 395.753906 177.300781 396.792969 177.617188 C 397.832031 177.933594 398.863281 178.273438 399.882812 178.640625 C 400.90625 179.003906 401.917969 179.394531 402.921875 179.8125 C 403.925781 180.226562 404.917969 180.667969 405.898438 181.132812 C 406.882812 181.597656 407.851562 182.085938 408.808594 182.597656 C 409.765625 183.109375 410.710938 183.644531 411.644531 184.203125 C 412.574219 184.761719 413.492188 185.339844 414.394531 185.945312 C 415.296875 186.550781 416.1875 187.175781 417.058594 187.820312 C 417.929688 188.46875 418.785156 189.136719 419.625 189.828125 C 420.464844 190.515625 421.289062 191.226562 422.09375 191.957031 C 422.898438 192.6875 423.683594 193.433594 424.453125 194.203125 C 425.222656 194.972656 425.96875 195.757812 426.699219 196.5625 C 427.429688 197.371094 428.140625 198.191406 428.828125 199.03125 C 429.515625 199.871094 430.1875 200.730469 430.832031 201.601562 C 431.480469 202.476562 432.105469 203.363281 432.710938 204.269531 C 433.3125 205.171875 433.894531 206.089844 434.453125 207.023438 C 435.011719 207.953125 435.546875 208.898438 436.0625 209.859375 C 436.574219 210.816406 437.0625 211.789062 437.527344 212.769531 C 437.992188 213.753906 438.433594 214.746094 438.847656 215.753906 C 439.265625 216.757812 439.65625 217.769531 440.023438 218.792969 C 440.390625 219.816406 440.730469 220.851562 441.046875 221.890625 C 441.363281 222.929688 441.652344 223.980469 441.917969 225.035156 C 442.183594 226.089844 442.421875 227.148438 442.632812 228.214844 C 442.847656 229.28125 443.03125 230.351562 443.191406 231.429688 C 443.351562 232.503906 443.488281 233.582031 443.59375 234.664062 C 443.703125 235.746094 443.78125 236.832031 443.835938 237.917969 C 443.890625 239.003906 443.917969 240.089844 443.917969 241.179688 L 443.917969 373.402344 C 443.917969 374.488281 443.886719 375.574219 443.828125 376.660156 C 443.773438 377.746094 443.691406 378.828125 443.582031 379.90625 C 443.472656 380.988281 443.335938 382.066406 443.171875 383.136719 C 443.011719 384.210938 442.824219 385.28125 442.609375 386.347656 C 442.394531 387.410156 442.152344 388.46875 441.886719 389.523438 C 441.621094 390.574219 441.328125 391.621094 441.011719 392.660156 C 440.695312 393.695312 440.351562 394.726562 439.984375 395.75 C 439.617188 396.769531 439.222656 397.78125 438.804688 398.785156 C 438.386719 399.785156 437.945312 400.777344 437.480469 401.757812 C 437.015625 402.738281 436.527344 403.707031 436.011719 404.664062 C 435.5 405.621094 434.960938 406.566406 434.402344 407.496094 C 433.84375 408.425781 433.261719 409.339844 432.65625 410.242188 C 432.054688 411.144531 431.425781 412.03125 430.78125 412.902344 C 430.132812 413.773438 429.464844 414.628906 428.773438 415.464844 C 428.085938 416.304688 427.375 417.125 426.644531 417.925781 C 425.917969 418.730469 425.167969 419.515625 424.398438 420.28125 C 423.632812 421.050781 422.847656 421.796875 422.042969 422.523438 C 421.238281 423.253906 420.414062 423.960938 419.574219 424.648438 C 418.738281 425.335938 417.882812 426 417.007812 426.648438 C 416.136719 427.292969 415.25 427.917969 414.347656 428.519531 C 413.445312 429.121094 412.53125 429.699219 411.597656 430.257812 C 410.667969 430.8125 409.726562 431.347656 408.769531 431.859375 C 407.8125 432.371094 406.84375 432.855469 405.863281 433.320312 C 404.882812 433.78125 403.890625 434.222656 402.886719 434.636719 C 401.886719 435.050781 400.875 435.441406 399.855469 435.804688 C 398.832031 436.167969 397.804688 436.507812 396.765625 436.824219 C 395.726562 437.136719 394.683594 437.425781 393.632812 437.6875 C 392.578125 437.953125 391.523438 438.1875 390.457031 438.398438 C 389.394531 438.609375 388.328125 438.796875 387.253906 438.953125 C 386.183594 439.113281 385.105469 439.246094 384.027344 439.351562 C 382.949219 439.457031 381.867188 439.535156 380.785156 439.589844 C 379.703125 439.640625 378.617188 439.667969 377.535156 439.667969 Z M 327.320312 183.78125 C 325.441406 183.78125 323.566406 183.871094 321.699219 184.054688 C 319.828125 184.238281 317.972656 184.511719 316.132812 184.878906 C 314.289062 185.246094 312.46875 185.699219 310.671875 186.246094 C 308.875 186.789062 307.109375 187.421875 305.375 188.140625 C 303.636719 188.859375 301.941406 189.660156 300.285156 190.546875 C 298.628906 191.433594 297.019531 192.398438 295.457031 193.441406 C 293.894531 194.484375 292.386719 195.605469 290.9375 196.796875 C 289.484375 197.988281 288.09375 199.25 286.765625 200.578125 C 285.433594 201.90625 284.175781 203.296875 282.980469 204.75 C 281.789062 206.203125 280.671875 207.714844 279.625 209.277344 C 278.582031 210.839844 277.617188 212.449219 276.730469 214.109375 C 275.84375 215.765625 275.039062 217.464844 274.320312 219.203125 C 273.597656 220.9375 272.964844 222.707031 272.417969 224.507812 C 271.871094 226.308594 271.414062 228.128906 271.046875 229.972656 C 270.675781 231.820312 270.402344 233.675781 270.214844 235.550781 C 270.027344 237.421875 269.933594 239.296875 269.933594 241.179688 L 269.933594 373.402344 C 269.933594 375.285156 270.027344 377.15625 270.214844 379.027344 C 270.398438 380.898438 270.675781 382.753906 271.042969 384.597656 C 271.410156 386.441406 271.867188 388.261719 272.414062 390.058594 C 272.960938 391.855469 273.589844 393.625 274.308594 395.359375 C 275.027344 397.097656 275.832031 398.792969 276.714844 400.449219 C 277.601562 402.105469 278.566406 403.714844 279.605469 405.277344 C 280.648438 406.839844 281.765625 408.347656 282.957031 409.800781 C 284.148438 411.253906 285.40625 412.644531 286.730469 413.972656 C 288.058594 415.300781 289.445312 416.5625 290.898438 417.753906 C 292.347656 418.945312 293.851562 420.066406 295.410156 421.109375 C 296.96875 422.15625 298.578125 423.121094 300.230469 424.007812 C 301.886719 424.894531 303.578125 425.695312 305.3125 426.417969 C 307.042969 427.136719 308.808594 427.769531 310.601562 428.316406 C 312.398438 428.863281 314.214844 429.320312 316.054688 429.6875 C 317.894531 430.058594 319.746094 430.335938 321.613281 430.519531 C 323.480469 430.707031 325.351562 430.800781 327.226562 430.800781 L 377.535156 430.800781 C 379.414062 430.804688 381.292969 430.710938 383.164062 430.527344 C 385.035156 430.34375 386.894531 430.066406 388.738281 429.699219 C 390.585938 429.332031 392.40625 428.875 394.207031 428.328125 C 396.007812 427.78125 397.777344 427.148438 399.515625 426.429688 C 401.25 425.707031 402.949219 424.902344 404.609375 424.015625 C 406.265625 423.125 407.878906 422.15625 409.441406 421.109375 C 411.007812 420.0625 412.515625 418.941406 413.96875 417.746094 C 415.421875 416.550781 416.8125 415.285156 418.140625 413.953125 C 419.472656 412.617188 420.734375 411.222656 421.925781 409.765625 C 423.117188 408.308594 424.234375 406.796875 425.277344 405.226562 C 426.324219 403.660156 427.289062 402.046875 428.171875 400.382812 C 429.058594 398.71875 429.859375 397.019531 430.578125 395.277344 C 431.296875 393.535156 431.925781 391.761719 432.46875 389.957031 C 433.015625 388.15625 433.46875 386.328125 433.832031 384.480469 C 434.199219 382.632812 434.46875 380.769531 434.652344 378.894531 C 434.832031 377.019531 434.921875 375.136719 434.921875 373.253906 L 434.921875 241.179688 C 434.917969 239.300781 434.824219 237.425781 434.640625 235.554688 C 434.453125 233.683594 434.175781 231.828125 433.808594 229.984375 C 433.441406 228.140625 432.984375 226.320312 432.441406 224.523438 C 431.894531 222.726562 431.261719 220.957031 430.542969 219.222656 C 429.824219 217.488281 429.023438 215.789062 428.136719 214.132812 C 427.253906 212.476562 426.289062 210.867188 425.246094 209.304688 C 424.203125 207.742188 423.085938 206.234375 421.898438 204.78125 C 420.707031 203.328125 419.449219 201.9375 418.121094 200.609375 C 416.792969 199.28125 415.40625 198.019531 413.957031 196.828125 C 412.507812 195.636719 411 194.515625 409.441406 193.472656 C 407.882812 192.429688 406.277344 191.460938 404.621094 190.574219 C 402.96875 189.691406 401.273438 188.886719 399.542969 188.167969 C 397.808594 187.445312 396.042969 186.8125 394.25 186.265625 C 392.457031 185.71875 390.636719 185.261719 388.796875 184.894531 C 386.957031 184.527344 385.105469 184.25 383.238281 184.0625 C 381.371094 183.875 379.5 183.78125 377.625 183.78125 Z M 327.320312 183.78125 " fill-opacity="1" fill-rule="nonzero"/></g><path fill="#000000" d="M 352.425781 405.527344 C 351.28125 405.550781 350.28125 405.179688 349.425781 404.417969 L 321.527344 379.984375 C 321.304688 379.789062 321.105469 379.570312 320.925781 379.332031 C 320.746094 379.097656 320.589844 378.84375 320.460938 378.578125 C 320.328125 378.308594 320.226562 378.03125 320.152344 377.742188 C 320.074219 377.457031 320.027344 377.164062 320.011719 376.867188 C 319.992188 376.570312 320.003906 376.273438 320.042969 375.976562 C 320.082031 375.683594 320.152344 375.394531 320.25 375.113281 C 320.347656 374.832031 320.46875 374.5625 320.617188 374.304688 C 320.769531 374.046875 320.941406 373.808594 321.140625 373.585938 C 321.335938 373.363281 321.550781 373.160156 321.789062 372.980469 C 322.027344 372.800781 322.277344 372.644531 322.542969 372.511719 C 322.8125 372.382812 323.089844 372.28125 323.375 372.203125 C 323.664062 372.128906 323.957031 372.082031 324.253906 372.0625 C 324.550781 372.046875 324.84375 372.054688 325.140625 372.097656 C 325.433594 372.136719 325.722656 372.207031 326.003906 372.300781 C 326.285156 372.398438 326.554688 372.523438 326.808594 372.671875 C 327.066406 372.824219 327.304688 372.996094 327.527344 373.195312 L 355.394531 397.625 C 355.621094 397.820312 355.820312 398.035156 356 398.269531 C 356.183594 398.503906 356.339844 398.753906 356.46875 399.023438 C 356.601562 399.289062 356.703125 399.5625 356.78125 399.851562 C 356.859375 400.136719 356.90625 400.425781 356.925781 400.722656 C 356.945312 401.019531 356.9375 401.3125 356.898438 401.609375 C 356.859375 401.902344 356.792969 402.191406 356.695312 402.46875 C 356.601562 402.75 356.480469 403.019531 356.332031 403.277344 C 356.183594 403.535156 356.011719 403.773438 355.816406 403.996094 C 355.390625 404.488281 354.882812 404.867188 354.289062 405.136719 C 353.695312 405.402344 353.078125 405.535156 352.425781 405.527344 Z M 352.425781 405.527344 " fill-opacity="1" fill-rule="nonzero"/><path fill="#000000" d="M 352.425781 405.527344 C 351.96875 405.53125 351.515625 405.46875 351.078125 405.335938 C 350.636719 405.199219 350.226562 405.003906 349.847656 404.742188 C 349.46875 404.484375 349.136719 404.171875 348.851562 403.8125 C 348.566406 403.449219 348.34375 403.054688 348.179688 402.625 C 348.015625 402.191406 347.921875 401.746094 347.894531 401.289062 C 347.867188 400.828125 347.910156 400.375 348.019531 399.929688 C 348.132812 399.480469 348.308594 399.0625 348.546875 398.667969 C 348.789062 398.277344 349.082031 397.929688 349.425781 397.625 L 377.292969 373.195312 C 377.515625 372.996094 377.757812 372.820312 378.011719 372.671875 C 378.269531 372.519531 378.539062 372.394531 378.820312 372.300781 C 379.101562 372.203125 379.390625 372.132812 379.683594 372.09375 C 379.980469 372.050781 380.273438 372.039062 380.570312 372.058594 C 380.867188 372.074219 381.160156 372.121094 381.449219 372.199219 C 381.738281 372.273438 382.015625 372.378906 382.28125 372.507812 C 382.550781 372.636719 382.800781 372.792969 383.039062 372.972656 C 383.277344 373.152344 383.492188 373.355469 383.691406 373.578125 C 383.886719 373.800781 384.0625 374.042969 384.210938 374.300781 C 384.359375 374.558594 384.484375 374.828125 384.582031 375.109375 C 384.675781 375.390625 384.746094 375.679688 384.785156 375.976562 C 384.824219 376.269531 384.835938 376.566406 384.816406 376.863281 C 384.800781 377.160156 384.753906 377.453125 384.675781 377.742188 C 384.601562 378.03125 384.496094 378.308594 384.367188 378.578125 C 384.234375 378.84375 384.078125 379.097656 383.898438 379.335938 C 383.71875 379.570312 383.515625 379.789062 383.292969 379.984375 L 355.425781 404.417969 C 354.566406 405.171875 353.566406 405.542969 352.425781 405.527344 Z M 352.425781 405.527344 " fill-opacity="1" fill-rule="nonzero"/><path fill="#000000" d="M 352.425781 360.542969 C 351.285156 360.550781 350.285156 360.179688 349.425781 359.429688 L 321.527344 334.96875 C 321.308594 334.769531 321.105469 334.554688 320.929688 334.316406 C 320.75 334.082031 320.59375 333.828125 320.464844 333.5625 C 320.335938 333.292969 320.234375 333.015625 320.160156 332.730469 C 320.085938 332.441406 320.039062 332.148438 320.019531 331.851562 C 320.003906 331.558594 320.015625 331.261719 320.054688 330.96875 C 320.097656 330.671875 320.164062 330.386719 320.261719 330.105469 C 320.359375 329.824219 320.484375 329.554688 320.632812 329.300781 C 320.785156 329.042969 320.957031 328.804688 321.152344 328.582031 C 321.351562 328.359375 321.566406 328.160156 321.804688 327.980469 C 322.039062 327.800781 322.292969 327.648438 322.558594 327.519531 C 322.824219 327.386719 323.101562 327.285156 323.390625 327.210938 C 323.675781 327.136719 323.96875 327.089844 324.261719 327.074219 C 324.558594 327.054688 324.855469 327.066406 325.148438 327.105469 C 325.441406 327.148438 325.730469 327.21875 326.007812 327.3125 C 326.289062 327.410156 326.558594 327.535156 326.8125 327.6875 C 327.066406 327.835938 327.308594 328.007812 327.527344 328.207031 L 355.394531 352.636719 C 355.742188 352.941406 356.035156 353.289062 356.277344 353.683594 C 356.515625 354.074219 356.691406 354.496094 356.804688 354.941406 C 356.914062 355.386719 356.957031 355.839844 356.929688 356.300781 C 356.902344 356.761719 356.808594 357.207031 356.644531 357.636719 C 356.480469 358.066406 356.257812 358.464844 355.972656 358.824219 C 355.6875 359.1875 355.355469 359.496094 354.976562 359.757812 C 354.59375 360.015625 354.1875 360.214844 353.746094 360.347656 C 353.304688 360.480469 352.855469 360.546875 352.398438 360.542969 Z M 352.425781 360.542969 " fill-opacity="1" fill-rule="nonzero"/><path fill="#000000" d="M 352.425781 360.542969 C 351.777344 360.535156 351.15625 360.394531 350.566406 360.125 C 349.972656 359.851562 349.464844 359.46875 349.035156 358.980469 C 348.84375 358.757812 348.671875 358.519531 348.527344 358.261719 C 348.378906 358.003906 348.257812 357.738281 348.164062 357.457031 C 348.070312 357.175781 348.003906 356.890625 347.96875 356.597656 C 347.929688 356.304688 347.921875 356.011719 347.945312 355.714844 C 347.964844 355.421875 348.015625 355.128906 348.09375 354.847656 C 348.171875 354.5625 348.277344 354.285156 348.410156 354.023438 C 348.539062 353.757812 348.699219 353.511719 348.878906 353.277344 C 349.0625 353.042969 349.261719 352.832031 349.488281 352.636719 L 377.355469 328.207031 C 377.578125 328.007812 377.816406 327.835938 378.070312 327.683594 C 378.328125 327.535156 378.59375 327.410156 378.875 327.3125 C 379.15625 327.214844 379.441406 327.144531 379.734375 327.101562 C 380.03125 327.0625 380.324219 327.050781 380.621094 327.066406 C 380.917969 327.085938 381.210938 327.132812 381.496094 327.207031 C 381.785156 327.28125 382.0625 327.382812 382.328125 327.511719 C 382.59375 327.640625 382.847656 327.796875 383.082031 327.976562 C 383.320312 328.15625 383.535156 328.355469 383.734375 328.578125 C 383.929688 328.800781 384.105469 329.039062 384.253906 329.296875 C 384.40625 329.554688 384.527344 329.820312 384.625 330.101562 C 384.722656 330.382812 384.792969 330.671875 384.832031 330.964844 C 384.871094 331.261719 384.882812 331.554688 384.867188 331.851562 C 384.847656 332.148438 384.800781 332.441406 384.726562 332.730469 C 384.652344 333.015625 384.550781 333.292969 384.421875 333.5625 C 384.289062 333.828125 384.136719 334.082031 383.957031 334.316406 C 383.777344 334.554688 383.578125 334.769531 383.355469 334.96875 L 355.394531 359.550781 C 354.523438 360.238281 353.535156 360.570312 352.425781 360.542969 Z M 352.425781 360.542969 " fill-opacity="1" fill-rule="nonzero"/><path fill="#537188" d="M 352.425781 285.835938 C 351.777344 285.832031 351.128906 285.800781 350.484375 285.734375 C 349.839844 285.667969 349.199219 285.570312 348.5625 285.441406 C 347.925781 285.316406 347.296875 285.15625 346.675781 284.964844 C 346.058594 284.777344 345.445312 284.554688 344.847656 284.308594 C 344.25 284.058594 343.664062 283.777344 343.089844 283.472656 C 342.519531 283.164062 341.964844 282.832031 341.425781 282.46875 C 340.886719 282.105469 340.363281 281.71875 339.863281 281.308594 C 339.363281 280.894531 338.882812 280.457031 338.421875 280 C 337.964844 279.539062 337.527344 279.058594 337.117188 278.554688 C 336.707031 278.054688 336.320312 277.53125 335.957031 276.992188 C 335.597656 276.453125 335.261719 275.894531 334.957031 275.324219 C 334.652344 274.75 334.371094 274.164062 334.125 273.5625 C 333.875 272.964844 333.65625 272.351562 333.464844 271.730469 C 333.277344 271.109375 333.117188 270.480469 332.988281 269.84375 C 332.859375 269.203125 332.765625 268.5625 332.699219 267.917969 C 332.632812 267.269531 332.601562 266.621094 332.597656 265.972656 L 332.597656 235.199219 C 332.597656 234.546875 332.628906 233.898438 332.695312 233.25 C 332.757812 232.605469 332.851562 231.960938 332.980469 231.324219 C 333.105469 230.683594 333.261719 230.054688 333.453125 229.433594 C 333.640625 228.808594 333.859375 228.199219 334.105469 227.597656 C 334.355469 226.996094 334.632812 226.410156 334.9375 225.835938 C 335.246094 225.261719 335.578125 224.703125 335.941406 224.164062 C 336.300781 223.621094 336.6875 223.101562 337.097656 222.597656 C 337.511719 222.09375 337.945312 221.613281 338.40625 221.152344 C 338.863281 220.691406 339.34375 220.257812 339.847656 219.84375 C 340.347656 219.429688 340.871094 219.042969 341.410156 218.683594 C 341.949219 218.320312 342.507812 217.988281 343.078125 217.679688 C 343.652344 217.375 344.238281 217.097656 344.839844 216.847656 C 345.4375 216.597656 346.050781 216.378906 346.671875 216.191406 C 347.292969 216 347.921875 215.84375 348.558594 215.714844 C 349.195312 215.589844 349.835938 215.496094 350.484375 215.429688 C 351.128906 215.367188 351.777344 215.335938 352.425781 215.335938 C 353.074219 215.335938 353.722656 215.367188 354.371094 215.429688 C 355.015625 215.496094 355.65625 215.589844 356.292969 215.714844 C 356.933594 215.84375 357.5625 216 358.183594 216.191406 C 358.804688 216.378906 359.414062 216.597656 360.015625 216.847656 C 360.613281 217.097656 361.199219 217.375 361.773438 217.679688 C 362.347656 217.988281 362.902344 218.320312 363.441406 218.683594 C 363.984375 219.042969 364.503906 219.429688 365.003906 219.84375 C 365.507812 220.257812 365.988281 220.691406 366.449219 221.152344 C 366.90625 221.613281 367.34375 222.09375 367.753906 222.597656 C 368.167969 223.101562 368.550781 223.621094 368.914062 224.164062 C 369.273438 224.703125 369.609375 225.261719 369.914062 225.835938 C 370.21875 226.410156 370.496094 226.996094 370.746094 227.597656 C 370.996094 228.199219 371.210938 228.808594 371.402344 229.433594 C 371.589844 230.054688 371.746094 230.683594 371.875 231.324219 C 372 231.960938 372.097656 232.605469 372.160156 233.25 C 372.222656 233.898438 372.253906 234.546875 372.253906 235.199219 L 372.253906 265.972656 C 372.253906 266.621094 372.21875 267.269531 372.152344 267.917969 C 372.089844 268.5625 371.992188 269.203125 371.863281 269.84375 C 371.734375 270.480469 371.578125 271.109375 371.386719 271.730469 C 371.199219 272.351562 370.980469 272.964844 370.730469 273.5625 C 370.480469 274.164062 370.203125 274.75 369.894531 275.324219 C 369.589844 275.894531 369.257812 276.453125 368.894531 276.992188 C 368.535156 277.53125 368.148438 278.054688 367.734375 278.554688 C 367.324219 279.058594 366.890625 279.539062 366.429688 280 C 365.972656 280.457031 365.492188 280.894531 364.988281 281.308594 C 364.488281 281.71875 363.96875 282.105469 363.429688 282.46875 C 362.890625 282.832031 362.332031 283.164062 361.761719 283.472656 C 361.191406 283.777344 360.605469 284.058594 360.003906 284.308594 C 359.40625 284.554688 358.796875 284.777344 358.175781 284.964844 C 357.554688 285.15625 356.925781 285.316406 356.289062 285.441406 C 355.65625 285.570312 355.015625 285.667969 354.367188 285.734375 C 353.722656 285.800781 353.074219 285.832031 352.425781 285.835938 Z M 352.425781 285.835938 " fill-opacity="1" fill-rule="nonzero"/><path fill="#000000" d="M 352.425781 290.433594 C 351.628906 290.433594 350.835938 290.390625 350.042969 290.3125 C 349.25 290.234375 348.464844 290.117188 347.683594 289.960938 C 346.902344 289.804688 346.128906 289.609375 345.367188 289.375 C 344.605469 289.144531 343.855469 288.875 343.121094 288.570312 C 342.386719 288.265625 341.667969 287.921875 340.964844 287.546875 C 340.261719 287.167969 339.578125 286.757812 338.917969 286.316406 C 338.253906 285.871094 337.617188 285.398438 337 284.890625 C 336.386719 284.386719 335.796875 283.851562 335.234375 283.285156 C 334.667969 282.722656 334.136719 282.132812 333.628906 281.515625 C 333.125 280.898438 332.648438 280.257812 332.207031 279.59375 C 331.765625 278.929688 331.355469 278.246094 330.980469 277.542969 C 330.605469 276.839844 330.261719 276.121094 329.957031 275.382812 C 329.652344 274.644531 329.382812 273.894531 329.152344 273.132812 C 328.921875 272.367188 328.726562 271.597656 328.570312 270.8125 C 328.414062 270.03125 328.296875 269.242188 328.21875 268.449219 C 328.140625 267.65625 328.097656 266.859375 328.097656 266.0625 L 328.097656 235.199219 C 328.097656 234.402344 328.136719 233.605469 328.214844 232.808594 C 328.292969 232.015625 328.410156 231.226562 328.566406 230.445312 C 328.722656 229.660156 328.914062 228.886719 329.144531 228.125 C 329.378906 227.359375 329.644531 226.609375 329.949219 225.871094 C 330.253906 225.132812 330.59375 224.414062 330.972656 223.710938 C 331.347656 223.007812 331.753906 222.320312 332.199219 221.660156 C 332.640625 220.996094 333.113281 220.355469 333.621094 219.738281 C 334.125 219.121094 334.660156 218.53125 335.222656 217.964844 C 335.789062 217.402344 336.378906 216.867188 336.992188 216.359375 C 337.609375 215.851562 338.246094 215.378906 338.910156 214.933594 C 339.574219 214.492188 340.253906 214.082031 340.957031 213.703125 C 341.660156 213.328125 342.378906 212.988281 343.117188 212.683594 C 343.851562 212.375 344.601562 212.109375 345.363281 211.875 C 346.125 211.644531 346.898438 211.449219 347.679688 211.296875 C 348.460938 211.140625 349.25 211.023438 350.042969 210.945312 C 350.835938 210.867188 351.628906 210.828125 352.425781 210.828125 C 353.222656 210.828125 354.019531 210.867188 354.8125 210.945312 C 355.605469 211.023438 356.390625 211.140625 357.171875 211.296875 C 357.953125 211.449219 358.726562 211.644531 359.488281 211.875 C 360.25 212.109375 361 212.375 361.738281 212.683594 C 362.472656 212.988281 363.191406 213.328125 363.894531 213.703125 C 364.597656 214.082031 365.28125 214.492188 365.941406 214.933594 C 366.605469 215.378906 367.246094 215.851562 367.859375 216.359375 C 368.476562 216.867188 369.066406 217.402344 369.628906 217.964844 C 370.191406 218.53125 370.726562 219.121094 371.234375 219.738281 C 371.738281 220.355469 372.210938 220.996094 372.65625 221.660156 C 373.097656 222.320312 373.507812 223.007812 373.882812 223.710938 C 374.257812 224.414062 374.597656 225.132812 374.902344 225.871094 C 375.207031 226.609375 375.476562 227.359375 375.707031 228.125 C 375.9375 228.886719 376.132812 229.660156 376.289062 230.445312 C 376.441406 231.226562 376.558594 232.015625 376.636719 232.808594 C 376.714844 233.605469 376.753906 234.402344 376.753906 235.199219 L 376.753906 265.972656 C 376.757812 266.769531 376.71875 267.570312 376.644531 268.363281 C 376.566406 269.160156 376.453125 269.953125 376.296875 270.738281 C 376.144531 271.519531 375.953125 272.296875 375.722656 273.0625 C 375.492188 273.828125 375.222656 274.582031 374.921875 275.320312 C 374.617188 276.058594 374.277344 276.78125 373.902344 277.488281 C 373.527344 278.195312 373.117188 278.882812 372.675781 279.546875 C 372.234375 280.214844 371.761719 280.855469 371.253906 281.476562 C 370.75 282.09375 370.214844 282.6875 369.652344 283.253906 C 369.089844 283.820312 368.5 284.359375 367.882812 284.867188 C 367.265625 285.375 366.625 285.851562 365.964844 286.296875 C 365.300781 286.742188 364.617188 287.15625 363.914062 287.53125 C 363.210938 287.910156 362.488281 288.253906 361.753906 288.5625 C 361.015625 288.867188 360.265625 289.136719 359.5 289.371094 C 358.738281 289.605469 357.964844 289.800781 357.183594 289.957031 C 356.398438 290.113281 355.609375 290.234375 354.816406 290.3125 C 354.019531 290.390625 353.226562 290.433594 352.425781 290.433594 Z M 352.425781 219.933594 C 351.421875 219.933594 350.421875 220.03125 349.4375 220.226562 C 348.449219 220.425781 347.492188 220.714844 346.558594 221.101562 C 345.628906 221.488281 344.746094 221.960938 343.910156 222.519531 C 343.074219 223.082031 342.300781 223.71875 341.585938 224.429688 C 340.875 225.144531 340.242188 225.917969 339.679688 226.757812 C 339.121094 227.59375 338.648438 228.480469 338.265625 229.414062 C 337.878906 230.34375 337.589844 231.304688 337.390625 232.292969 C 337.195312 233.28125 337.097656 234.28125 337.097656 235.289062 L 337.097656 265.972656 C 337.097656 266.980469 337.195312 267.976562 337.390625 268.96875 C 337.589844 269.957031 337.878906 270.914062 338.265625 271.847656 C 338.648438 272.777344 339.121094 273.664062 339.679688 274.503906 C 340.242188 275.339844 340.875 276.117188 341.585938 276.828125 C 342.300781 277.542969 343.074219 278.179688 343.910156 278.738281 C 344.746094 279.300781 345.628906 279.773438 346.558594 280.160156 C 347.492188 280.542969 348.449219 280.835938 349.4375 281.03125 C 350.421875 281.230469 351.421875 281.328125 352.425781 281.328125 C 353.433594 281.328125 354.429688 281.230469 355.417969 281.03125 C 356.402344 280.835938 357.363281 280.542969 358.292969 280.160156 C 359.222656 279.773438 360.105469 279.300781 360.941406 278.738281 C 361.78125 278.179688 362.554688 277.542969 363.265625 276.828125 C 363.976562 276.117188 364.613281 275.339844 365.171875 274.503906 C 365.730469 273.664062 366.203125 272.777344 366.589844 271.847656 C 366.972656 270.914062 367.265625 269.957031 367.460938 268.96875 C 367.65625 267.976562 367.753906 266.980469 367.753906 265.972656 L 367.753906 235.199219 C 367.753906 234.191406 367.65625 233.191406 367.460938 232.203125 C 367.265625 231.214844 366.972656 230.253906 366.589844 229.320312 C 366.203125 228.390625 365.730469 227.503906 365.171875 226.667969 C 364.613281 225.828125 363.976562 225.054688 363.265625 224.339844 C 362.554688 223.628906 361.78125 222.992188 360.941406 222.429688 C 360.105469 221.871094 359.222656 221.398438 358.292969 221.011719 C 357.363281 220.625 356.402344 220.335938 355.417969 220.136719 C 354.429688 219.941406 353.433594 219.84375 352.425781 219.84375 Z M 352.425781 219.933594 " fill-opacity="1" fill-rule="nonzero"/></svg>